<?xml version="1.0" encoding="utf-8"?>
<!-- Generator: Adobe Illustrator 21.0.0, SVG Export Plug-In . SVG Version: 6.00 Build 0)  -->
<svg version="1.1" id="Layer_1" xmlns="http://www.w3.org/2000/svg" xmlns:xlink="http://www.w3.org/1999/xlink" x="0px" y="0px"
	 viewBox="0 0 120.1 122.9" style="enable-background:new 0 0 120.1 122.9;" xml:space="preserve">
<style type="text/css">
	.st0{fill:#28A8DF;}
	.st1{fill:#28A9DF;}
	.st2{fill:#2BABE1;}
	.st3{fill:#2DACE2;}
	.st4{fill:#72C7EC;}
	.st5{fill:#45B7E8;}
	.st6{fill:#85CFEE;}
	.st7{fill:#58BCE7;}
	.st8{fill:#FEFEFE;}
</style>
<g>
	<g>
		<path class="st0" d="M0,92.4c3.5,0,7-0.2,10.5,0.2c4.9,0.6,7.6,3.1,8.5,8c0.5,2.7,0.5,5.5-0.1,8.2c-0.9,4.5-3.9,7-8.7,7.6
			c-3.4,0.4-6.8,0.2-10.2,0.2C0,108.5,0,100.4,0,92.4z"/>
		<path class="st0" d="M61,13c-9.3-0.1-16.2,6.8-15.8,15.9c0.1,2.4,0.8,4.6,2,6.7c0.4,0.7,0.6,1-0.5,1.2
			C33.2,39.4,26.4,53.9,33.1,66c0.3,0.6,0.7,1.2,1,1.7c0,0.2,0,0.3-0.3,0.3c-3.1-1.9-5.6-4.4-7.7-7.2c-7.4-9.7-8.2-23-2-32.9
			c2.7-4.2,6.5-7.1,10.9-9.3c2-1.1,4-2.1,6-3.2c5.3-2.9,7.9-7.4,7.6-13.5c0-0.6,0-1.1,0-1.9c4,4.8,8.6,8.8,13.1,12.7
			C61.7,13.3,61.3,13,61,13z"/>
		<path class="st0" d="M75.4,25.4c4,4.3,7.3,9.1,8.4,15.1c1.1,6.3-0.6,12.1-3.9,17.5c-4,6.6-9.8,11.1-17,13.8
			c-0.3,0.1-0.5,0.2-0.5-0.3c8-6.3,10.7-19.3,2.1-29c1.5-0.6,2.9-1.1,4.2-2c4.2-3,6.4-7.1,6.6-12.3c0-0.8,0-1.5-0.1-2.3
			C75,25.6,75,25.4,75.4,25.4z"/>
		<path class="st0" d="M61.5,56.1c0,6.3-5.2,11.5-11.4,11.4c-6.3-0.1-11.4-5.2-11.4-11.5s5.2-11.4,11.5-11.4S61.6,49.8,61.5,56.1z"
			/>
		<path class="st0" d="M63.1,113.6c0,2.7,0,5.4,0,8.1c0,0.9-0.2,1.2-1.1,1.2c-1-0.1-2.1,0-3.1,0c-0.6,0-0.9-0.1-0.9-0.8
			c0-5.2-0.1-10.3,0.1-15.5c0.1-4.9,4.7-8.9,9.8-8.9c5.1,0,9.6,4,9.9,8.9c0.3,4.3-1.8,8-5.5,9.8c-3.5,1.7-6.6,0.8-8.6-2.5
			c-0.1-0.1-0.2-0.2-0.3-0.3C63.3,113.5,63.2,113.6,63.1,113.6z"/>
		<path class="st0" d="M60.2,36.7c-4.9,0-8.8-3.9-8.7-8.8c0-4.8,4-8.7,8.7-8.7c4.8,0,8.8,3.9,8.8,8.8C68.9,32.9,65.1,36.7,60.2,36.7
			z"/>
		<path class="st0" d="M94.6,113.5c-0.5,0.1-0.6,0.4-0.7,0.6c-1.7,2.7-4.4,3.7-7.5,2.7c-4.7-1.6-7.5-6.6-6.4-11.5
			c1.1-4.7,5.8-8.2,10.6-7.7c5.1,0.6,9,4.7,9,9.7c0,2.8,0,5.5,0,8.3c0,0.8-0.2,1-1,1c-1-0.1-2.1-0.1-3.1,0c-0.7,0-1-0.2-1-0.9
			C94.6,115,94.6,114.3,94.6,113.5z"/>
		<path class="st0" d="M56.2,104.1c-0.1,1.7,0.2,3.7-0.2,5.8c-1,4.7-4.7,7.5-9.6,7.2c-4.2-0.2-7.6-3.8-8-8.3
			c-0.3-3.3-0.1-6.6-0.1-9.8c0-0.7,0.2-0.9,0.9-0.9c1.1,0,2.2,0.1,3.2,0c0.8-0.1,1,0.3,1,1c0,2.7,0,5.4,0,8c0,0.9,0,1.8,0.3,2.6
			c0.6,1.6,1.8,2.6,3.5,2.6c1.8,0,3-0.9,3.6-2.6c0.3-0.8,0.3-1.6,0.3-2.5c0-2.7,0-5.4,0-8c0-1,0.3-1.2,1.2-1.2
			c0.9,0.1,1.8,0.1,2.8,0c0.9-0.1,1.2,0.3,1.1,1.2C56.2,100.7,56.2,102.2,56.2,104.1z"/>
		<path class="st0" d="M36.3,104.2c-1.2-0.7-2.2-1.1-3.3-1.4c-3.1-0.8-6.8,2.1-6.4,5.1c0.3,2.6,0,5.2,0.1,7.8c0,0.7-0.2,1-0.9,1
			c-1.1-0.1-2.2-0.1-3.2,0c-0.8,0-0.9-0.3-0.9-1c0-5.6,0-11.1,0-16.7c0-0.8,0.2-1,1-0.9c1.1,0.1,2.5-0.4,3.4,0.2
			c0.8,0.6,0.4,2.1,0.9,3.2c0.9-0.9,1.5-1.9,2.5-2.6c2-1.4,4-1.6,6.2-0.7c0.5,0.2,0.8,0.4,0.8,1C36.3,100.8,36.3,102.4,36.3,104.2z"
			/>
		<path class="st1" d="M106.7,104.5c0,3.7,0,7.4,0,11c0,0.8-0.2,1.1-1.1,1.1c-1-0.1-2.1,0-3.1,0c-0.6,0-0.8-0.2-0.8-0.8
			c0-7.6,0-15.1,0-22.7c0-0.6,0.2-0.8,0.8-0.8c1,0,2.1,0.1,3.1,0s1.1,0.4,1.1,1.2C106.6,97.2,106.7,100.9,106.7,104.5z"/>
		<path class="st2" d="M118.8,94.3c-0.3,0.7-0.5,1.5-0.8,2.2c-0.1,0.3-0.2,0.6-0.6,0.6s-0.5-0.3-0.6-0.6c-0.3-0.7-0.5-1.4-1-2
			c0,0.6,0,1.2,0,1.8c0,0.3,0.1,0.8-0.5,0.8s-0.5-0.4-0.5-0.7c0-1.1,0-2.2,0-3.2c0-0.4-0.1-0.8,0.5-0.8c0.4,0,1-0.2,1.2,0.5
			c0.2,0.8,0.5,1.6,0.9,2.7c0.3-1,0.7-1.7,0.8-2.4c0.2-0.8,0.7-0.7,1.3-0.7c0.8,0,0.5,0.6,0.5,1c0,1,0,2.1,0,3.1
			c0,0.3,0.1,0.7-0.4,0.7S119,97,119,96.6c0-0.7,0-1.4,0-2.1C118.9,94.3,118.9,94.3,118.8,94.3z"/>
		<path class="st3" d="M112.4,92.4c0.4,0,0.9,0,1.3,0c0.3,0,0.6,0,0.6,0.4s-0.1,0.6-0.5,0.5c-1-0.1-1,0.5-0.9,1.2c0,0.7,0,1.4,0,2.2
			c0,0.3-0.1,0.5-0.5,0.5s-0.5-0.2-0.5-0.5c0-0.8,0-1.6,0-2.4c0-0.6-0.1-1-0.8-0.9c-0.4,0-0.6-0.1-0.6-0.5s0.3-0.4,0.6-0.4
			C111.5,92.4,111.9,92.4,112.4,92.4z"/>
		<path class="st4" d="M62.4,71.5c0.1,0.2,0.3,0.2,0.5,0.3c-0.4,0.2-0.8,0.3-1.3,0.6C61.8,71.8,62.1,71.6,62.4,71.5z"/>
		<path class="st5" d="M33.8,67.9c0.1-0.1,0.2-0.2,0.3-0.3c0.3,0.1,0.6,0.3,0.3,0.5C34.2,68.4,34,68.1,33.8,67.9z"/>
		<path class="st6" d="M61,13c0.2-0.1,0.6,0,0.8-0.3c0.2,0,0.4,0.2,0.3,0.3C61.7,13.3,61.3,13.1,61,13z"/>
		<path class="st7" d="M75.4,25.4c-0.2,0.1-0.2,0.3-0.3,0.5c-0.2-0.3-0.3-0.6-0.1-0.8C75.1,24.9,75.3,25.2,75.4,25.4z"/>
		<path class="st8" d="M5.2,104.5c0-2.3,0-4.6,0-7c0-0.8,0.2-1.1,1-1c1.2,0.1,2.4,0.1,3.6,0.2c2,0.2,3.4,1.3,3.9,3.3
			c0.7,3,0.7,6,0,9c-0.5,2.1-1.9,3.1-4,3.3c-1.2,0.1-2.3,0.1-3.5,0.1c-0.7,0-1-0.2-1-1C5.3,109.1,5.2,106.8,5.2,104.5z"/>
		<path class="st8" d="M73,107.5c0,2.8-2.3,5-5,5s-5-2.2-5-4.9c0-2.7,2.3-5.1,5-5C70.7,102.5,73,104.8,73,107.5z"/>
		<path class="st8" d="M89.7,112.5c-2.7,0-5-2.2-5-4.9c0-2.8,2.2-5.1,5-5.1c2.7,0,5,2.2,5,4.9C94.8,110.2,92.5,112.5,89.7,112.5z"/>
	</g>
</g>
</svg>
