<?xml version="1.0" encoding="utf-8"?>
<!-- Generator: Adobe Illustrator 21.0.0, SVG Export Plug-In . SVG Version: 6.00 Build 0)  -->
<svg version="1.1" id="Layer_1" xmlns="http://www.w3.org/2000/svg" xmlns:xlink="http://www.w3.org/1999/xlink" x="0px" y="0px"
	 viewBox="0 0 648.6 648.1" style="enable-background:new 0 0 648.6 648.1;" xml:space="preserve">
<style type="text/css">
	.st0{fill:#FEFEFE;}
</style>
<g>
	<path d="M324.5,610.6c-78,0-156,0-234,0c-26.1,0-48.4-19.3-52-45.1c-0.4-2.5-0.5-5.1-0.5-7.6c0-155.8,0-311.7,0-467.5
		c0-26.3,19.1-48.5,45.1-52.3c2.5-0.4,5.1-0.5,7.6-0.5c155.9,0,311.8,0,467.7,0c25.8,0,47.9,18.8,52,44.3c0.4,2.6,0.6,5.2,0.6,7.9
		c0,156.1,0,312.3,0,468.4c0,26.5-19.8,48.9-46.1,52.1c-2.2,0.3-4.3,0.4-6.5,0.4C480.5,610.6,402.5,610.6,324.5,610.6z"/>
	<path class="st0" d="M358.2,433.6c0,36.1,0,72.2,0.1,108.2c0,2.2-0.5,2.7-2.7,2.7c-31-0.1-62.1-0.1-93.1,0c-2.1,0-2.7-0.4-2.7-2.7
		c0.1-72.2,0-144.3,0.1-216.5c0-2.3-0.4-3.1-2.9-3c-12.9,0.2-25.8,0-38.6,0.1c-1.7,0-2.4-0.3-2.4-2.1c0-6.6-0.2-13.1-0.2-19.7
		c-0.2-17.7-0.4-35.5-0.6-53.2c-0.1-4.7,0-4.7,4.7-4.7c12.8,0,25.6,0,38.4,0c2,0,2.5-0.5,2.5-2.5c-0.1-22-0.1-44,0-66
		c0.1-14,3.3-27.2,10.4-39.3c9.4-16.1,23.5-25.4,41.7-28.9c8.9-1.7,17.9-1.7,27-2.1c12.9-0.6,25.7-0.5,38.6-0.2
		c18.4,0.5,36.9,1.5,55.1,4.1c1.5,0.2,1.5,0.6,1.4,1.9c-1.7,14.7-3.4,29.3-5,44c-1.2,10.6-2.5,21.2-3.7,31.9
		c-0.1,1.2-0.4,1.6-1.7,1.5c-9.7-0.2-19.3-0.4-29-0.5c-6.3-0.1-12.6-0.4-18.9-0.4c-11.6-0.1-18.3,6.1-18.6,17.8
		c-0.3,11.9-0.1,23.8-0.3,35.7c0,1.1,0.4,1.2,1.2,1.2c0.6,0,1.1,0,1.7,0c21.1,0,42.2,0,63.4,0c2,0,2.7,0.3,2.7,2.5
		c-0.1,25.5-0.1,51,0,76.5c0,2.2-0.7,2.5-2.7,2.5c-21-0.1-42.1,0-63.1-0.1c-2,0-2.5,0.5-2.5,2.5
		C358.2,361.2,358.2,397.4,358.2,433.6z"/>
</g>
</svg>
