<?xml version="1.0" encoding="utf-8"?>
<!-- Generator: Adobe Illustrator 21.0.0, SVG Export Plug-In . SVG Version: 6.00 Build 0)  -->
<svg version="1.1" id="Layer_1" xmlns="http://www.w3.org/2000/svg" xmlns:xlink="http://www.w3.org/1999/xlink" x="0px" y="0px"
	 viewBox="0 0 1108 1024" style="enable-background:new 0 0 1108 1024;" xml:space="preserve">
<style type="text/css">
	.st0{fill:#5F5F5F;}
	.st1{fill:#777777;}
	.st2{fill:#DBDBDB;}
	.st3{fill:#383838;}
	.st4{fill:#212121;}
</style>
<g>
	<path class="st0" d="M1109,607c-0.1,0.1-0.4,0.1-0.4,0.2c-3.6,15.8-15.1,24.9-27.5,33.9C973,719.4,865,798,757,876.5
		c-65.2,47.4-130.3,94.8-195.5,142.1c-1.7,1.2-3.1,3.1-5.5,3.2c-0.2-0.5-0.1-0.9,0-1.4c8.8-12.3,18.5-23.9,27.7-36
		c13.9-18.3,28.2-36.2,42.3-54.3c14.3-18.4,28.6-36.7,43-55.1c13.9-17.7,27.6-35.5,41.4-53.2c11.5-14.7,22.9-29.4,34.4-44.1
		c14.6-18.6,29-37.3,43.6-55.9c11.1-14.2,22-28.4,33.1-42.5c16.9-21.4,33.7-43,50.5-64.5c23.3-29.9,46.7-59.8,70-89.7
		c24.7-31.8,49.7-63.4,74.2-95.3c7.9-10.3,15.9-20.5,24-30.6c0.9-1.2,1.8-2.4,3.1-3.2c0.5-0.2,0.9-0.2,1.4,0.1
		c6.2,18.8,12.4,37.6,18.6,56.4c14.3,44,28.6,87.9,42.9,131.9c0.8,2.6,0.9,5.5,2.8,7.8c0,0.7,0,1.3,0,2c-0.8,3.7-0.8,7.3,0,11
		C1109,605.7,1109,606.3,1109,607z"/>
	<path class="st1" d="M1109,605c-1.6-3.7-1.6-7.3,0-11C1109,597.7,1109,601.3,1109,605z"/>
	<path class="st2" d="M1.8,603l-0.4,0L1,603c0-2.7,0-5.3,0-8c0.3,0,0.6,0,0.9,0C4,597.7,4,600.4,1.8,603z"/>
	<path class="st0" d="M1.8,603c0-2.7,0-5.4,0-8.1c2.9-14.8,8.5-28.7,13.1-42.9c16.7-51.8,33.6-103.4,50.4-155.2
		c0.6-0.4,1.3-0.7,2.1-0.5c4,2.6,6.2,6.9,9,10.5c19.7,25.2,39.4,50.3,59,75.6c22.8,29.5,46,58.7,68.7,88.3
		c10.5,13.7,21,27.6,31.8,41.1c22.6,28.4,44.8,57.1,67.2,85.6c18.7,23.8,37.2,47.8,55.9,71.7c16.4,21,32.7,42,49.2,63
		c17.9,22.9,35.8,46,53.7,68.9c21.1,27,42,54.2,63.3,81c9,11.3,17.6,23,26.8,34.2c1.1,1.3,2.1,2.5,3.4,3.7c0.2,0.2,0.3,0.4,0.4,0.6
		c0.1,0.2,0.2,0.4,0.3,0.7c0,0.2,0,0.5,0,0.7c-3.2,0.9-4.8-1.8-6.8-3.2c-74.6-54.2-149.2-108.4-223.8-162.6
		C223.7,782,122,708.1,20.3,634.3C9.6,626.5,3.4,616.2,1.8,603z"/>
	<path d="M66.1,395c9-27.8,17.9-55.7,26.9-83.5C124.6,214,156.3,116.6,188,19.2c4.5-14,17.3-20.1,29.8-14.3c6,2.8,9.3,7.7,11.3,13.8
		c16.1,49.7,32.2,99.3,48.4,149c24.3,75,48.7,149.9,73,224.9c0.3,0.8,0.4,1.6,0.5,2.4c-0.3,0.2-0.5,0.4-0.7,0.7
		c-2.2,1-4.6,0.7-6.9,0.7c-89.9,0-179.7,0-269.6,0C71.2,396.4,68.4,396.9,66.1,395z"/>
	<path d="M759.9,393.9c9.8-30.4,19.5-60.8,29.4-91.1c30.6-94.2,61.2-188.4,91.8-282.6C885.9,5.4,898.4-1,911.2,4.9
		c6.6,3,9.7,8.6,11.8,15.2c17.4,53.9,35,107.8,52.5,161.7c22.6,69.7,45.3,139.4,67.9,209.1c0.3,0.9,0.5,1.9,0.8,2.9
		c-0.1,2-1.7,2.2-3.2,2.4c-1.5,0.2-3,0.2-4.5,0.2c-89.6,0-179.3,0-268.9-0.1C765,396.3,761.4,398,759.9,393.9z"/>
	<path class="st3" d="M759.9,393.9c1.4,1.7,3.4,1.1,5.1,1.1c91.4,0,182.7,0,274.1,0c1.7,0,3.7,0.6,5.1-1.1c0.8,0.6,0.7,1.4,0.6,2.2
		c-0.3,0-0.6,0.1-0.9,0.1c-3,1.9-6.4,1.5-9.7,1.5c-87.7,0-175.5,0-263.2,0c-4.3,0-8.6,0-12.9,0.9c-3.8-0.9-7.6-0.9-11.4-0.9
		c-127.8,0-255.6,0-383.3,0c-3.3,0-6.7,0.2-10-0.3c-0.7-0.1-1.3-0.4-1.9-0.7c-0.6-0.4-0.8-1-0.6-1.7c0,0,0.2,0.1,0.2,0.1
		c2,0,4,0.1,6,0.1c132.1,0,264.2,0,396.2,0C755.5,395.1,758,395.9,759.9,393.9z"/>
	<path class="st3" d="M350.9,394.9c0,0.4,0.1,0.7,0.1,1.1c-2.7,2.3-6,1.6-9.1,1.6c-68.8,0-137.6,0-206.4,0c-19,0-38,0-57,0
		c-3.8,0-7.6,0.1-11.4-0.7c-0.6,0-1.2,0-1.8,0c0.3-0.6,0.5-1.3,0.8-1.9C161,394.9,256,394.9,350.9,394.9z"/>
	<path class="st4" d="M758.1,397.9c1.2-1.7,2.8-2,4.8-2c93.3,0.1,186.7,0.1,280,0.1c0.3,0,0.7,0.1,1,0.1c-6,8-11.9,16.1-18.1,24
		c-7.7,9.8-15.6,19.5-23.3,29.3c-12.8,16.3-25.6,32.5-38.3,48.9c-11.5,14.8-22.8,29.8-34.3,44.6c-9.9,12.7-20.4,25-30,37.9
		c-7.8,10.4-16,20.4-23.6,31c-8.9,12.4-19.1,23.9-28.5,35.9c-11.7,14.9-23.1,30-34.7,44.9c-14.4,18.4-28.9,36.7-43.3,55.1
		c-11.6,14.9-23.1,30-34.7,44.9c-13.8,17.6-27.8,35-41.6,52.6c-12.2,15.7-24.2,31.6-36.4,47.3c-13.7,17.6-27.8,35-41.5,52.6
		c-9.9,12.7-19.6,25.6-29.4,38.4c-9.2,11.9-18.6,23.8-27.9,35.6c-0.6,0.8-1.5,1.3-2.2,2c0,0-0.1-0.2-0.1-0.2
		c-1.4-1.8-0.5-3.5,0.1-5.2c8.5-23.7,16.1-47.6,23.2-71.7c1.4-4.8,3.4-9.4,5.1-14.1c5.8-16.7,11-33.5,16.4-50.3
		c9.2-28.7,18.9-57.2,27.8-85.9c2.4-7.8,5.5-15.4,7.7-23.2c5.7-20.4,13.7-40,19.2-60.4c3-11.4,8.5-22.1,11.2-33.6
		c2.5-10.4,7.5-20,10-30.3c4.5-18.1,12.3-35.1,16.8-53.3c2.7-11.1,8.1-21.5,10.9-32.7c2.3-9.1,6.3-17.6,8.7-26.5
		c5.3-19.5,13.4-38,18.3-57.5c1.9-7.5,5.5-14.7,7.7-22.2c4.9-17.1,11.2-33.8,16.4-50.8C756.1,401.3,756.3,399.2,758.1,397.9z"/>
	<path d="M758.1,397.9c-2.6,12-7.5,23.3-11.3,34.9c-1.7,5-2.7,10.2-4.4,15.2c-3.2,9.4-7.3,18.5-9.7,28.1c-3,11.8-7.8,22.9-11.1,34.5
		c-5.9,20.6-13,40.9-19.7,61.2c-6.6,20.2-13.3,40.5-19.8,60.7c-6,18.6-12.1,37.2-18.1,55.7c-6.6,20.4-13.3,40.8-19.9,61.2
		c-6.1,18.8-12.2,37.7-18.3,56.6c-6.5,20.1-13.2,40.1-19.6,60.2c-6.1,19-12.3,38-18.5,57c-6.4,19.9-12.7,39.9-19.5,59.8
		c-4.3,12.5-8.7,25.1-12.3,37.9c0,0-0.5,0-0.5,0l-0.5-0.1c-2.5-3-3.8-6.6-5.1-10.2c-6.8-20.4-13.3-40.8-20-61.3
		c-7.8-23.7-15.5-47.5-23.1-71.2c-9.2-28.5-18.6-57-27.8-85.5c-8-24.9-16.2-49.7-24.2-74.6c-8.9-27.6-17.9-55.1-26.9-82.6
		c-7.8-24.1-15.6-48.1-23.4-72.2c-8.8-27.1-17.7-54.1-26.4-81.2c-8.5-26.3-16.9-52.6-25.6-78.8c-0.7-2.2-2.4-4.6-0.5-7.1
		c1.8,0,3.7-0.1,5.5-0.1c131.5,0,263,0,394.6,0.1C754.1,396.2,756.9,394.7,758.1,397.9z"/>
	<path class="st4" d="M352.1,396.2c1.4,7.4,4.4,14.2,6.7,21.3c5.1,15.8,10,31.6,15.4,47.3c5.1,15.1,9.7,30.3,14.9,45.4
		c8.1,23.5,15.2,47.4,23,71c5.2,15.7,10.4,31.5,15.4,47.3c7.3,22.9,14.8,45.8,22.2,68.6c5.4,16.7,10.7,33.5,16.4,50.1
		c7.7,22.6,14.5,45.5,22,68.2c5.3,16.2,10.4,32.5,16,48.7c7.8,22.6,14.5,45.5,22,68.2c5.3,16.1,10.5,32.2,15.8,48.2
		c4.4,13.4,8.7,26.8,13.2,40.2c-6.7-5.5-11.2-12.9-16.6-19.5c-8.4-10.1-16.2-20.7-24.2-31.2c-11.5-14.8-22.9-29.7-34.4-44.4
		c-10.1-12.9-20.5-25.6-30.6-38.5c-7.7-9.9-15-20-22.7-29.9c-9.6-12.3-19.3-24.5-28.9-36.8c-11.7-15-23.3-30.2-35-45.2
		c-10-12.8-20.3-25.3-30.3-38.1c-10-12.8-19.7-25.9-29.7-38.8c-9.9-12.7-20.1-25.2-30-37.8c-11.2-14.4-22.3-28.9-33.5-43.3
		c-12.1-15.6-24.3-31.1-36.4-46.6c-11.7-15.1-23.3-30.2-35.1-45.2c-14.5-18.5-29.1-36.9-43.6-55.4c-11.4-14.6-22.7-29.4-34.1-44.1
		c-7.6-9.7-15.2-19.3-22.8-29c1.5-1.6,3.4-0.9,5.2-0.9c92.9,0,185.8,0,278.7,0C351.4,396.1,351.7,396.1,352.1,396.2z"/>
</g>
</svg>
