<?xml version="1.0" encoding="utf-8"?>
<!-- Generator: Adobe Illustrator 21.0.0, SVG Export Plug-In . SVG Version: 6.00 Build 0)  -->
<svg version="1.1" id="Layer_1" xmlns="http://www.w3.org/2000/svg" xmlns:xlink="http://www.w3.org/1999/xlink" x="0px" y="0px"
	 viewBox="0 0 255.9 254.4" style="enable-background:new 0 0 255.9 254.4;" xml:space="preserve">
<style type="text/css">
	.st0{fill:#949494;}
	.st1{fill:#ECD98C;}
</style>
<g>
	<path class="st0" d="M0,204.4c0-48.7,0-97.3,0-146c0.6-1.3,1.6-2,2.8-2.6c17.9-8.2,36-16.3,53.9-24.5C73.5,23.6,90.4,16,107.2,8.4
		c5.5-2.5,10.9-5,16.4-7.4c2.9-1.3,5.8-1.3,8.7,0c14.8,6.8,29.7,13.5,44.6,20.2c15.2,6.9,30.5,13.8,45.7,20.7
		c10.2,4.6,20.4,9.1,30.5,13.9c1.3,0.6,2.2,1.4,2.8,2.6c0,45.8,0,91.7,0,137.5c-0.7,1.4-1.8,2.2-3.2,2.9
		c-15.1,6.8-30.2,13.7-45.3,20.5c-16.7,7.5-33.3,15.1-50,22.6c-8.2,3.7-16.4,7.4-24.5,11.2c-3,1.4-5.8,1.8-9.1,0.5
		c-17.1-6.6-34.1-13.2-51.2-19.8c-23-8.9-46-17.8-69-26.6C2.1,206.6,0.8,205.9,0,204.4z"/>
	<path class="st1" d="M110.5,168.1c0,11.2,0,22.5,0,33.7c0,3,0,3-2.6,1.9c-22.7-10.1-45.3-20.3-68-30.4c-1.6-0.7-1.9-1.7-1.9-3.3
		c0-21.8,0.1-43.7,0-65.5c0-2.4,0.8-2.3,2.6-1.6c21.8,8.9,43.7,17.8,65.5,26.7c5.3,2.2,4.4,0.9,4.4,6.5
		C110.5,146.8,110.5,157.5,110.5,168.1z"/>
	<path class="st1" d="M144,168c0-11.2,0-22.5,0-33.7c0-2,0.5-3.1,2.5-3.9c22.5-9.1,44.9-18.2,67.4-27.4c2.6-1.1,2.7-1,2.7,1.7
		c0,21.7,0,43.5,0,65.2c0,1.8-0.6,2.8-2.3,3.6c-22.3,9.9-44.5,19.9-66.8,29.9c-0.2,0.1-0.5,0.2-0.7,0.3c-2.7,1.2-2.7,1.2-2.7-1.7
		C144,190.6,144,179.3,144,168z"/>
	<path class="st1" d="M128,37c0.7,0.3,1.3,0.5,1.9,0.8C152.5,48,175,58.1,197.5,68.3c0.6,0.3,1.5,0.3,1.5,1.1c0,0.8-0.9,0.8-1.5,1.1
		c-22.6,10.2-45.3,20.3-67.9,30.5c-1.6,0.7-2.9,0.6-4.5-0.1c-22.7-10.1-45.3-20.2-68-30.3c-0.6-0.3-1.7-0.3-1.6-1.2
		c0.1-0.7,1-0.8,1.6-1c22.8-10.1,45.7-20.2,68.6-30.3C126.4,37.6,127.2,37.3,128,37z"/>
</g>
</svg>
