<?xml version="1.0" encoding="utf-8"?>
<!-- Generator: Adobe Illustrator 21.0.0, SVG Export Plug-In . SVG Version: 6.00 Build 0)  -->
<svg version="1.1" id="Layer_1" xmlns="http://www.w3.org/2000/svg" xmlns:xlink="http://www.w3.org/1999/xlink" x="0px" y="0px"
	 viewBox="0 0 612 792" style="enable-background:new 0 0 612 792;" xml:space="preserve">
<style type="text/css">
	.st0{fill:#FEFEFE;}
	.st1{fill:#421212;}
	.st2{fill:#AF2B26;}
	.st3{fill:#AA2925;}
	.st4{fill:#F6921F;}
	.st5{fill:#B32E26;}
	.st6{fill:#8AD3E1;}
	.st7{fill:#B34626;}
	.st8{fill:#87221B;}
	.st9{fill:#EB7624;}
	.st10{fill:#501513;}
	.st11{fill:#5C1410;}
	.st12{fill:#E06C26;}
	.st13{fill:#801E18;}
	.st14{fill:#C25228;}
	.st15{fill:#6B1911;}
	.st16{fill:#A83D24;}
	.st17{fill:#641712;}
	.st18{fill:#CA5A28;}
	.st19{fill:#D36229;}
	.st20{fill:#7E1E18;}
	.st21{fill:#A13723;}
	.st22{fill:#F58920;}
	.st23{fill:#972E20;}
	.st24{fill:#F48021;}
	.st25{fill:#711A12;}
	.st26{fill:#511614;}
	.st27{fill:#665E56;}
	.st28{fill:#F9A11C;}
	.st29{fill:#E86325;}
	.st30{fill:#66867F;}
	.st31{fill:#B73227;}
	.st32{fill:#FCB516;}
	.st33{fill:#F7981F;}
	.st34{fill:#66645D;}
	.st35{fill:#78CDDB;}
	.st36{fill:#66AAA3;}
	.st37{fill:#669891;}
	.st38{fill:#669089;}
	.st39{fill:#F37722;}
	.st40{fill:#667F77;}
	.st41{fill:#66A09A;}
	.st42{fill:#FAAA1A;}
	.st43{fill:#DF5A27;}
	.st44{fill:#70C9C7;}
	.st45{fill:#FADD0D;}
	.st46{fill:#FCCF10;}
	.st47{fill:#666F68;}
	.st48{fill:#92291F;}
	.st49{fill:#88D2DA;}
	.st50{fill:#7ACCCD;}
	.st51{fill:#666A62;}
	.st52{fill:#65B4AD;}
	.st53{fill:#65C4BD;}
	.st54{fill:#F27F22;}
	.st55{fill:#65746C;}
	.st56{fill:#A72A26;}
	.st57{fill:#A52925;}
	.st58{fill:#BD3727;}
	.st59{fill:#65BFB8;}
	.st60{fill:#499192;}
	.st61{fill:#84D0D6;}
	.st62{fill:#6BC8C3;}
	.st63{fill:#7FCED2;}
	.st64{fill:#FDC215;}
	.st65{fill:#F58D20;}
	.st66{fill:#F8EA14;}
	.st67{fill:#F58620;}
	.st68{fill:#F06B23;}
	.st69{fill:#9D2622;}
	.st70{fill:#451F1F;}
	.st71{fill:#8C241C;}
	.st72{fill:#F6EE2B;}
	.st73{fill:#452928;}
	.st74{fill:#F9A31C;}
	.st75{fill:#91231F;}
	.st76{fill:#462424;}
	.st77{fill:#4B6565;}
	.st78{fill:#464949;}
	.st79{fill:#651711;}
	.st80{fill:#FDC513;}
	.st81{fill:#468484;}
	.st82{fill:#492A2A;}
	.st83{fill:#4EB5B7;}
	.st84{fill:#88231B;}
	.st85{fill:#6D1912;}
	.st86{fill:#4A7E7E;}
	.st87{fill:#54908C;}
	.st88{fill:#667870;}
	.st89{fill:#6FC2C6;}
	.st90{fill:#4AA1A0;}
	.st91{fill:#5DC4CA;}
	.st92{fill:#44B4B4;}
	.st93{fill:#488687;}
	.st94{fill:#589494;}
	.st95{fill:#4DBCBE;}
	.st96{fill:#D8552B;}
	.st97{fill:#7A1D16;}
	.st98{fill:#657B7B;}
	.st99{fill:#4C4443;}
	.st100{fill:#5EACAB;}
	.st101{fill:#4F8F8F;}
	.st102{fill:#4A5D5D;}
	.st103{fill:#C36C6A;}
	.st104{fill:#441B1A;}
	.st105{fill:#441515;}
	.st106{fill:#441717;}
	.st107{fill:#452625;}
	.st108{fill:#455656;}
	.st109{fill:#453636;}
	.st110{fill:#442120;}
	.st111{fill:#454646;}
	.st112{fill:#452E2E;}
	.st113{fill:#454D4D;}
	.st114{fill:#456566;}
	.st115{fill:#BA3427;}
	.st116{fill:#F58C20;}
	.st117{fill:#F7971E;}
	.st118{fill:#F89C1D;}
	.st119{fill:#F6941E;}
	.st120{fill:#CA4428;}
	.st121{fill:#A53B24;}
	.st122{fill:#9B2E20;}
	.st123{fill:#F17A22;}
	.st124{fill:#DB5A27;}
	.st125{fill:#E47224;}
	.st126{fill:#8D261D;}
	.st127{fill:#F47F21;}
	.st128{fill:#E77823;}
	.st129{fill:#5F1511;}
	.st130{fill:#D86628;}
	.st131{fill:#731A13;}
	.st132{fill:#9D3322;}
	.st133{fill:#91291E;}
	.st134{fill:#962D20;}
	.st135{fill:#F27122;}
	.st136{fill:#751B14;}
	.st137{fill:#66574F;}
	.st138{fill:#664D46;}
	.st139{fill:#66524B;}
	.st140{fill:#DA5428;}
	.st141{fill:#EB6624;}
	.st142{fill:#D75127;}
	.st143{fill:#667971;}
	.st144{fill:#578480;}
	.st145{fill:#46ABAB;}
	.st146{fill:#F26F22;}
	.st147{fill:#C23C28;}
	.st148{fill:#456060;}
	.st149{fill:#457273;}
	.st150{fill:#446F6F;}
	.st151{fill:#663C35;}
	.st152{fill:#66423B;}
	.st153{fill:#663730;}
	.st154{fill:#66463E;}
	.st155{fill:#66514A;}
	.st156{fill:#4B3636;}
	.st157{fill:#664942;}
	.st158{fill:#41ABAA;}
	.st159{fill:#419A9A;}
	.st160{fill:#452C2C;}
	.st161{fill:#454B4B;}
	.st162{fill:#441E1E;}
	.st163{fill:#57ADAB;}
	.st164{fill:#453A3A;}
	.st165{fill:#457878;}
	.st166{fill:#448585;}
	.st167{fill:#CF4A29;}
	.st168{fill:#C94328;}
	.st169{fill:#662F28;}
	.st170{fill:#662A24;}
	.st171{fill:#66342C;}
	.st172{fill:#52605D;}
	.st173{fill:#438C8C;}
	.st174{fill:#446A6B;}
	.st175{fill:#448888;}
	.st176{fill:#453D3D;}
	.st177{fill:#441718;}
	.st178{fill:#F6921E;}
	.st179{fill:#F9A51B;}
	.st180{fill:#F8A01C;}
	.st181{fill:#972F20;}
	.st182{fill:#F89A1D;}
	.st183{fill:#454444;}
	.st184{fill:#453B3B;}
	.st185{fill:#429191;}
	.st186{fill:#455555;}
	.st187{fill:#518C89;}
	.st188{fill:#549F9B;}
	.st189{fill:#452727;}
	.st190{fill:#446161;}
	.st191{fill:#431414;}
	.st192{fill:#517673;}
	.st193{fill:#536B69;}
	.st194{fill:#452B2B;}
	.st195{fill:#452020;}
	.st196{fill:#FCB416;}
	.st197{fill:#FCB415;}
	.st198{fill:#FBAE18;}
	.st199{fill:#FAA91A;}
	.st200{fill:#FEC114;}
	.st201{fill:#FDCC11;}
	.st202{fill:#F9E813;}
	.st203{fill:#FBD80E;}
	.st204{fill:#FDBA15;}
	.st205{fill:#F5ED27;}
	.st206{fill:#FADE0C;}
	.st207{fill:#F8ED18;}
	.st208{fill:#F2EB1F;}
</style>
<g>
	<g>
		<path class="st0" d="M58,397c0-82,0-164-0.1-246c0-3.4,0.7-4.1,4.1-4.1c163.3,0.1,326.7,0.1,490,0c3.4,0,4.1,0.7,4.1,4.1
			c-0.1,164-0.1,328,0,492c0,3.4-0.7,4.1-4.1,4.1c-163.3-0.1-326.7-0.1-490,0c-3.4,0-4.1-0.7-4.1-4.1C58,561,58,479,58,397z"/>
		<path class="st1" d="M236,401c-0.7-0.4-1.3-0.8-2-1.2c-0.3-0.4-0.3-0.9-0.2-1.3c3.8-5.3,9.6-8.8,13.2-14.3
			c0.3-0.4,0.6-0.7,0.9-1.1c3.7-2.1,4-7.1,7.8-9.1c3.8-2.9,7.1-6.7,9.7-10.5c5.5-7.9,11.9-15.1,16.8-23.4c2.1-3.5,6-5.8,6.8-10.2
			c2.6-6.4,8.2-10.8,10.9-17.1c1.2-2.5,3-4.6,4.3-7.1c1.5-3.6,4.6-6.2,5.8-10c0.9-2,2.7-3.6,3.3-5.9c1.2-2.6,3.3-4.8,3.7-7.8
			c0.1-0.4,0.3-0.8,0.6-1.2c2-2.1,3.6-4.4,4.7-7c0.7-1.4,1.4-2.8,2.1-4.2c1.5-3.3,3.6-6.3,5-9.7c0.8-1.4,1.5-2.8,2-4.3
			c3.8-8,8.1-15.7,11.8-23.7c1.4-2.5,2.6-5.2,4.1-7.6c2.6-4.1,4.1-8.7,4.2-13.5c0-2.3,1-3.7,2.4-5.1c2.6-2.4,5.7-3.5,9.1-3.9
			c1.4,1.7,0.2,3.1-0.4,4.6c-7.1,15.9-13.3,32.3-20.5,48.2c-5.5,12.3-10.9,24.6-16.9,36.7c-6.2,12.5-12.8,24.8-20.2,36.7
			c-8.4,13.6-16.9,27.1-27.7,38.9c-0.9,1-1.8,2-2.2,3.3c-3.4,4.8-8.6,7.8-12.5,12.2c-6,6.8-13.5,11.7-20.9,16.8
			C240.1,400.3,238.6,402.5,236,401z"/>
		<path class="st2" d="M453.9,400.3c-6.7-5.7-13.3-11.4-20-17.1c-8.6-21.1-15.5-42.8-21.9-64.6c-6.3-21.5-12.2-43.2-19.8-64.3
			c-2.6-7.2-7-13.5-9.7-20.7c-0.3-0.8-1.2-1.1-1.9-1.6c-0.9-0.6-1.4-1.5-1.8-2.5c-0.1-2.4-3.8-3.9-1.8-6.8c4.6-0.2,7,3.3,9.6,6.2
			c8.1,8.9,12.4,19.9,17,30.7c9,21.1,16.3,42.9,23.8,64.5c7,20.4,14.6,40.6,22.6,60.7c1.4,3.4,3.5,6.5,3.9,10.2
			C454.2,396.8,455.1,398.6,453.9,400.3z"/>
		<path class="st3" d="M453.9,400.3c-1.3-8.8-6-16.4-9.1-24.5c-5.7-15.1-11.6-30.2-16.8-45.5c-6.1-17.7-11.9-35.4-18.7-52.9
			c-4.5-11.5-8.7-23.2-14.3-34.1c-4.2-8.1-8.9-16.3-18-20.3c-2.6,0.9-5.3-0.1-7.9,0.5c-0.5-0.1-1-0.3-1.3-0.7
			c-0.7-1.9,0.5-2.8,1.8-3.6c10.5-3.8,14.4-2.4,21,7c6.9,9.9,11,21.1,16.3,31.8c0.6,1.2,0.5,2.6,2.2,3c4.7,8.9,7.7,18.6,11.4,28
			c6.4,16.3,12.4,32.8,18.5,49.2c0.2,0.5,0.1,1,0.2,1.5c0.6,5.2,2.9,9.8,4.8,14.5c5.4,13.5,10.7,27,17,40.1c0.5,1.1,1.2,1.9,2.1,2.7
			c2.4,5.3,4.7,10.6,7.1,15.9c0.4,0.9,0.5,1.7-0.2,2.5C464,411,458.9,405.7,453.9,400.3z"/>
		<path class="st4" d="M376.1,392c-7.5,7.7-14.9,15.3-22.4,23c-9.7,4.5-19.8,7.7-29.8,11.1c-10.1,3.4-19.8,7.7-29.7,11.7
			c-0.8,0.1-1.6,0-2.3-0.5c-0.7-2.4,1.3-3.1,2.8-3.9c2.1-1.2,4.3-2.3,6.6-3.4c11-5.5,22.7-9.4,33.4-15.5
			c12.9-7.4,20.9-17.3,20.9-33.1c0.1-25.3-2-50.6-1-75.9c0.1-2.3-1.5-5.5,2.5-6.5c1.7,2,1.2,4.4,1.1,6.7
			c-0.6,16.5,0.6,32.8,2.9,49.2c0.6,4.3,2.4,8.3,2.7,12.6c0.1,1.6,1,3.4,2.8,3.8c2.2,0.6,3.3-1.5,4.2-2.9c3.2-5.2,4.3-11.2,5.6-16.9
			c1.9-8,3.9-16.2,3.1-24.6c0-1.5,0.1-3,0.4-4.4c1.2-10.4,0.2-20.8,0.6-31.2c0.1-2.6-0.4-5.3,0.7-7.8c0.4-0.6,0.9-0.8,1.6-0.7
			c0.8,0.7,1.1,1.5,1.3,2.5c0.3,17.4,0.3,34.8,0,52.2c-0.1,5.4-1.1,10.8-2,16.2c-3,11.2-3.5,22.9-7,34
			C374.8,389.3,375.6,390.7,376.1,392z"/>
		<path class="st5" d="M381,231c1.8,0,2.8,1.1,3.2,2.6c1.9,7.2,6.9,13.1,9.2,20.1c4,12.4,8.5,24.7,11.7,37.4
			c1.8,7.4,4.3,14.7,6.5,22c2.8,9.4,5.3,18.8,8.5,28c4.1,12,7.3,24.4,13.2,35.7c1.1,2.1,0.6,4.2,0.7,6.3c-3-1.7-6-3.3-9-5
			c-3.2-5.4-4.2-11.5-6.2-17.3c-4.8-14.6-9.4-29.3-12.5-44.4c-0.4-1.9-1-3.8-2.1-5.6c-4.2-16.3-8.5-32.6-12.9-48.9
			c-2.4-8.7-5.8-17.2-9.5-25.5C381,234.8,379.5,233.1,381,231z"/>
		<path class="st6" d="M141.9,348.9c18.7-6.9,37.4-13.9,56.1-20.8c0.5,1.5-0.6,2.3-1.4,3.2c-6.1,8.9-12.4,17.6-22.3,23.1
			C164.5,359.8,149,357.5,141.9,348.9z"/>
		<path class="st7" d="M263.8,442.1c-0.9-0.4-1-1.2-1-2c0.5-2.1,2-3.3,3.4-4.8c10.7-10.6,22.9-19.8,33.7-30.3
			c16.3-15.9,26.6-35.2,33.2-56.6c3.9-12.5,7.8-25.1,10-38.1c2.8-13.5,6-26.8,9.1-40.2c0.4-1.6,0.5-3.3,0.6-4.9
			c2.5-11.3,5.6-22.4,9.4-33.3c0.8-2.2,1.6-4.3,3.4-6c0.7-0.5,1.5-0.6,2.3-0.3c0.7,0.5,1,1.2,1,2c0,1.8-1.4,3.1-1.6,4.7
			c-1.3,3.4-2.4,7-3.9,10.3c-0.2,0.4-0.5,0.8-0.7,1.2c-1.3,1.7-1.4,3.8-1.7,5.7c-0.4,1.6-0.7,3.3-1.1,5c-2,7-3.4,14-4.5,21.2
			c-0.1,0.5-0.2,1-0.3,1.5c-1.9,5.7-2.5,11.7-3.9,17.5c-3.4,13-5.2,26.4-8.6,39.4c-5.1,19.7-10.5,39.2-22.3,56.2
			c-7.7,11.2-17.2,20.8-27.8,29.2c-8.4,6.6-16.4,13.6-23.8,21.2C267.3,442.1,266.1,444.4,263.8,442.1z"/>
		<path class="st8" d="M256.1,427c-0.8-1.3-1.5-2.6-2.3-3.9c6.5-3.2,11.2-8.8,16.7-13.3c14-11.6,25.7-25.3,35.6-40.7
			c10.9-17,18.9-35.4,25.2-54.5c3.2-8.2,6-16.5,8.6-24.9c0.7-2,0.9-4.8,4.1-4.8c1.4,1.8,0.5,3.5-0.1,5.3c-1.5,5.6-3.6,10.9-5.1,16.4
			c-0.6,1.8-1.6,3.6-2,5.5c-0.7,2-1,4.2-2,6.1c-1.1,1.9-1.6,3.9-1.7,6.1c-4.2,12.6-9.3,24.8-15.8,36.4c-2.5,4.5-4.7,9.1-7.5,13.4
			c-6.3,9.7-12.8,19.3-21.2,27.4c-6.9,5.7-12.8,12.5-19.8,18c-2.4,2-4.9,3.9-7.3,6C260,426.9,258.2,427.6,256.1,427z"/>
		<path class="st9" d="M271.2,458c-0.9-0.8-1.2-1.8-1.3-2.9c-0.8-5.5,1.8-9.6,5.2-13.4c6.7-7.3,14.6-13.1,23.1-18.1
			c23.8-14,39.4-33.7,44.8-61.2c3.6-18.3,5.5-36.8,7.8-55.2c0.4-3.4,0.4-7,2-10.2c0.5-0.3,1-0.3,1.5,0.1c1.8,6.3,0.3,12.6-0.4,18.7
			c-1.5,14.7-2.7,29.4-4.6,44c-3.2,24.4-13.1,44.7-34.3,58.6c-6,3.9-12.1,7.6-18.2,11.3c-5.4,3-10.4,6.6-15,10.7
			c-4,3.6-7.1,7.8-8.2,13.3C273.5,455.3,273.7,457.6,271.2,458z"/>
		<path class="st10" d="M274,370c0.4-3.5,3.5-5.2,5.5-7.5c11.2-13,20-27.7,28.9-42.3c7.5-12.4,13.8-25.5,20.1-38.6
			c7.4-15.3,13.7-31,20.7-46.4c5-10.9,9.2-22.2,13.8-33.3c1-0.8,2.1-0.7,3.1,0c-1,5.8-5.1,10.2-6.6,15.8c-1.1,4-2.9,7.8-4.6,11.5
			c-6.2,14.2-11.4,28.7-17.9,42.8c-4.3,9.4-8.3,18.9-13,28c-5.3,9.9-9.9,20.3-15.9,29.9c-4.7,7.5-8.1,16.1-15.1,22.1
			c-5.4,3.9-8,10.1-12.6,14.7C278.6,368.3,277.5,371.4,274,370z"/>
		<path class="st11" d="M292,351c3.2-1.8,4.7-5,6.5-8c7.9-12.7,15.5-25.4,21.6-39.1c0.6-1.5,1.9-2.6,2.9-3.9
			c1.4,0.5,1.8,1.5,1.5,2.8c-0.2,0.7-0.6,1.3-0.9,1.9c-3,5.4-6.1,10.6-8.5,16.2c-0.1,0.5-0.3,0.9-0.4,1.3c-1.3,2.7-3.7,4.8-3.8,8
			c-11.9,22.2-26,42.8-44.4,60.3c-5.9,5.6-12.5,10.4-19.1,15.1c-1.8,1.3-3.6,1.5-5.6,0.4c-1-0.3-1.7-1-2.1-2
			c4.1-4.6,9.2-8.1,14-11.8C268.9,380.8,280.8,366.2,292,351z"/>
		<path class="st12" d="M353,297c-1.3,12.1-2.4,24.3-4.1,36.4c-1.7,12.4-3.2,24.8-6.7,37c-5.4,18.7-14.6,34.5-31.1,45.6
			c-6.8,4.6-13.6,9.4-20.3,14.1c-9.2,6.5-18.5,12.8-21,25c-1.2-1.1-1.8-2.4-1.8-4.1c-0.1-3.5,1.6-6.1,3.9-8.5c1.4-1,2.6-2.2,3.2-4
			c0.5-1.1,1.3-1.8,2.3-2.3c2-0.7,3.4-2.1,4.6-3.7c0.4-0.5,1-0.9,1.6-1.3c1.4-0.6,2.6-1.6,3.5-2.8c0.4-0.5,1-0.9,1.6-1.1
			c2.2-0.5,3.8-1.8,5.3-3.3c0.3-0.3,0.7-0.6,1.1-0.8c1.2-0.7,2.2-1.6,3.2-2.5c0.4-0.3,0.7-0.6,1.1-0.8c12.5-7.8,23.1-17.6,30.3-30.4
			c4.9-8.7,9.3-18,10.3-28.4c3.9-17.1,6.8-34.4,8.7-51.8c0.1-0.5,0.2-1.1,0.3-1.6c1.4-3.9,0.2-8.5,3.4-11.9
			C353.2,296,353.3,296.4,353,297z"/>
		<path class="st13" d="M332,315c-1,6.3-3.6,12-6.1,17.7c-3.7,8.6-6.8,17.4-11.8,25.4c-7.7,12.2-14.9,24.7-24.9,35.3
			c-7.3,7.7-14.8,15.1-23.3,21.5c-2.4,1.8-4.3,4.5-6.8,6.3c-1.5,1.1-2.9,3-5.3,1.8c-1-0.8-1.7-1.8-1.7-3.1c0.1-0.2,0.1-0.4,0.2-0.7
			c8.4-6.8,16.4-14.1,25.1-20.6c8.6-5.7,14.4-14.1,20.2-22.3c4.3-6.1,9.3-11.7,12.1-18.8c0.2-0.7,0.5-1.3,0.8-1.9
			c2.3-3.4,4.5-6.9,5.6-10.9c0.6-1.8,1.4-3.5,2.3-5.1c1.7-2.5,3.3-5,3.5-8.1c0.6-3.7,2.7-6.7,4.4-9.9C329,320.2,327.8,315.3,332,315
			z"/>
		<path class="st14" d="M263.8,442.1c1.2,0.5,1.9,0,2.8-1c10.2-11.7,22.9-20.5,34.4-30.8c8.7-7.8,15.7-16.9,21.8-26.9
			c10.9-18.1,15.4-38.5,20.4-58.7c2.5-9.9,3-20.2,6.8-29.8c1.6,1.6,0.8,3.6,0.9,5.4c-0.1,0.5-0.2,1-0.4,1.5
			c-3.3,17.4-6.1,35-11.1,52.1c-6.8,23.6-17.7,44.6-37.4,60.5c-10.6,8.5-21.9,16.2-31,26.5c-1.6,1.8-2,5.1-5.4,5.1
			C265.1,444.8,264.4,443.4,263.8,442.1z"/>
		<path class="st15" d="M246.6,412.2c-0.5-0.7-1-1.5-1.5-2.2c3.4-5.6,9.3-8.5,14-12.5c9.4-8,18-16.6,25.8-26.2
			c10-12.3,17.9-25.9,26-39.5c2.9-4.8,4.1-10.5,7.4-15.2c3.3-5.1,5.6-10.8,7.8-16.5c1.2-3.1,2-6.7,5.5-8.3c0.4,0.3,0.8,0.6,0.9,1.1
			c0.4,1.8-0.3,3.4-0.9,5c-0.8,1.4-1.5,2.9-1.9,4.6c-5.8,15.9-13.9,30.7-22.1,45.4c-9.4,14.5-19.2,28.9-31.3,41.3
			c-7.5,7.6-15.4,14.7-24,21C250.9,411.4,249,413,246.6,412.2z"/>
		<path class="st16" d="M344,311c-0.6,7.8-3.1,15.2-5.2,22.7c-4.8,17.6-10.6,34.8-20.3,50.4c-7.7,12.4-18,22.5-28.8,32.1
			c-9,8-18,16-27,24c-0.3-0.7-0.7-1.3-1-2c0.5-1.9,1.9-3.1,3.2-4.3c8.9-8.7,18.6-16.6,27.5-25.2c10.3-9.9,20.2-20.2,26.1-33.5
			c3.5-7.8,9-14.8,10.4-23.6c1.3-4.6,2.7-9.1,4.9-13.3c2.6-6.5,5-13.1,5.7-20.2c0.1-1.5,0.2-3.1,1.1-4.4
			C341.8,312.7,342,310.7,344,311z"/>
		<path class="st17" d="M319,317c-5.7,14.4-13.6,27.7-22.2,40.5c-9.7,14.3-20.5,27.9-34,38.8c-5.8,4.6-11.1,10-17.7,13.7
			c-1.8-0.7-2.5-2.4-3.3-3.9c5.2,0.5,8.2-3.6,11.5-6.2c17.6-13.7,32.5-30,44-49.3c4.1-7,8.5-13.8,12.8-20.7c0.2-3.3,3.2-5,4-8
			c0-0.3,0-0.7,0-1c1.5-1.9,1.6-5.2,5-5.2c0.3,0.3,0.4,0.5,0.3,0.8C319.2,316.9,319.1,317,319,317z"/>
		<path class="st18" d="M265.7,446.1c7.9-10.9,18.3-18.9,28.8-27c13.9-10.7,25.7-23.1,33.7-39.2c8.6-17.5,12.6-36.1,16.9-54.9
			c1.7-7.7,1.7-15.8,5-23.1c0.8,2,0.8,4,0,6v0c-1.5,10.6-3.2,21.3-5.2,31.8c-4.1,22.1-10.9,43.3-25.1,61.2
			c-7.2,9.1-16.6,15.8-25.9,22.6c-9.4,6.9-19,13.4-25.2,23.7c-0.5,0.8-1.1,1.3-2,0.8C265.8,447.7,265.8,446.9,265.7,446.1z"/>
		<path class="st19" d="M266.7,448.2c5.6-9.2,13.5-16.2,22.2-22.4c6.7-4.8,13-10.1,19.5-15.3c14.1-11.5,22.1-26.6,27.9-43.4
			c6-17.2,9.3-35,11.9-53c0.3-2.1,0.4-4.3,1.9-6c-1.4,18.3-4.5,36.3-9,54c-4.2,14.5-9.6,28.5-19.9,39.9c-6.5,7.3-14,13.6-22.1,19.1
			v0c-1.4,0.9-2.6,2.1-4,3l0,0c-1.9,1.4-3.8,3-6,4c-0.3,0.3-0.7,0.7-1,1c-1.4,0.9-2.6,2.1-4,3c-0.3,0.3-0.7,0.7-1,1
			c-1.9,1.1-3.2,2.9-5,4c-1,0.4-1.6,1-2,2c-0.9,1.4-2.1,2.6-3,4c-2.5,2.2-3.4,5.3-4.9,8C267.6,450,267.1,449.1,266.7,448.2z"/>
		<path class="st20" d="M332,315c-3.1,1.3-1.3,6.1-5,7c-1.9-4.9,1.8-8.4,3.4-12.3c3.9-9.5,7.4-19,9.8-29c2-8.2,5-16.1,7.6-24.1
			c3.1-9.3,5.5-18.8,9.1-27.9c0.6-1.6,0.8-3.3,1.1-5c0.1-0.5,0.2-1,0.4-1.4c2-4.3,3.5-8.8,5.5-13.1c1.3-2.8,2.5-5.8,6.2-6.3
			c0.3,0.1,0.6,0.2,0.9,0.2c2.2,1.4,0.9,2.8-0.1,4.1c-3.6,4.6-5.6,10-7,15.6c-0.1,0.5-0.3,1-0.5,1.4c-4.9,14.4-9.2,29-13.5,43.6
			c-1.7,5.8-3.1,11.8-6,17.3c-2.1,0.8-2.1,2.8-2.6,4.5c-2.6,7.5-5,15.1-7.6,22.7C333.4,313.2,332.6,314,332,315z"/>
		<path class="st21" d="M330,352c-0.7,4.7-2.7,8.7-4.7,12.9c-6.7,14-14.5,27-25.6,38.1c-12.1,12.2-25.6,23-37.9,35
			c-0.6-1.4-1.3-2.7-1.9-4.1c16.1-12.9,31.1-26.8,44.5-42.5c2.4-2.8,3.4-6.5,6.8-8.5c3.3-3.1,5.2-7.1,6.8-11.2
			c0.2-0.9,0.5-1.7,1.2-2.4c1.8-1.5,2.6-3.4,3-5.7c0.1-0.5,0.3-0.9,0.5-1.3c1.6-2.4,2.7-5,4.1-7.4C327.4,353.8,327.7,351.7,330,352z
			"/>
		<path class="st22" d="M381,355c3.3-23.3,1.6-46.7,2-70c2.9,0.5,2.2,2.9,2.3,4.7c1.7,21.6,1.2,43.2,1,64.9
			c-0.1,10.1-0.6,20.3-1.3,30.4c-1.1,1.3-2.3,2.4-4,3c-3.8,0.9-3.1-2-3.3-3.9c-0.5-5.5,1.9-10.8,2-16.3
			C379.9,363.5,379.4,359.2,381,355z"/>
		<path class="st23" d="M312,384c-2.6,1.3-3.2,4-4.8,6c-5,6.1-10.1,12.2-15.8,17.7c-8.5,8-16.8,16.3-26,23.6c-1.7,1.3-3,3.1-5.5,2.8
			c-0.8-0.4-1-1.2-1-2c7.9-8.6,17.7-15.1,25.7-23.6c7.6-8.1,15.8-15.7,21.9-25.1c4-4.2,6-9.7,9.1-14.5c0.8-1.2,1.3-2.6,2.4-3.7
			c1.6-1.5,1.8-4.7,5.1-4.1c0.6,0.6,0.5,1.3,0,1.9c0,0.3,0,0.7,0,1c-1.3,1.8-1.8,4.1-3,6c-0.8,0.4-1,1.2-1,2
			C316,375.6,314.4,380.1,312,384z"/>
		<path class="st24" d="M385,385c-1.6-2.5-1.3-5.3-1.1-8.1c1.5-24.6,1.5-49.3,0.8-74c-0.2-5.9,0.6-12.2-1.7-18c0-0.7,0-1.3,0-2
			c-1.9-2.7-1.6-5.6-0.6-8.5c0.3-0.6,0.8-0.8,1.5-0.7c1,0.7,1.3,1.9,1.4,3c0.2,2.5-0.2,5,0.7,7.4c0.2,0.8,0.3,1.7,0.3,2.6
			c1.7,19.5,2.3,39.1,2.8,58.6c0.3,12.2,2,24.5,0.2,36.8C387.9,383.1,386.5,384.1,385,385z"/>
		<path class="st25" d="M246.6,412.2c14.4-8.7,26-20.5,37.1-33c8.1-9.2,14.6-19.5,21.6-29.5c0.5-0.7,1.2-1.1,1.8-1.6
			c0.6,0.5,0.9,1.2,0.9,1.9c-1.6,6.6-5.5,12.1-9.6,17.2c-7.1,8.9-13.1,18.8-21.8,26.5c-8.6,7.6-17,15.2-26.4,21.8
			c-0.5,0.1-0.9,0-1.3-0.3C248.1,414.1,247.3,413.1,246.6,412.2z"/>
		<path class="st26" d="M292,351c-0.4,4.4-3.8,7.5-6.3,10.3c-8.7,10-16.5,21.1-27.5,29c-6.3,4.5-11.3,10.6-18.5,13.8
			c-1.6-0.6-2.8-1.7-3.7-3.1c7.4-4.5,14.8-8.9,21-15.3c4.3-4.5,9.2-8.5,13.9-12.6c1.1-1,2.4-1.7,3.1-3.1c5.5-2,7.5-7.5,11.1-11.4
			C287.4,356.1,288.9,352.8,292,351z"/>
		<path class="st27" d="M231,316c1-0.4,2-0.7,3-1.1c3,0.6,5.9,1.3,6.2,5.1c-0.6,0.5-1.3,0.7-2,0.6c-0.7-0.2-1.3-0.4-2-0.6
			c-1.8,3.2-1.8,6.9-1.7,10.3c0.1,12-2.5,23.7-3.6,35.6c-0.5,5.6-1.3,11.5-3.8,16.8c-1.1,2.4-0.2,4.9-0.5,7.4c-1.1,2.2-2.7,3-5,1.9
			c-2.5-2.1-1.9-4.8-1.2-7.4c3.9-13.5,5.5-27.5,7.9-41.3c1.2-7.1,0.4-14.5,1.4-21.7C229.8,319.7,229.5,317.7,231,316z"/>
		<path class="st28" d="M345.8,424c-2.8,3.1-5.6,6.1-8.4,9.2c-4.5,1.1-9.2,0.6-13.8,0.8c-15.4,0.7-28.4,6.7-40,16.3
			c-0.5,0.2-1.1,0.2-1.6,0c-0.8-0.8-1-1.9-0.9-3c0.4-2,1.7-3.2,3.4-4.1c3.5-1.6,6-5.1,10.1-5.7c15.8-8.2,32.7-12.5,50.4-13.9
			C345.2,423.5,345.5,423.8,345.8,424z"/>
		<path class="st29" d="M403.1,376.1c-1.5,1.1-3.2,1.1-5,1c-2.3,0.1-2.2-1.6-2.5-3.1c0.1-11.8-2.6-23.3-3.7-35
			c-1.5-7.7-1.8-15.5-3-23.2c-0.2-9.2-1.7-18.4-2.8-27.5c-0.7-8.1-2.1-16.1-3.7-24c-0.2-0.5-0.3-1-0.4-1.5c-0.3-3-1-5.9-1.9-8.8
			c-0.2-0.5-0.2-1-0.3-1.5c-0.1-1.4,0-2.7,1.1-3.8c0.6-0.1,1.1,0,1.5,0.4c3.7,8.1,4.1,17,5.7,25.6c0.4,2.1,0.8,4.2,1,6.4
			c1.4,11.5,3.3,22.9,4.5,34.4c1.2,12.7,2.9,25.3,4.8,37.9C399.8,361,399.3,369,403.1,376.1z"/>
		<path class="st30" d="M220,320.1c1.7-0.6,3.3-1.3,5-1.9c0.3,0.4,0.3,0.9,0.1,1.3c-0.5,0.8-1.2,1.5-1.8,2.3
			c-1.8,8.6-2.9,17.2-5,25.8c-3.7,15.4-8.6,30.2-16.7,43.9c-0.7,1.1-1.4,2.3-2.7,2.8c-1.4-0.2-2.2-1.2-2.9-2.3
			c-1.4-1.8-0.5-3.5,0.5-5c12.2-18.7,17.6-39.8,21.2-61.5C218,323.4,218.9,321.7,220,320.1z"/>
		<path class="st31" d="M405,311c3.4,3,3,7.5,3.9,11.3c2.7,11.4,6.3,22.6,9.7,33.8c2.3,7.3,5.5,14.3,6.3,22.1c-1-0.4-2-0.8-2.9-1.2
			c-2.4-0.8-3.1-2.4-4-4.8c-2.5-6.8-3.7-14-5.9-20.8c-2.8-8.5-4.5-17.2-6.4-25.8c0.1-2.8-0.9-5.4-1.4-8.1
			C403.8,315.2,403.2,312.9,405,311z"/>
		<path class="st32" d="M332.2,438.4c-0.3,1.3-1.1,2.1-2.4,2.5c-1.6,1.6-3.5,1.5-5.5,1.5c-5-0.2-10-0.5-14.9,0
			c-8.7,0.9-16.4,3.9-21.3,11.8c-1.3,4.9-1.6,9.7,2.1,13.9c1,1.1,1.7,2.5,0.9,4.1c-0.7,0.3-1.3,0.7-2,1c-6.3-4.2-8.7-11.4-6.8-20.4
			c7.7-11,19.1-15.4,31.7-17.1c4.6-0.6,9.3-0.3,13.9,0C329.7,435.8,332.2,435.3,332.2,438.4z"/>
		<path class="st33" d="M345.8,424c-2.6,2.3-5.8,1.6-8.8,1.8c-15.1,1.4-29.2,6.4-43,12.2c-0.3-0.2-0.3-0.4-0.3-0.7
			c0.1-0.2,0.2-0.3,0.3-0.3c8.3-4.6,17.2-7.5,25.9-11c8.8-3.5,18.3-5.2,26.6-9.8c2.3-1.3,4.8-1.2,7.2-1.2
			C351.1,418,348.4,421,345.8,424z"/>
		<path class="st34" d="M231,316c-0.2,19.2-2.5,38.1-6.5,56.9c-0.9,4.3-1.9,8.7-3,13c-0.6,2.2-0.6,4.2,0.6,6.2
			c-0.2,0.2-0.4,0.4-0.6,0.6c-1.7,1-3.5,1.6-5.5,1c-2.4-1.5-1.3-3.6-0.6-5.3c3.2-8,5.3-16.4,6.8-24.9c1.9-10.3,3.3-20.6,4.5-31
			c0.6-5.2,0-10.6,2.3-15.6C229.5,316.3,230.1,315.9,231,316z"/>
		<path class="st35" d="M248.8,299.9c5.4-6.8,11.6-12.6,19.3-16.8c3.1-0.5,6.1-1.8,9.1-2.8c0.7-0.2,1.5-0.2,2.2-0.3
			c3.5,0,5.2,1,2.5,4.5c-3.9,4.2-9,6.7-13.9,9.6c-3.6,1.8-7,3.8-10.7,5.2C254.5,300.2,251.8,302.1,248.8,299.9z"/>
		<path class="st36" d="M185,384c-1.3-1-2.7-1.9-4-2.9c-0.8-1-0.5-1.9,0.4-2.6c15.3-12.6,21.9-30.1,27.5-48.2
			c0.8-2.5,0.8-5.3,3.1-7.2c1-0.4,2-0.8,3-1.1c0.3,0.4,0.4,0.9,0.3,1.4c-2.4,9.5-4.9,19-8.3,28.2c-4.2,11.2-10.4,21.1-18.2,30.1
			C187.7,382.9,186.7,384,185,384z"/>
		<path class="st37" d="M215,323c0-0.3,0-0.7,0-1c0.9-0.7,1.8-1.2,3-1c1.1,5.7-1.1,11-2.3,16.3c-3.1,13.6-7,26.9-14.1,39.1
			c-2.8,4.7-6.2,9-7.6,14.4c-2-1.5-4.1-3.1-6.1-4.6c-0.4-1.1,0.1-2,0.7-2.7c11.5-12.9,17.7-28.3,22.4-44.5
			C212.6,333.6,213.2,328.2,215,323z"/>
		<path class="st38" d="M194,390.8c-2.1-4,1.1-6.7,2.9-9.3c9.5-13.8,14.2-29.4,18.1-45.4c1.2-5,2-10,3-15c0.7-0.3,1.3-0.6,2-1
			c-3.2,18.5-6.6,36.9-14.9,54c-2.1,4.3-4.6,8.4-6.9,12.6c-0.9,1.7-2.6,3.1-2.2,5.4C195.3,391.6,194.7,391.2,194,390.8z"/>
		<path class="st39" d="M389.3,382.2c-1-0.6-1.4-1.4-1.3-2.5c1.2-12.6,0.2-25.3-0.4-37.9c-0.8-16,0-32-2.5-47.9
			c-0.4-2.6-0.1-5.3-0.1-7.9c2.5,0.3,1.5,2.5,1.9,3.8c0.4,1.7-0.1,3.6,0.6,5.4c0.5,4,1.2,8,1.6,12c0.9,17.2,2.3,34.3,3.3,51.4
			c0.3,5.1-0.3,10.3,1,15.3c0.4,1.4,0.8,2.8,1.5,4.2c0.1,0.3,0.2,0.6,0.3,0.9C393.4,380.6,391.4,381.4,389.3,382.2z"/>
		<path class="st40" d="M198.9,394.3c3.6-7.7,7.8-15.1,10.9-23.1c4.9-12.5,7.6-25.4,10.4-38.4c0.9-4.2-0.7-9.1,2.9-12.7
			c3,3.9,0.5,8.1,0.1,12c-1.1,11.3-4,22.4-6.8,33.4c-0.1,0.5-0.2,1-0.4,1.5c-1.1,2.4-2.5,4.6-2.8,7.3c-0.1,0.5-0.2,0.9-0.4,1.4
			c-1.5,4.2-3.9,8.1-4.9,12.4c-1.7,3.1-3.2,6.3-4.8,9.4C201.1,396.9,200,395.6,198.9,394.3z"/>
		<path class="st41" d="M215,323c-0.9,12.8-4.7,24.9-9.9,36.5c-2.9,6.6-7.2,12.5-10.2,19.1c-1.6,3.5-5.5,4.3-7,7.5
			c-1-0.7-1.9-1.4-2.9-2.2c14.6-15.4,22.9-33.9,27.2-54.5C212.6,327.3,212.2,324.3,215,323z"/>
		<path class="st42" d="M332.2,438.4c-0.5-0.4-1-1.2-1.5-1.2c-14.2-0.9-28.1-0.5-40.4,8.5c-2.9,2.1-4.6,5.1-7.3,7.3
			c-0.9-1-0.8-2,0-3c4.5-5.5,10.5-8.9,16.8-11.9c9.4-4.5,19.6-5.3,29.8-6.1c2.7-0.2,5.3,0.4,7.8,1.1
			C335.8,435,334.6,437.3,332.2,438.4z"/>
		<path class="st43" d="M403.1,376.1c-1.9,0-2.9-0.6-3.2-2.8c-2.7-20.9-6-41.8-8-62.8c-0.9-9.8-2.6-19.6-3.9-29.4
			c3.1,0.6,2.8,3.5,3.1,5.5c2.4,17.7,5.1,35.4,7.5,53.1c1.6,11.6,3.5,23.2,5.9,34.7c0,0.6-0.2,1.1-0.5,1.6l-0.4,0.2L403.1,376.1z"/>
		<path class="st44" d="M204,326c0.3-0.2,0.6-0.3,0.9-0.3c1.1,0.9,1.2,2.1,0.7,3.2c-5.3,11.8-9.6,24.2-19.5,33.3
			c-4.9,4.5-10.2,8.6-17,9.9c-1.3-1-2.7-2-4-3c-0.4-2.5,1.6-3.3,3.2-3.7c13.9-3.6,21.1-14.3,27.7-25.8c2.3-4,3.3-8.8,6.6-12.3
			C202.9,326.8,203.4,326.4,204,326z"/>
		<path class="st45" d="M320.9,449.9c-1,1.3-1.8,2.8-3.6,3.2c-2,0.9-4.1,1.1-6.3,0.6c-3.2-0.7-6.3-0.1-9.2,1.2
			c-5.2,2.3-6.4,4.6-5.5,10.5c0.2,1.3,0.5,2.6-0.3,3.8c-0.4,0.3-0.7,0.5-1.1,0.8c-4.5-1.5-7.1-7-5.5-12c1.2-3.7,3.8-6.3,7-8.1
			c7.3-4.2,15.1-4.9,23-1.8C320.4,448.4,321.1,448.9,320.9,449.9z"/>
		<path class="st46" d="M320.9,449.9c-9.4-3.5-18.4-3.6-26.6,3.2c-5.3,4.4-6.1,10.1,0.6,16.9c-0.3,0.8-1,1.1-1.8,1.1
			c-6.9-4.1-8.4-13.3-3.2-19.3c2.1-2.4,4.7-4.1,7.3-5.8c7.1-3.8,14.8-4.1,22.5-2.9c1.9,0.3,5,0.2,4.2,3.8
			C323.2,448.1,322.5,449.4,320.9,449.9z"/>
		<path class="st47" d="M226,318c0.7-0.3,1.3-0.5,2-0.8c0.7,6.8-0.6,13.5-1.3,20.2c-1.6,15-4.7,29.8-8.7,44.4
			c-0.7,2.4-1.9,4.6-2.8,6.9c-0.7,1.8-1.2,3.4-0.8,5.3c-1,2.7-3,3.2-5.6,2.6c-2.1-3.2,0.1-6,1.1-8.7c4.4-12.1,8.7-24.2,10.9-37.1
			c1.7-9.8,2.7-19.7,4-29.6C224.9,320.1,225.4,319,226,318z"/>
		<path class="st48" d="M307,384c-10.7,16.3-24.9,29.2-39.8,41.4c-2.8,2.3-4.4,6-8.4,6.7c-0.7-1.3-1.4-2.7-2.1-4
			c6.4-2.1,10.5-7.2,15.4-11.3c4.2-3.6,8.7-7.1,12.3-11.4c6.3-5.8,12.4-11.8,16.9-19.2c1-1.6,2.5-2.6,4.4-2.8
			C306.2,383.5,306.6,383.7,307,384z"/>
		<path class="st49" d="M141.9,348.9c5.8,2.8,10.9,6.8,17.8,7.2c12.5,0.6,20.8-6.2,28.2-14.9c3-3.5,5.5-7.4,8.2-11.2
			c1.1,1.2,0.9,2.5,0.2,3.7c-5.1,9.2-11.1,17.6-20.7,22.7c-8,4.3-16.3,3.2-24.6,1.8c-4-1.7-7.1-4.7-10.4-7.4
			C138.1,348.8,141,349.3,141.9,348.9z"/>
		<path class="st50" d="M204,326c-2.4,4.7-4.6,9.5-7.1,14.2c-5.2,9.9-11.8,18.6-21.8,24.2c-3.3,1.8-7.8,0.8-10.1,4.6
			c-1.8-1.1-3.7-2.1-5.1-3.9c-0.3-2.1,1.4-2.1,2.5-2.2c14.6-1.1,23-10.5,30.1-21.8c2.2-3.5,4.8-6.8,5.4-11.1c0.3-0.7,0.5-1.4,1-2
			C200.6,327.1,202.1,326.2,204,326z"/>
		<path class="st51" d="M214.1,394c-1.6-1.3-1.4-3.1-0.6-4.5c4.7-9.5,6-19.9,8.7-29.9c3.7-13.9,3.7-28.3,5.9-42.4
			c0.3-0.1,0.7-0.1,1-0.2c-0.1,11.6-1.9,23-3.4,34.4c-1.1,8.2-2.9,16.2-4.6,24.3c-1,4.6-3.1,9-4.4,13.5c-0.3,1.1-2.5,3,0.5,3.9
			c0.3,0.5,0.2,0.9-0.2,1.3C215.8,394.9,214.9,394.8,214.1,394z"/>
		<path class="st52" d="M212,323.2c-3.2,14.1-8.2,27.5-15.6,40c-4.1,6.9-9.4,12.7-15.5,18c-1-0.8-1.9-1.5-2.9-2.3
			c-0.4-1.8,0.9-2.7,2-3.7c14.6-11.7,21.9-27.7,27.1-45c0.5-1.7,0.6-3.6,1.8-5.1c0.3-0.4,0.7-0.7,1-1.1
			C210.6,323.7,211.3,323.4,212,323.2z"/>
		<path class="st53" d="M210,323.9c0,0.4,0,0.7,0,1.1c-3.2,4.9-3.7,10.8-6,16c-6.4,14.4-13.7,27.9-28,36.1c-1.5-0.8-3.1-1.4-4-3
			c-0.5-1.5,0.7-2.2,1.7-2.7c15.5-8.5,23.6-22.7,29.8-38.4c1-2.6,2.3-5.1,2.6-7.9C207.3,324.7,208.6,324.3,210,323.9z"/>
		<path class="st54" d="M271.2,458c2.4-14.7,13-22.3,24.8-29c0.6,1.7-0.6,2.7-1.4,3.9c-2.9,2.4-5.8,4.8-8.9,7.1
			c-11.3,8.5-12.6,18.6-4.3,30c1.2,1.7,4,2.9,2.5,5.8c-3.1,2.4-4.8,1.4-6.2-2C275.8,468.5,273.4,463.2,271.2,458z"/>
		<path class="st55" d="M226,318c0,14.1-2.3,28-5.4,41.6c-2.3,10.2-5.2,20.6-10.2,30.1c-1,1.8-0.9,4.2-1.3,6.4
			c-0.1,2.1-1.6,1.8-3,1.7c-2.1-0.9-1.6-2.3-1-4c0.9-2.7,2.5-5.1,3.4-7.9c3.3-7.3,6.3-14.6,7.8-22.5c4-13.3,5.9-26.9,7.7-40.6
			c0.2-1.3,0.2-2.6,1-3.8c0-0.3,0-0.6,0-0.8C225.3,318.1,225.7,318,226,318z"/>
		<path class="st56" d="M463,397c-4.2-1-4.3-5.1-5.8-8c-2.9-5.5-5.7-11.1-7.6-17c-2.9-9.2-7.5-17.8-10.4-27
			c-0.5-1.7-0.1-3.6-0.1-5.4C447.1,358.8,455,377.9,463,397z"/>
		<path class="st57" d="M409,260.9c-2,2.6-2.2-0.8-2.3-1c-2.4-5-4.7-10-6.9-15.1c-3-7.1-7.1-13.5-11.5-19.7c-5.3-7.6-8-8.1-18.4-5.1
			c0.1-4.1,3.2-5.5,6.4-6.5c3.8-1.2,6.3,1.3,8.7,3.6c1.9,1.8,2.3,4.9,5.2,5.8c6,7.5,9,16.6,13.1,25.1
			C405.5,252.2,407.2,256.6,409,260.9z"/>
		<path class="st58" d="M407,326c2.7,9.2,4.7,18.5,7.3,27.7c1.8,6.4,4.7,12.7,5,19.5c0.1,2.3,2,2.4,2.7,3.7c-1.3-0.3-2.7-0.7-4-1
			c-0.7-0.4-1.4-0.8-1.9-1.5c-3.3-9.7-6.6-19.3-8.4-29.4c-0.7-3.8-1.7-7.4-2.9-11c-1.1-3.5-1.8-7.1-0.2-10.6
			C407.6,322.1,405.8,325.5,407,326z"/>
		<path class="st59" d="M176,377.1c2.7-4.7,7.9-6.7,11.3-10.7c9.3-10.7,15.1-23.1,19.7-36.3c0.7-1.9,0.2-4.5,3-5.1
			c-3.8,14.1-8.9,27.6-17.7,39.5c-4,5.5-9.5,9.5-14.3,14.3C177,378.6,176.4,378,176,377.1z"/>
		<path class="st60" d="M303.1,264c9.9-9.2,18.8-19.5,26.7-30.5c0.5-0.7,1.2-1.1,1.8-1.7c0.4-0.4,0.9-0.4,1.4-0.2
			c0.6,0.6,0.7,1.3,0.6,2.1c-2.7,5.8-7.2,10.5-11,15.5c-6.1,8.4-14.1,15-21.1,22.5c-2.2,1.7-3.6,5-7.4,3.6c-1-1.5,0.2-2.2,1-3.1
			C298,269.7,301.5,267.8,303.1,264z"/>
		<path class="st61" d="M199,328c0,0.7,0,1.3,0,2c-4.4,9.1-9.4,17.7-17.3,24.6c-5.7,4.9-11.8,7.7-19.3,7.7c-1.8,0-3.7,0.1-5.4,0.7
			c-2.2-1.4-4.6-2.6-6.1-4.8c2.8-1.4,5.7-0.3,8.5-0.1c15.3,1.2,24.6-7.3,32-19.1c1.8-2.8,4.8-5.2,4.7-9.1c0.7-0.6,1.3-1.3,2-1.9
			C198.3,328.1,198.7,328,199,328z"/>
		<path class="st62" d="M206,325.1c0.3,6.3-3.5,11.3-5.7,16.8c-4.3,10.9-11.3,19.9-20.5,27.2c-2.4,1.9-5.2,3.4-7.9,5
			c-1-0.7-2-1.4-3-2.1c1.7-3.2,5.4-2.8,8.1-4.4c12.1-7.4,18.6-19,23.9-31.4c1.5-3.4,4.1-6.5,3.9-10.5
			C205.3,325.5,205.6,325.3,206,325.1z"/>
		<path class="st63" d="M157,363c0.5-2.8,2.7-2,4.3-2c12.2,0.7,20.4-6.3,27.2-15.1c3.9-5,7-10.6,10.5-15.9
			c-2,9.4-8.1,16.3-14.1,23.2c-5.8,6.7-13.3,10.4-22.3,10.8c-1,0-2,0.2-2.6,1.1C158.9,364.4,158,363.7,157,363z"/>
		<path class="st64" d="M324,446.9c-1.6-3-4.6-2.5-7.2-2.8c-6.8-0.8-13.4,0.6-19.8,2.9c-4.1,1.2-5.7,6-10,7c4.6-9,12.9-11.9,22-12.9
			c6.9-0.7,13.9-0.2,20.8-0.2C328.3,443.3,326.4,445.4,324,446.9z"/>
		<path class="st65" d="M381,355c0.4,9.5-0.2,18.9-1.8,28.3c-0.3,1.7-1.2,4.1,1.9,4.7c-1.5,1.5-2.9,3.1-4.9,4c-2.8,0.1-3-1-2.5-3.7
			c1.4-7.1,3.9-13.9,4.8-21.1C379,363.1,378.1,358.6,381,355z"/>
		<path class="st66" d="M296.1,469.2c-0.1-0.3-0.1-0.7-0.2-1c-0.4-3.5-3.8-6.9-0.1-10.6c4.2-4.3,9.3-6.3,15.2-5.4
			c2.1,0.3,4.2,0.7,6.4,0.9c-0.9,1.9-3.1,2.5-4.5,3.8c-1.3,1.2-2.8,0.6-4.2,0.6c-5.3,0.1-8,2.4-9.1,7.6c-0.2,1.2-0.6,2.2-1.5,2.9
			C297.4,468.5,296.7,468.9,296.1,469.2z"/>
		<path class="st67" d="M284,475.8c-0.5-3-3.2-4.5-4.7-6.8c-7.9-12.1-5.4-20.5,5.4-29.8c3-2.6,6.2-4.8,9.4-7.2
			c2.5-1.3,4.4-4.2,7.8-3.3c1,1.2,0,1.7-0.8,2.3c-2.5,2.8-6.9,2.6-9,6c-0.2,1-1,1.5-1.9,1.9c-3.8,2.8-8,5.2-10.1,9.8
			c-0.2,0.4-0.4,0.8-0.6,1.2c-1.7,3.6-2.1,7.2-1,11c0.1,0.4,0.3,0.8,0.4,1.2c0.4,1.6,0.9,3.2,2,4.5c1.7,2.3,3.6,4.4,5.1,6.8
			c0,0.2,0.1,0.4,0.1,0.7C285.8,475.2,285.1,475.7,284,475.8z"/>
		<path class="st68" d="M397,374c0,1.2-0.1,2.4,1.2,3.1c-0.6,1.4-2.2,1.1-3.2,1.9c0,0-0.1-0.2-0.1-0.2c-2.2-3.3-2.6-7.3-2.7-11
			c-0.7-16.4-2.3-32.8-3.1-49.2c0-0.7,0.1-1.3,0.3-2c0.2-0.2,0.4-0.5,0.6-0.7c2.2,3,0.7,6.6,1.6,9.9c1.2,4.2,1,8.7,1.4,13.1
			C394.3,350.7,395.3,362.4,397,374z"/>
		<path class="st69" d="M390.3,222.9c-2.3,0.3-2.9-1.6-4-3c-6-7.5-10.3-7.4-16.3,0.1c-1.3,0.6-2,1.6-2,3c-0.2,0.1-0.4,0.3-0.6,0.4
			c-0.8,0.1-1.5,0-1.9-0.8c0.4-8,6.3-13.9,13.6-13.7C384.7,212.1,386.8,218.1,390.3,222.9z"/>
		<path class="st70" d="M234.1,399c0,0.3,0,0.6-0.1,0.9c-0.3-0.2-0.7-0.5-1-0.7c-2.5-1.8-1.5-3.6,0.1-5.3c2.2-2.2,3.9-4.8,5.4-7.5
			c1-1.6,1.2-3.3,0.8-5.2c0.1-1.5,1-2.6,1.9-3.6c0.8-0.8,1.7-1.6,2.6-2.3c3-1.2,3.8-5.3,7.3-5.9c0.5,0.1,0.9,0.3,1.2,0.7
			c1.3,2.7-0.2,4.7-1.6,6.7c-1.9,2.8-4.4,5.2-5.8,8.4C242.4,390.6,237,393.8,234.1,399z"/>
		<path class="st71" d="M285,406c-7.2,7.9-15.4,14.6-23.7,21.2c-1.4,1.1-2.8,1.6-4.6,0.9c-0.2-0.4-0.4-0.7-0.7-1.1
			c7.7-2.9,12.3-9.9,18.8-14.3c5-3.3,7.2-9.6,13.1-11.7C288.3,403.5,285.6,404.1,285,406z"/>
		<path class="st72" d="M298,468.1c-0.2-5.7,1.4-9.9,7.7-11.6c2.7-0.7,4.8,0.8,7.1,0.5C308.6,461.6,303.5,465,298,468.1z"/>
		<path class="st73" d="M222.1,392.1c1.6-0.2,2.9-0.8,3.9-2.1c0.8-1.7,2.3-2.6,4-3.4c0.4-0.1,0.9-0.1,1.4-0.1c1,0.1,2,0,2.9,0.2
			c2.9,0.4,3.8,1.7,1.7,4.2c-2,2.4-3.9,4.8-5.9,7.1c-1.6,0.6-2.6-1-4-1.1c-0.3-0.3-0.7-0.5-1-0.8c-1.2-0.9-3-1.1-3.5-2.8
			C221.5,392.7,221.7,392.3,222.1,392.1L222.1,392.1z"/>
		<path class="st74" d="M283,450c0,1,0,2,0,3c-1.1,7.7,1.5,14.3,6.1,20.3c-0.8,1-1.9,0.9-3,0.8c0,0-0.2-0.2-0.2-0.2
			c-2.1-3.6-5.1-6.7-6.8-10.6c-0.3-2.9-1.9-5.7-1-8.6c0.6-2.1,0.6-4.8,3.9-4.7C282.3,450,282.7,450,283,450z"/>
		<path class="st75" d="M379,208.9c-0.2,0.2-0.5,0.6-0.7,0.6c-9,0-9.6,7.6-12.3,13.4c-0.4,1.9-0.3,4.2-3.3,3.7
			c-0.2-1.3-0.4-2.6,0.3-3.7v0c2.1-4.7,3.2-9.8,6.1-14.1c1.4-2.1,3-4,5.9-3.8C377.1,205.6,377.3,208.1,379,208.9z"/>
		<path class="st76" d="M230,397.9c0.4-2.8,3-4.1,4.1-6.5c0.5-1.1,2.6-1.6,2-3c-0.6-1.5-2.2-0.6-3.5-0.5c-0.5,0-1.1-0.6-1.6-0.9
			c-0.6-1.4,0.7-1.8,1.4-2.5c1-0.8,2.1-1.4,3.1-2.1c0.8-0.7,1.6-1.5,2.6-1.8c0.7-0.1,1.3-0.1,1.8,0.5c1.1,1.5,1.8,2.7,0.4,4.7
			c-2,3-3.5,6.3-6.3,8.8c-1.6,1.4-2.3,2.8-1.1,4.7C232,398.7,231,398.3,230,397.9z"/>
		<path class="st77" d="M348,225c-1.4,2.3-1.9,5.1-3.9,7.1c-0.9-0.7-1.1-1.7-1.2-2.7c0-0.8,0.1-1.5,0.3-2.2c0.5-1.6,0.8-3.2,1.7-4.7
			c0.8-1.6,1.2-3-1.5-2.3c-0.9,0.2-1.9,0.6-2.8-0.2c1.7-3,3.8-5.6,6.4-7.9c3.6,0.3,4.4,2.5,3.7,5.5C350.1,220.2,349,222.6,348,225z"
			/>
		<path class="st78" d="M237.8,311.9c0.3-0.3,0.7-0.6,1-0.9c1.2-1.2,2.2-2.4,3.6-3.3c0.4-0.3,0.8-0.5,1.3-0.6
			c4.3-0.8,7.9-3.5,12.2-4c0.7,0,1.4,0.2,2,0.7c0.7,2.4-1.4,2.6-2.7,3.4c-2.3,1.4-4.8,2.1-7.3,3c-5.3,2-5.5,2.7-1.7,7
			c0.8,0.9,1.6,1.7,2.1,2.8c0,0.5-0.1,0.9-0.4,1.3c-1.2,0.6-2.3,0.2-3.4-0.3c-1.5-0.8-2.6-2-3.5-3.3
			C240.1,315.6,237.3,314.6,237.8,311.9z"/>
		<path class="st79" d="M354,229c3.3-9.4,6.2-18.9,12.1-27.2c0.6,0.1,1.3,0.2,1.9,0.3c-3.6,6.7-6.8,13.6-9,20.9v0
			c-1,2.4-1.7,4.8-2.4,7.3c-0.7,0.9-1.1,2.4-2.8,1.6C353.3,230.9,353.3,229.9,354,229z"/>
		<path class="st80" d="M287,454c3.6-2,5.3-6.6,10-7c-0.4,0.5-0.7,1.1-1.2,1.5c-9.8,7.3-10.5,13.1-2.6,22.6c-0.7,0.4-1.4,0.8-2,1.2
			c-3.1-4.8-6.5-9.4-5.2-15.7C286.2,455.7,286.1,454.7,287,454z"/>
		<path class="st81" d="M340.6,220c0.8-0.3,1.5-0.6,2.3-0.9c1.2-0.4,2.5-1.7,3.5-0.4c1.1,1.3,1.1,3-0.4,4.3
			c-4.8,0.8-5.3,5.1-6.8,8.6c-0.4,0.9-0.9,1.7-2,1.7c-0.9-0.5-1.3-1.3-1.7-2.2c-0.5-2.3,1.4-4.1,1.5-6.3
			C337.1,222.4,339,221.3,340.6,220z"/>
		<path class="st82" d="M348,225c0.4-1.8,0.6-3.6,1.3-5.3c1.3-3.2,0.9-5.8-2.2-7.6c1.9-2.5,3.9-5,6.9-6.4c-2.2,3.2-0.3,7-1.8,10.4
			C350.8,219.1,350.5,222.6,348,225z"/>
		<path class="st83" d="M248.8,299.9c5.3,0.1,9.7-2.7,14.2-4.8c1.6-0.8,3.3-1.4,5-2.1c0.3,0.4,0.5,0.9,0.5,1.4
			c-1.9,3.3-5.7,3.7-8.6,5.5c-3.4,1.1-6.4,3-9.9,4c-1.7,0.4-3.3,1.5-5,0.1C245.8,302.2,247.2,300.9,248.8,299.9z"/>
		<path class="st84" d="M375,205.1c-6.8,2.6-7.5,9.2-9.9,14.8c-0.5,1.2-0.7,2.5-2.1,3.1c0.6-6.1,3.3-11.3,6.7-16.2
			c0.8-1.2,2.4-1.9,1.3-3.7C372.6,203.3,373.9,204,375,205.1z"/>
		<path class="st85" d="M359,223c1-7.8,4.2-14.7,9-20.9c0.9-0.2,1.6,0.1,2.1,0.8c-3.9,2.9-5.4,7.2-7,11.4
			C362,217.3,360.8,220.3,359,223z"/>
		<path class="st86" d="M244.9,304c5.4-0.7,9.8-4.2,15.1-5c0.1,2.6-2.3,2.7-3.7,3.8c-4.4,1.7-8.9,3.4-13.3,5.2l0,0
			c-0.6,0.5-1.2,0.6-1.8,0.1C242.1,306.4,243.2,304.9,244.9,304z"/>
		<path class="st87" d="M206,397c1.1,0,2.3,0.1,3-1c2,0.1,3.6-0.6,5-2c1,0,1.9-0.1,2.9-0.1c0.9-0.5,1.1,0,1.2,0.8
			c-0.3,1.7-2,1.5-3.1,2.1c-3.7,0.9-6.9,5.4-11.1,1.2C204.4,397.2,205.4,397.6,206,397z"/>
		<path class="st88" d="M206,397c-0.7,0.3-1.4,0.7-2.1,1c-0.4-0.3-0.7-0.5-1.1-0.8c-0.1-3.7,1.7-6.6,4.1-9.3
			c0.7-0.6,0.3-1.8,1.4-2.2c0.2,0.1,0.4,0.1,0.6,0.2c-0.3,3.1-2,5.7-3.1,8.5C205.5,395.5,205,396.2,206,397z"/>
		<path class="st89" d="M241.8,317.1c1,1,2.1,2,3.1,2.9c0.3,1.5-0.8,1.6-1.8,1.8c-1.3-0.1-2.5-0.6-3.2-1.8c-1.3-2.6-4.2-3.1-6.1-5
			c0.9-0.7,1.9-1.5,2.8-2.2C238.7,313.8,240,315.8,241.8,317.1z"/>
		<path class="st90" d="M303.1,264c-0.1,4.9-4.5,6.2-7.2,9c-0.7-0.6-1.8-0.1-2.3-1C296.9,269.3,300,266.7,303.1,264z"/>
		<path class="st91" d="M281,284c2.7-3.4,0.1-3.1-2.1-3c0-2.7,2.7-1.8,4-2.9c0.6-0.1,1.2-0.1,1.8-0.2c1.1-0.4,2.3-1.1,3.1,0.1
			c0.8,1.2-0.2,2.1-0.8,3c-1.2,1.3-2.4,2.5-4,3.3C282.3,284.6,281.6,284.6,281,284z"/>
		<path class="st92" d="M293.7,271.9c0.9,0.1,1.8,0.1,2.3,1c-1,0.4-1.7,1-1.9,2.1c0.3,1.8-0.8,2.6-2.1,3.4c-0.7,0.2-1.3,0.2-2-0.2
			c0.3-1.4-1.7-2-1.2-3.5C290.4,273.8,292.1,272.9,293.7,271.9z"/>
		<path class="st93" d="M336.9,224.8c2.2,2.4-1,4.1-0.9,6.2c0.2,2.2-0.8,3.2-3,3c0-0.7,0-1.3,0-2c0.2-1.1,0.6-2.1,0.9-3.1
			C334.8,227.4,335.4,225.8,336.9,224.8z"/>
		<path class="st94" d="M277.2,281.1c-2.9,1.3-5.7,3-9.1,1.9c2-1.6,4.2-2.8,6.7-3.1C276.1,279.3,276.7,280.1,277.2,281.1z"/>
		<path class="st95" d="M288.8,274.8c0.5,1,2.4,1.6,1.2,3.2c0,1.9-0.9,3.1-2.8,3.5c-0.5,0-0.9-0.2-1.2-0.6c1.3-1.7,2.3-3.3-1.2-3
			C285.5,276.1,287.4,275.7,288.8,274.8z"/>
		<path class="st96" d="M417,375c0.3,0.3,0.6,0.7,1,1c-4.7,0-9.3,0-14,0c0-0.3,0-0.6,0-0.9c0.5-0.9,1.3-1.3,2.3-1.5
			c1.4-0.1,2.8,0.3,4.2,0.2c1,0,2,0,2.9,0C414.8,373.7,416,374.1,417,375z"/>
		<path class="st97" d="M248.8,415.1c0.4,0,0.8-0.1,1.2-0.1c1.8,0,3.3-2.4,5.4-0.7c0.8,2.9-2.5,3.4-3.2,5.4L252,420
			C250.5,418.6,249.5,417,248.8,415.1z"/>
		<path class="st98" d="M277.2,281.1c-0.8-0.4-1.6-0.8-2.4-1.2c2.6-1.2,5.1-2.4,8.1-1.8c-1.3,1-2.7,1.9-4,2.9
			C278.3,281,277.8,281.1,277.2,281.1z"/>
		<path class="st99" d="M215.1,396.9c1-0.7,1.9-1.3,2.9-2c0.2,0,0.5-0.1,0.7-0.1c2.5,0,5-0.1,7.3,1.2c0,0.3,0,0.5,0,0.8
			C222.4,396.8,218.7,396.8,215.1,396.9z"/>
		<path class="st100" d="M241.8,317.1c-2.5-0.5-3.8-2.4-5.1-4.3c0.3-0.3,0.7-0.6,1-0.9C239.1,313.6,240.5,315.3,241.8,317.1z"/>
		<path class="st101" d="M333.9,228.9c0.8,1.4,0.8,2.5-0.9,3.1c-0.5,0-0.9-0.1-1.4-0.1C332.1,230.7,332.7,229.5,333.9,228.9z"/>
		<path class="st102" d="M241.2,308c0.6,0,1.2,0,1.8-0.1c-1.4,1-2.8,2-4.2,3C239.2,309.6,239.9,308.6,241.2,308z"/>
		<path class="st103" d="M470,415.3c0.1-0.8,0.1-1.7,0.2-2.5c0.9,1.1,2.2,2.1,1.5,3.6C471.4,416.9,470.2,416.2,470,415.3z"/>
		<path class="st104" d="M244,385c0.6-3,3.1-4.8,4.7-7.2c1.6-2.4,3.8-4.5,3.3-7.8c-0.6-1.6,0.7-2.4,1.4-3.4c1.4-1.4,2.8-2.7,4-4.2
			c1.7-2,3.4-4,5.1-6c3.8-4.7,8.6-8.7,10.7-14.7c0-0.7,0.2-1.4,0.7-1.9c2.1-0.3,3.5-1.3,4.6-3.2c1.3-2.3,2.5-4.6,5.1-5.8
			c1.3,0.3,2.3-0.4,2.9-1.4c3-4.6,7-8.5,9.5-13.4c0.3-0.6,0.8-1.2,1.3-1.6c1.1-0.7,2.1-2,3.7-1.3c-2.4,6.5-8,10.9-11,17
			c-3.1,5.6-7.7,10.2-11.4,15.4c-5.7,7.9-12.1,15.3-17.9,23.1c-4.7,4.7-9.4,9.5-12.7,15.5C246.8,385,245.8,386.3,244,385z"/>
		<path class="st105" d="M260,368c9.4-13.1,19.4-25.8,30-38c-0.2,6-5.7,8.6-8.4,13c-4.2,7-9.3,13.6-14.3,20.1
			c-3.3,4.3-6.6,8.9-11.4,11.9C254.9,371.3,259.2,370.7,260,368z"/>
		<path class="st81" d="M344,229c0,1,0.1,2.1,0.1,3.1c-3.5,8.2-7.4,16.3-12,23.9c-0.5,0.4-0.9,0.3-1.4-0.1c-0.4-0.7-0.6-1.4-0.5-2.2
			c3.5-8,8.4-15.3,11.5-23.4C342,229.5,342.8,228.6,344,229z"/>
		<path class="st106" d="M244,385c1.3-0.3,2.7-0.7,4-1c-3,6.5-9.1,10.1-13.9,15c0.7-5,5.1-7.2,7.7-10.8
			C242.6,387.1,243.4,386.1,244,385z"/>
		<path class="st106" d="M260,368c0,3.1-4,3.9-4,7c-3.6,2.2-3.2,7.9-8,9C249.5,376.8,255.4,372.9,260,368z"/>
		<path class="st107" d="M311,296c-0.7,4.1-4.1,6.6-6,10c-0.9,0.9-1.2,2.8-3.2,2c-1.1-2.8,1.4-4.1,2.5-6c1.1-1.8,2.8-3.2,3.8-5.2
			c0.4-0.6,0.9-1.1,1.6-1.3C310.2,295.5,310.6,295.6,311,296z"/>
		<path class="st108" d="M330,260.1c-0.6,3.9-3.1,6.7-5,9.9c-0.4,0.3-0.8,0.3-1.2,0.1c-1.1-2,0.8-3.5,1-5.3c0.5-1.8,1.5-3.4,2.6-4.9
			c0.5-0.6,1-1,1.7-1.2C329.9,258.9,330.5,259.1,330,260.1z"/>
		<path class="st109" d="M318,282c0.1,3.4-2,5.6-4,8c-0.6,0.6-1.2,0.5-1.9,0.1c-0.8-2.4,1.3-3.8,2-5.7
			C315.1,283.1,315.8,281.4,318,282z"/>
		<path class="st110" d="M302,308c1-0.7,2-1.3,3-2c-0.5,2.8-2.8,4.6-4,7c-1,0.7-2,1.3-3,2c-1.5-2.9,1.5-4.1,2.2-6.3
			C300.6,308.2,301.2,307.7,302,308z"/>
		<path class="st111" d="M323,274c-0.8,2.9-1.9,5.7-4.9,7c-0.4,0.4-0.8,0.4-1.2,0.1c0-3.5,2.2-5.5,4.8-7.4
			C322.1,273.7,322.6,273.7,323,274z"/>
		<path class="st112" d="M312,290c0.7,0,1.3,0,2,0c0.5,2.8-2,4-3,6c-0.3,0-0.7,0-1,0c-0.5-0.5-0.8-1.1-0.8-1.7
			c0.2-1.6,1.1-2.8,2.2-3.9C311.6,290.2,311.8,290.1,312,290z"/>
		<path class="st113" d="M317,281c0.4,0,0.7,0,1.1,0c0,0.3-0.1,0.6-0.1,1c-1.4,0.6-2.3,1.7-3,3c-1.5,0.3-1.6-0.8-1.9-1.8
			c0-1.9,0.5-3.5,2.4-4.4C316.8,278.9,316.5,280.3,317,281z"/>
		<path class="st114" d="M330,260.1c-0.3-0.4-0.6-0.7-1-1.1c-1.1-2.1-0.3-3,1.9-3.1c0.4,0,0.7,0.1,1.1,0.1
			C332.1,257.8,331.6,259.2,330,260.1z"/>
		<path class="st113" d="M323,274c-0.3,0-0.7,0-1,0c-0.3-0.4-0.5-0.8-0.6-1.3c0.3-1.4,0.5-2.9,2.5-2.8c0.4,0,0.7,0,1.1,0.1
			C324.9,271.6,324.2,273,323,274z"/>
		<path class="st115" d="M407,326c-0.7-1-1.3-2-2-3c-3-1.3-2.9-4.1-3.4-6.7c-5.1-24.4-10.5-48.7-18.6-72.3c-0.2-0.6-0.5-1.2-0.8-1.8
			c-1.9-3-3-6.3-4.5-9.4c-2-4.3-4.7-7-9.7-6.8c-0.7,0-1.3,0-2,0c-0.8-1.9,1.2-2.1,2-3c0,0,0,0,0,0c0.3,0,0.7,0,1,0c6-2.3,8,2.7,11,6
			c0,0.8,0.2,1.6,1,2c3.8,9.7,7.9,19.2,11.2,29c2.2,6.5,3.3,13.4,5,20c2.3,8.9,4.8,17.7,7.1,26.6c0.4,1.4,0.5,2.9,0.7,4.4
			C404.3,316.2,407.4,320.9,407,326z"/>
		<path class="st5" d="M380,229c-3.6-2-5.5-7.3-11-6c2.7-1.8,5.3-1.1,8,0C376.8,225.6,380.2,226.4,380,229z"/>
		<path class="st116" d="M301,431c0.3-0.7,0.7-1.3,1-2c0.4-1.2,1.3-1.8,2.4-2.2c9.3-4.2,18.6-8.7,27.2-14.4
			c12.4-8.1,17.8-20.5,20.1-34.7c1-6.1,1.1-12.3,1-18.4c-0.5-18,1.2-35.8,1.6-53.8c0.8-6,0.4-12.1,0.4-18.1
			c-0.3-3.7,0.9-7.2,1.1-10.8c0-0.8,0.2-1.6,0.4-2.4c0.7-1.7,0.5-3.6,1.7-5.1c0.4-0.4,0.9-0.5,1.5-0.3c0.4,0.4,0.6,0.9,0.8,1.4
			c0.4,1.6,0.3,3.2,0.3,4.9c0,1.1-0.1,2.3-0.4,3.4c-0.6,5.1-1.7,10.1-1.5,15.3c0,1.8,0.2,3.7-1.3,5.1c-1.4,1.1-1,2.7-1,4.2
			c0,14.6-0.6,29.3,0.2,43.9c0.6,11.2,0.6,22.5,0.9,33.7c0.4,17.2-8.5,27.6-22.9,35.5c-9.8,5.4-20.6,8.6-30.3,14.1
			C303.1,430.9,302,430.8,301,431z"/>
		<path class="st117" d="M357,299c0-7.1-0.3-14.2,2-21c2.2,2.8,1.2,6,1.1,9c-1.3,11.7-1,23.4-0.2,35.1c0.3,4.9-0.1,9.9,1.4,14.7
			c-0.7,6.4,1,12.4,3.1,18.4c0.7,1.9,1.5,4,3.8,4.2c2.5,0.2,3.1-2.2,3.9-3.9c3.9-7.7,4.7-16.1,6.5-24.3c0.4-1.6-0.4-3.9,2.3-4.1
			c0.1,11-1.8,21.7-5.4,32.1c-1.5,4.3-1.8,8.8-5.2,12.5c-2.8,3.1-4.4,3-6.4-0.2c-0.8-1.3-1.6-2.6-1.9-4
			C357.6,344.8,356.3,322,357,299z"/>
		<path class="st118" d="M381,327c-1.9,5.4-2.7,11.1-3.6,16.7c-0.9,5.1-3.2,9.3-4.7,13.9c-0.7,2-1.9,3.8-4.1,3.8
			c-2.3-0.1-3.9-1.7-4.7-3.9c-2.3-6.3-4.7-12.6-3.8-19.5c2.7,0.1,2.7,2.4,3.2,4.2c0.9,3.2,1.4,7.5,5.2,7.6c4,0.1,5.1-4.2,6.1-7.5
			c2.3-7.8,3.6-15.8,4.2-23.9c0.2-3.4,0.3-3.4,2.8-3.9c-0.1,2.8,0.5,5.7-0.4,8.5C381,324.3,381,325.7,381,327z"/>
		<path class="st117" d="M381,323c0-3,0-6,0-9c-1.2-1.1-1.3-2.6-1.4-4.1c-0.1-10.4-0.1-20.8,0-31.3c0-1.2,0.2-2.3,0.9-3.3
			c1.3-1,1.8-0.1,1.8,1c0,2.2,0.6,4.5-0.4,6.7c0,11.6,0,23.2,0,34.8C382,319.6,382.6,321.5,381,323z"/>
		<path class="st22" d="M382,283c-0.4-2.7,1-5.5-1-8c-1-0.8-1.2-1.9-1.3-3.1c0-2.3-0.4-4.6,0.9-6.7c0.5-0.4,1-0.5,1.6-0.2
			c0.7,3,2.6,5.8,0.8,9c0,3,0,6,0,9C382.7,283,382.3,283,382,283z"/>
		<path class="st119" d="M290,438c0.7-0.3,1.3-0.7,2-1c0.7,0,1.3,0,2,0c0,0.3,0,0.7,0,1c-3.2,1.7-5.4,4.8-9,6
			C285.3,440.8,288.1,439.8,290,438z"/>
		<path class="st120" d="M368,226c4.2-2.3,7-0.6,9,3.1c2.1,3.9,4,7.9,6,11.9c4.4,14.2,8.3,28.6,11.5,43.2c0.7,3.2,1.5,6.5,1.7,9.8
			c0,1.4,0,2.9-1.1,4c-2.6,0.2-2.2-1.9-2.5-3.3c-1.2-5.4-1.7-11-3.6-16.3c-2.4-9.4-3.7-19.1-6.5-28.4c-0.3-1.9-1.4-3.5-2-5.3
			c-0.2-0.4-0.3-0.8-0.4-1.3c-0.3-1.7-0.7-3.3-1.6-4.9c-0.2-0.4-0.4-0.8-0.5-1.2c-0.8-2.3-1.6-4.7-3.6-6.3c-0.5-0.4-1-0.9-1.4-1.4
			c-1-1.4-2.4-1.4-3.9-1.1c-0.5,0-0.8-0.2-1.1-0.5C368,227.3,368,226.7,368,226z"/>
		<path class="st121" d="M344,311c-0.7,1-1.3,2-2,3c-2.9-3.9,0.8-7.4,0.7-11.1c2.4-10.9,5.4-21.7,7.2-32.7c0.3-1.9,0.8-3.9,2.6-5.2
			c0.5-0.3,1-0.3,1.6,0c-1.5,11.7-4.8,23-7.3,34.4C345.9,303.3,344.9,307.1,344,311z"/>
		<path class="st122" d="M354,265c-0.3,0-0.7,0-1,0c-0.9-0.8-1.2-1.9-1.2-3c2.5-11.4,6.4-22.4,9.9-33.6c0.2-0.6,0.7-1.1,1.3-1.4
			c1-1.3,2-2.7,3-4c0.7,0,1.3,0,2,0c-0.7,1-1.3,2-2,3C360.5,238.5,357.3,251.8,354,265z"/>
		<path class="st123" d="M362,243c1.3-3.7,2.7-7.3,4-11c4.5-3.8,7-3.5,10,1.6c0.9,1.5,1.7,3.1,1.9,5c0.2,1.3,0.2,2.5-0.3,3.8
			c-0.2,0.4-0.6,0.7-1.1,0.9c-1.9-0.5-2.2-2.2-2.9-3.7c-0.7-1.5-1.1-3.4-3.1-3.5c-2.3-0.1-2.7,2.1-3.6,3.6c-1.2,1.9-1,4.6-3.6,5.6
			C362.2,244.9,362.1,244,362,243z"/>
		<path class="st19" d="M350,308c0-2,0-4,0-6c0-0.3,0-0.7,0-1c0.9-8.1,2.2-16.1,4-24c0-0.3,0-0.7,0-1c1.7-0.7-1.2-4.2,2.3-3.8
			c0.7,1.3,0,2.7,0.2,4.1c-1.9,6.5-0.2,13.5-3.5,19.8C350.9,299.7,352.1,304.3,350,308z"/>
		<path class="st124" d="M377,239c-0.2-0.8-0.4-1.6-0.7-2.3c-2.9-6.4-3.9-6.8-10.2-4.6c-0.3-1.8,1.4-2.6,1.9-4c0.3,0,0.7,0,1,0
			c2-1.2,3.5,0.1,5,1c0.3,0.3,0.7,0.7,1,1c1.7,2.5,2.8,5.3,4,8l0,0c0.6,0.7,0.5,1.6,0.6,2.4c-0.2,0.4-0.4,0.7-0.8,0.9
			C377.2,241.2,377.8,239.6,377,239z"/>
		<path class="st125" d="M362,243c0.8,0.4,0.9,1.2,1,2c0.8,0.8,0.9,1.8,0.8,2.9c-0.5,1.7-0.6,3.5-1,5.2c-1.7,3.5-1,7.8-3.7,11
			c-0.6,0.1-1.1,0-1.4-0.5c-0.6-3.4,0.8-6.4,1.3-9.6c-0.1-1.7,0.1-3.4,1-5C360.7,247,361,244.9,362,243L362,243z"/>
		<path class="st18" d="M354,277c-0.7,8.1-1.9,16.1-4,24c0-2,0-4,0-6C350.8,288.9,351.4,282.7,354,277z"/>
		<path class="st18" d="M359,254c0.7,3.4-1.1,6.6-1,10c0,0.2,0,0.4,0.1,0.6c0.1,1.4,0.1,2.8-0.4,4.2c-0.1,0.4-0.2,0.8-0.3,1.2
			c-0.3,0.8-0.5,1.6-1.4,2c-1.6,0.9-0.4,3.1-2,4C354.9,268.5,356.1,261.1,359,254z"/>
		<path class="st18" d="M361.9,243c0,2.2-0.5,4.3-1.9,6C359.9,246.8,360.1,244.6,361.9,243z"/>
		<path class="st126" d="M285,406c-0.1-2.3,2.3-3.2,3-5c9-10.3,17.5-21,24.2-33c5.5-9.8,10.6-19.8,14.7-30.2
			c1.8-4.6,3.4-9.2,5.1-13.8c0.8-2,0.9-4.1,2-6c0.7-2,0.5-4.3,2-6c0.9-1.6,1.2-3.4,2-5c0.4-6,3.2-11.4,5-17c0.5-0.3,0.9-0.3,1.3,0.1
			c1.6,5-2,9.2-2.3,13.9c-0.1,0.5-0.3,0.9-0.5,1.4c-1.3,2.1-1.4,4.6-1.9,6.9c-2.4,6.3-4.1,12.8-6.7,19c-3.9,7.2-6.1,15.1-9.7,22.4
			c-5.1,10.5-10.6,20.7-17.3,30.2c-4.7,1.4-5.6,6.3-8.4,9.4C293.6,397.8,289.5,402.1,285,406z"/>
		<path class="st84" d="M344,290c-0.3,0-0.7,0-1,0c0.3-1.7,0.7-3.3,1-5c-0.6-3.1,1.1-5.8,2-8.6c3.3-10.5,6.2-21.1,9.7-31.5
			c2.5-7.3,3.8-14.9,7.3-21.9c0,1.3,0,2.7,0,4c-3.3,11.7-8.1,22.9-10,35c-2.9,8-4.2,16.5-6.2,24.8C345.9,287.9,346.3,290.1,344,290z
			"/>
		<path class="st84" d="M334,318c-0.1,2.2-0.5,4.3-2,6C331.9,321.8,332.1,319.6,334,318z"/>
		<path class="st84" d="M338,307c0.1,2-0.4,3.7-2,5C335.9,310,336.4,308.3,338,307z"/>
		<path class="st127" d="M304,428c-0.7,0.3-1.3,0.7-2,1c-2.7,1-5.3,2-8,3c0.7-1,1.3-2,2-3c12-7.8,24.7-14.5,34.2-25.7
			c4.8-5.7,8.4-12,11.3-19c6.1-14.8,7-30.4,8.6-46c1.4-13.8,3.2-27.6,3.9-41.4c-0.3-3.5-0.6-7.1,2-10c0.7,6.4-1.3,12.6-1,19
			c-0.8,0.8-0.5,1.9-0.5,2.9c-0.3,19.1-1.1,38.2-2.1,57.3c-0.9,15.9-5.5,30.4-16.8,42.2c-5.8,6-13,9.8-20.2,13.6
			C311.5,423.9,307.8,426.1,304,428z"/>
		<path class="st128" d="M356,287c-1.7,3.1-0.9,6.7-2,10c-0.3,0-0.7,0-1,0c0-0.3,0-0.7,0-1c0.3-6.8,1.9-13.3,3-20
			c0.3-0.5,0.7-0.5,1,0C356.7,279.7,356.3,283.3,356,287z"/>
		<path class="st129" d="M354,229c0,1,0,2,0,3c0.6,0.5,0.7,1.2,0.5,1.9c-0.2,0.7-0.6,1.3-0.9,1.8c-1.5,2.3-2,5-3,7.6
			c-2,4-3.6,8.1-4.5,12.5c-0.3,1.1-0.8,2.2-1.3,3.2c-1.5,2-2.6,4.1-2.9,6.6c-0.1,0.4-0.3,0.9-0.5,1.3c-3,6.8-5.7,13.8-8.3,20.7
			c-0.2,0.4-0.4,0.8-0.7,1.2c-2.7,3.7-4.3,8-6.2,12.1c-0.4,1-0.4,2.4-2.1,2c-0.3-1-0.7-2-1-3c2.2-5.1,4.4-10.2,6.7-15.3
			c7.8-16.9,15.2-34,21.8-51.5C352,231.7,353.1,230.4,354,229z"/>
		<path class="st79" d="M324,303c3.6-4.5,3.7-10.9,8-15c1.2,1.3,1.2,2.7,0,4c-4.7,5.7-5.8,13.1-9.3,19.4c-1.1,2-1.4,4.5-3.7,5.6
			c0-0.3,0-0.7,0-1c-1.1-2.4,0.1-4.6,1.3-6.3c1.3-1.8,1.8-3.8,2.7-5.7C323.3,303.7,323.7,303.3,324,303z"/>
		<path class="st129" d="M323,304c0.6,4.7-4,7.5-4,12c-2.5,0.8-2.7,4-5,5C316.1,314.8,319.4,309.4,323,304z"/>
		<path class="st129" d="M314,322c0.2,3.4-3,5.2-4,8C309.3,326.3,312.2,324.4,314,322z"/>
		<path class="st130" d="M299,421c5.4-5.6,11.6-10.3,17.3-15.6c8.7-8.1,14.2-18.1,18.9-28.8c2.1-4.8,2.5-10.3,5.8-14.7
			c0.2,7.4-3.5,13.7-6.2,20.2c-6.9,16.3-18.9,28.4-33.5,38C300.6,420.6,299.8,420.7,299,421z"/>
		<path class="st130" d="M289,428c1.5-2.1,3.5-3.4,6-4C293.6,426.2,292.1,428.3,289,428z"/>
		<path class="st130" d="M278,437c1.2-1.9,2.5-3.8,5-4C281.8,434.9,280.5,436.8,278,437z"/>
		<path class="st130" d="M284,432c0.9-1.6,2-2.9,4-3C287.1,430.6,286,431.9,284,432z"/>
		<path class="st130" d="M273,443c0.1-2,1.4-3.1,3-4C275.9,441,274.6,442.1,273,443z"/>
		<path class="st130" d="M295,424c0.9-1.6,2-2.9,4-3C298.1,422.6,297,423.9,295,424z"/>
		<path class="st97" d="M252.2,419.7c-1-2.9,3.3-3.1,2.8-5.7c0.3-1.5,1.4-2.2,2.7-2.8c1-0.3,2-0.8,2.6-1.7c0.4-0.5,0.9-0.9,1.5-1.3
			c3.2-1.1,5.5-3.3,7.4-6c0.3-0.4,0.6-0.7,1-0.9c4.5-2.7,7.3-7.1,10.8-10.8c1.3-1.8,2.8-3.4,4.6-4.9c1.6-1.2,2.7-2.7,3.4-4.6
			c5-8.7,11.6-16.3,16.9-24.9c2.5-4,4.6-7.9,6.1-12.3c0.2-0.5,0.4-0.9,0.6-1.3c2.6-2.3,3-6.6,6.8-7.8c0.5,0,0.9,0.3,1.1,0.7
			c0.5,1.9-0.7,3.2-1.5,4.6c-0.7,1.7-1.3,3.3-2,5c-2,3.6-3.9,7.4-6,11c0,0.7,0,1.3,0,2c-5.3,6.4-9.5,13.5-14.2,20.2
			c-5.5,7.9-12.5,14.5-18.8,21.8c-6,3.4-10.6,8.6-15.9,12.9C259,415.4,255.5,417.4,252.2,419.7z"/>
		<path class="st97" d="M341,281c1.8,3.5-1,6-2,8.8c-3.8,10.8-8,21.5-12,32.2c-0.6,3.6-3.8,6.2-4,10c-1,1-0.4,3.6-3,3l0,0
			c-1.4-0.6-1.9-1.7-1.9-3.1c2.7-6.8,6.6-13,9-19.9c2.5-7,5.1-14,7.8-20.9C336.3,287.4,336.8,283,341,281z"/>
		<path class="st20" d="M278,400c2.3-5.5,7-9,10.8-13.3c6.5-7.5,11.8-15.8,17.4-24c1.2-1.8,2.2-4.1,4.8-4.7
			C301.8,373.4,292.2,388.5,278,400z"/>
		<path class="st20" d="M311,356c1-4.2,3-7.9,6-11C316.2,349.3,314.3,353,311,356z"/>
		<path class="st20" d="M320,335c1-1,2-2,3-3c-0.2,3.2-1.4,6-4,8C319.3,338.3,319.7,336.7,320,335z"/>
		<path class="st131" d="M341,281c-4.8,8.7-7.4,18.3-10.9,27.6c-3,8-6.3,16.2-11.1,23.4c-1.8,3.8-3.6,7.5-6,11
			c-0.7,2.3-2,4.3-3.2,6.3c-0.6,1.1-1.6,1.6-2.8,0.7c0-0.7,0-1.3,0-2c-0.1-3.5,2.5-6,4-8.7c5.8-10.4,11.3-20.8,15.4-32
			c0.7-1.8,1.7-3.6,2.6-5.3c0.8-1.3,0.9-2.9,2-4c0.3-1.7,0.7-3.3,1-5c3.4-10,8.4-19.5,11.1-29.8c1.7-5.3,4.7-10,5.7-15.5
			c0.1-0.5,0.2-0.9,0.3-1.4c0.7-1.6,1.8-3.1,2-5c0.1-0.4,0.3-0.8,0.6-1.2c1-2,1.2-4.3,2.3-6.2c0-0.7,0-1.3,0-2c0.7-0.7,1.3-1.3,2-2
			c0.9-0.5,0.1-2.6,2-2c-1.4,7.8-4.4,15.2-6.9,22.6C347.8,260.8,345.2,271.2,341,281z"/>
		<path class="st85" d="M344,263c-0.9,6.6-3.4,12.9-6.4,18.7c-1.9,3.7-1.6,8.6-5.6,11.3c0-0.3,0-0.7,0-1c0-1.3,0-2.7,0-4v0
			c3.5-7.1,6.3-14.5,9-22v0c1-0.9,0.8-2.7,2.3-3.2C343.6,262.9,343.8,262.9,344,263z"/>
		<path class="st85" d="M331,298c-0.2,1.6-0.7,3-2,4C328.9,300.3,329.2,298.8,331,298z"/>
		<path class="st132" d="M344,303c-0.1,3.8-2.7,7.1-2,11c-1.5,1.1-0.9,2.6-1,4c-1.9,7-4.2,13.9-6,21c-1.7,4.3-3.3,8.7-5,13
			c-3.2,3.1-3.2,8.2-7,11c0-0.7,0-1.3,0-2c0-0.2,0-0.4-0.1-0.7c0.1-1.8,0.8-3.5,1.4-5.2c2.4-5.4,4-11.1,6.8-16.3
			c1-2.1,1.6-4.4,1.8-6.8c0.2-1.2,0.9-2.2,1.3-3.3c1.1-1.9,1.4-4,1.8-6.1c0.2-2.5,1.4-4.6,2.1-6.9c1.2-1.6,1.7-3.5,1.9-5.5
			c0-1.8,0.2-3.6,1-5.2v0c0.4-0.4,0.6-1,0.9-1.5C342.5,302.9,343.1,302.4,344,303z"/>
		<path class="st121" d="M335,339c0.8-7.3,3.3-14.2,6-21C340.2,325.3,337.7,332.2,335,339z"/>
		<path class="st85" d="M358,228c-0.7,0.7-1.3,1.3-2,2c0-2.8,1.2-5,3-7C358.8,224.7,359.7,226.6,358,228z"/>
		<path class="st132" d="M312,384c1.5-4.5,2.3-9.4,7-12C317.7,376.6,315.4,380.6,312,384z"/>
		<path class="st132" d="M320,370c0-2.5,0.7-4.7,3-6C323,366.5,322.3,368.7,320,370z"/>
		<path class="st133" d="M306,384c1.3-5.1,4.7-9,7.2-13.5c6.4-11.3,12.1-23,16.2-35.4c0.5-1.5,1.1-3.1,2.5-4.2
			c0.9,0.7,0.9,1.8,0.9,2.8c0,0.5-0.1,1-0.3,1.5c-3.1,7.2-5.9,14.5-8.9,21.7c-0.8,3.4-4.5,5.2-4.7,9c-2.8,4.7-5.7,9.3-8.5,14
			c-0.9,1.6-1.8,3.2-3.5,4C306.7,384,306.3,384,306,384z"/>
		<path class="st134" d="M319,366c-0.7-3.9,2.8-6,4-9c0.2,0.2,0.3,0.4,0.5,0.5c0,1.2,0.3,2.4-0.5,3.5
			C320.6,361.8,320.4,364.4,319,366z"/>
		<path class="st135" d="M387,295c-2.5-2.6,0.5-6.4-2-9c0-0.7,0-1.3,0-2c-1.3-2.2,0.4-4.8-1-7c0-1,0-2,0-3c-1-3.6-2.4-7.2-1-11
			c2.7,8.1,3.2,16.6,4,25C387.8,290.3,387.8,292.7,387,295z"/>
		<path class="st39" d="M383,263c-0.6,3.8,1,7.3,1,11c-0.3,0-0.7,0-1,0c-0.3-3-1.5-5.9-1-9c-0.6-0.6-0.6-1.3-0.3-2
			C382.2,262.7,382.6,262.7,383,263z"/>
		<path class="st39" d="M384,277c1.9,2.1,0.6,4.7,1,7C383.1,281.9,384.4,279.3,384,277z"/>
		<path class="st136" d="M307,350c3.5-1.1,3.3-5.2,6-7c-0.3,4.6-2.4,8.4-4.9,12c-5.8,8.4-11.7,16.7-17.5,25.1
			c-0.4,0.5-0.4,1.2-0.6,1.9c-1.8,0.9-2.8,2.6-4,4c-1.3,1.7-2.7,3.3-4,5c-4.6,3-7.3,8.1-12,11h0c-2.3,2.7-5.1,4.9-8,7
			c-0.3,0.3-0.7,0.7-1,1c-0.8,1-2.1,1.2-3,2c-1,0.7-2,1.3-3,2c-1.7,0.2-2.9,2.9-5,1c4.1-5.7,10.4-8.9,15.6-13.3
			c10.4-8.9,19.5-18.7,27.5-29.7C298.3,364.9,303.5,358.1,307,350z"/>
		<path class="st137" d="M230,387.1c-0.8,1.7-2.6,2.1-4,2.9c-1.3-3-1-5.8,0.2-9c1.9-5.2,3.1-10.7,3.7-16.2c1.6-13.4,2.7-26.9,4-40.4
			c0.1-1.5-0.4-3-0.2-4.4c0.3-2.7,1.5-3.1,3.3-1c0.7,9.7-1.5,19.1-1.8,28.7c0,1.1-0.3,2.3,0,3.4c0.2,1.9,0.3,3.8-0.1,5.7
			c-0.4,7.8-2.9,15.3-4,23C230.7,382.2,231.6,384.8,230,387.1z"/>
		<path class="st138" d="M240,320c1,0.4,1.9,0.7,2.9,1.1c0.4,0.5,0.3,1-0.2,1.4c-2.4,0.9-2.1,2.9-2.2,4.9
			c-0.8,17.3-1.6,34.6-3.2,51.9c-0.1,1.3-0.5,2.6-1.3,3.7c-1,0.7-2,1.3-3,2c-1.5-1.4-1.6-3.3-1.2-5c0.9-3.8,0.5-7.8,1.2-11.6
			c0.5-1.7,0.5-3.5,0.6-5.2c1.5-5,1.5-10.1,1.4-15.3c0.6-8.2,1.3-16.3,1.5-24.5c0-1.3,0-2.7,1.5-3.4C238.7,320,239.4,320,240,320z"
			/>
		<path class="st139" d="M238,320c-2.2,5.8-0.9,12-1.2,17.9c-0.2,3.4-0.5,6.7-0.8,10.1c-0.9,0.9-0.3,2.7-2,3c0-3.2-0.6-6.5,0.1-9.5
			c1.9-7.4-0.1-15.3,2.9-22.5C237.3,319.3,237.7,319.7,238,320z"/>
		<path class="st119" d="M282,450c-2.8,2.1-3.4,5.1-2.7,8.2c0.4,1.9,0.7,3.8,0.7,5.8c-0.2,0.1-0.4,0.1-0.6,0.2
			c-1-0.4-0.7-1.6-1.4-2.2l0,0c-1.1-4.4-1-8.8,1-13l0,0c0.9-0.8,1.1-2.7,3-2C282,448,282,449,282,450z"/>
		<path class="st4" d="M282,447c-1,0.7-2,1.3-3,2c2.5-4.9,6.1-8.5,11-11c-1.7,2-3.3,4-5,6C283.7,444.7,282.7,445.7,282,447z"/>
		<path class="st140" d="M383,249c2.3,9.7,4.7,19.3,7,29c3.8,18,7.1,36,10.1,54.1c2,12.1,4,24.2,6.6,36.2c0.4,1.9,1,3.9-0.6,5.7
			c-0.4,0.8-1.2,1-2,1c-2.3-7.2-4.2-14.6-4.8-22c-0.7-8.7-2.8-17.2-3.7-25.9c-1.5-12.9-3.6-25.7-5.4-38.6c-0.4-2.6-0.7-5.2-2-7.5
			c-2-10.7-4-21.3-6-32C382.3,248.6,382.7,248.6,383,249z"/>
		<path class="st141" d="M397,374c-2.6-4.8-2-10.2-2.8-15.3c-1-6.5-0.8-13.1-1.2-19.7c2,6.4,1.6,13.2,2.9,19.8
			C396.9,363.8,397.3,368.9,397,374z"/>
		<path class="st68" d="M387,295c0-2.3,0-4.7,0-7c2.1,9.2,3.3,18.5,3,28c0,0,0,0,0,0c-2.5-0.2-1.2-2.1-1.4-3.3
			c-0.4-1.9,0.5-3.9-0.6-5.7C387.8,303,386.4,299.1,387,295z"/>
		<path class="st123" d="M382,263c0,0.7,0,1.3,0,2c-0.3,0-0.7,0-1,0c-2-2.7-1.8-6.2-3-9.2c-0.3-2.6-1-5.2-1.6-7.7
			c-0.4-1.8-0.9-3.5,0.5-5.1l0,0c2.7,0.3,2.6,2.6,3,4.3c0.4,1.9,0.1,3.9,1,5.7c0,0.3,0,0.7,0,1C381.2,257,383.3,259.8,382,263z"/>
		<path class="st135" d="M381,253c-2.5-2.8-1.4-7.2-4-10c0-1.3,0-2.7,0-4c0.7,0.7,1.3,1.3,2,2c1.5,1.7,1.6,4,2.6,5.9
			c0.1,0.8,0,1.5-0.6,2C381,250.3,381,251.7,381,253z"/>
		<path class="st135" d="M382,263c-0.3-3-0.7-6-1-9c1.7,2.8,2.1,5.8,2,9C382.7,263,382.3,263,382,263z"/>
		<path class="st142" d="M381,249c0-0.7,0-1.3,0-2c-0.7-1-0.7-2,0-3c1.6,1.3,2.1,3.1,2,5c-0.3,0-0.7,0-1,0
			C381.7,249,381.3,249,381,249z"/>
		<path class="st143" d="M225,319c-1.4,15.2-3.6,30.3-8,45c-1.3,0.6,0.6,3.3-2,3c1.5-7.4,2.9-14.8,4.6-22.1
			c1.9-8.2,2.9-16.5,3.4-24.8C223.7,319.7,224.3,319.4,225,319z"/>
		<path class="st144" d="M218,394.9c-0.3-0.3-0.7-0.6-1-0.9c0-0.3,0.1-0.6,0.1-0.9c1.6-0.3,3.3-0.7,4.9-1c0,0.3,0,0.6-0.1,0.9
			c-0.7,1.9-2.1,2.4-3.9,2.2L218,394.9z"/>
		<path class="st145" d="M281,284c0.6,0,1.3-0.1,1.9-0.1c0.1,0.2,0.2,0.4,0.3,0.6c-0.3,1.8-2,2.4-3.1,3.5c-3.7,2.6-6.6,7-12.1,6
			c0-0.4,0-0.7,0-1.1C272.3,290,276.7,287,281,284z"/>
		<path class="st146" d="M388,307c2.5,2.6-0.5,6.4,2,9c0,13,1.3,25.9,2.7,38.8c0.9,8,1.2,16,2.2,24c-4.6-2.4-3.6-7.1-3.7-10.9
			c-0.4-10.3-1-20.5-1.4-30.8C389.4,327.1,387.9,317.1,388,307z"/>
		<path class="st88" d="M215,367c0.7-1,1.3-2,2-3c-1.4,7.8-3.5,15.4-8,22l0,0c-1.2-4.3,2.8-7.1,3-11c0-0.3,0-0.7,0-1
			C213,371.7,214.1,369.4,215,367L215,367z"/>
		<path class="st143" d="M212,375c0.5,4.1-2.6,7.2-3,11c-0.7,0.7-1.3,1.3-2,2C207.1,383.1,209.8,379.1,212,375z"/>
		<path class="st143" d="M215,367c0,2.8-1.2,5-3,7C212,371.2,213.2,369,215,367z"/>
		<path class="st147" d="M395,294c-2.1-13.7-5.3-27.2-9-40.5c-1.1-4.1-3.1-8.1-3-12.5c3.7,7.8,5.8,16.1,7.9,24.3
			c4,15.9,7.8,31.8,11.7,47.7c0.8,3.3,0.1,7,2.5,10c-0.4,4.9,0.7,9.4,2,14.1c1.8,6.4,2.2,13.4,4.6,19.5c2.4,6,3.2,12.4,5.3,18.4
			c-1.3-0.1-2.7-0.1-4-0.2c-3.6-5-4-11.1-5.3-16.8c-3.4-14.1-5.9-28.5-9.5-42.6c-0.3-1-0.4-2.1-0.5-3.1c0.1-2.8-0.8-5.4-1.5-8.1
			c-0.2-0.5-0.3-1-0.3-1.5C395.3,299.9,396.1,296.8,395,294z"/>
		<path class="st148" d="M301,271c7-7.3,14-14.6,21-22c2.9-3.4,5.8-6.7,8.5-10.3c1-1.4,2.3-3.5,4.3-2.6c1.8,0.9,0.5,3,0.3,4.5
			c-0.1,0.5-0.2,0.9-0.4,1.3c-0.5,1.1-1.1,2.1-2.4,2.3c-4.4,1.3-6.6,5.3-9.5,8.3c-3.4,3.6-6.8,7.2-10.1,10.9c-3.3,2.9-5.9,6.5-9.7,9
			c-0.7,0.2-1.4,0.2-2.1-0.3C300.6,271.8,300.6,271.4,301,271z"/>
		<path class="st149" d="M334.1,241.1c0.2-1.4,0.3-2.8,0.6-4.6c-5.4,3.2-7.5,9.4-12.6,12.5c3.1-5.4,7.3-10,11-15
			c1.4-0.6,2.3-1.7,3-3c0.8,0.4,1,1.2,1.1,2.1C338.4,236.6,337.8,239.4,334.1,241.1z"/>
		<path class="st150" d="M301,271c0,0.4,0,0.7,0.1,1.1c0.5,2-0.9,3.1-2.2,3.9c-2.5,1.5-4.4,3.8-6.7,5.5c-0.7,0.2-1.4,0.2-2.1-0.2
			c-1-2,1.1-2.3,1.9-3.4c0.7-0.9,1.5-1.9,2.2-2.8C297.4,275.4,298.5,272.1,301,271z"/>
		<path class="st119" d="M280,464c2.4,3,5.5,5.7,5.9,9.9c-2.9-1.5-4.1-4.4-5.9-6.9C279.3,466,279.2,465,280,464L280,464z"/>
		<path class="st4" d="M279,449c-1,4.3-1.1,8.6-1,13C275.6,457.5,276,453.1,279,449z"/>
		<path class="st4" d="M280,464c0,1,0,2,0,3c-1.6-1.3-2.1-3-2-5C278.7,462.7,279.3,463.3,280,464z"/>
		<path class="st151" d="M251,369.9c-2.7,1.6-3.2,5.7-7,6.1c-0.9-4.2-0.4-8.6-0.1-12.8c0.9-10.8,0.4-21.5,0.5-32.3
			c0-3.3,0.3-6.2,4.8-5.5c0.9,0.1,1.7,0.3,2.5,0.7c1.4,0.9,2.8,1.9,2.4,3.9c-0.4,0.4-0.8,0.7-1.3,0.9c-3,1.8-2.7,4.9-2.3,7.5
			c1.6,9.8,0,19.7,0.9,29.5C251.4,368.7,251.2,369.3,251,369.9z"/>
		<path class="st152" d="M250,327c-3.1-1.2-4.5-0.2-4.3,3.2c0.4,11.1,0.8,22.2-0.4,33.3c-0.4,4.1,0.8,8.5-1.2,12.5
			c-0.7,0.7-1.3,1.3-2,2c-2.4-1.8-1.9-4.5-1.8-6.9c0.5-14.2,0.9-28.3,1.4-42.5c0.1-1.7,0-3.3,1.2-4.7c0.7-0.6,1.5-0.9,2.3-0.9
			c0.5,0,1.1,0.1,1.6,0.2C248.4,324,250.4,324.5,250,327z"/>
		<path class="st153" d="M251,369.9c-2.1-4-1.6-8.2-1-12.5c0.9-7.5-1.4-14.9-0.8-22.3c0.1-2-1.5-6.6,3.9-5.1
			c0.7,0.8,1.2,1.7,1.2,2.7c0.1,11.4,0.7,22.9-0.2,34.3c-0.7,1-1.3,2-2,3C251.7,370,251.3,370,251,369.9z"/>
		<path class="st154" d="M244,324c-2.4,3.6-1.3,7.8-1.5,11.6c-0.8,13.8-0.5,27.6-0.6,41.4c0,0.3,0.1,0.7,0.1,1c-0.7,1-1.4,1.9-2,2.9
			c-0.6,0-1.3,0.1-1.9,0.1c-1.7-1.9-1.2-4.2-0.9-6.2c2.2-15.8,2.3-31.7,3.1-47.5c0.1-1.9,0.3-3.7,2.3-4.6
			C243.5,322.4,244,322.9,244,324z"/>
		<path class="st155" d="M234,368c0.7,5.7-1.3,11.3-1,17c-0.7,0.7-1.3,1.3-2,2c-0.3,0-0.6,0-1,0.1c0.1-2.4-0.9-4.7,0-7.1
			c0.6-3.5,2.5-6.6,2.3-10.3C232.2,368.9,232.6,367.7,234,368z"/>
		<path class="st156" d="M218,395.2c1.3-0.7,2.6-1.5,3.9-2.2c1,1.5,3.5,1,4.1,3.1C223.4,395.6,220.5,396.8,218,395.2z"/>
		<path class="st157" d="M244,324c-0.7-0.7-1.4-1-1.9,0.1c-0.8,2-1.2,4.1-1.2,6.3c0.3,13.2-1,26.3-2,39.3c-0.3,3.8-1.3,7.5-0.9,11.3
			c-0.7,0.6-1.4,1.3-2,1.9c1-17.6,2-35.3,3.2-52.9c0.1-1.5,0-3-0.2-4.4c-0.5-3.4,0.5-5.1,4.2-3.8c2-0.8,2.9,0,2.9,2
			C245.4,324,244.7,324,244,324z"/>
		<path class="st158" d="M334.1,241.1c2-2.3,2.6-5.1,3-8c0.8-0.5,1-1.2,1-2c2.1-1.2,1.7-3.8,3.1-5.4c0.7-0.8,1.4-2.2,2.7-1.6
			c1.2,0.6,0.8,1.9,0.3,3c0,0.7,0,1.3,0,2c-4.3,8.3-8,17-13.1,24.9c-1.5,0.3-1.6-0.8-1.9-1.8c-0.1-2.1,0.7-3.9,1.8-5.6
			c1.3-1.3,2.6-2.6,3.1-4.5C334,241.7,334,241.4,334.1,241.1z"/>
		<path class="st159" d="M344,227c-0.2-0.8-0.4-1.5-0.6-2.3c-0.6,0.5-1.4,0.8-1.9,1.4c-1.2,1.7-0.7,4.4-3.6,4.9
			c1.1-3.3,2.3-6.6,5.3-8.9c1.3-1,2.3-1.5,2.7,0.8C344.4,223.9,345.6,226.1,344,227z"/>
		<path class="st160" d="M246,318c-1.9-1.3-4.2-2.5-3.9-5.2c0.4-2.7,3.3-2.9,5.3-3.7c3.7-1.4,7.5-2.4,10.6-5
			c2.3-2.8,5.9-3.3,8.8-4.9c1-0.2,2-0.1,2.8,0.5c1.2,2.3-1,2.9-2.1,4c-1.2,0.8-2.4,1.5-3.7,2.1c-2.9,1.2-6,1.9-8.3,4.2
			c-1.3,1.1-2.8,1.8-4.3,2.2C248.1,312.9,246.3,314.7,246,318z"/>
		<path class="st161" d="M267,300c-2.7,1.9-5.8,3.1-9,4c-0.7,0-1.4,0-2,0c-0.5-1.7,1.2-1.8,2-2.5c5.6-4,12.1-6.6,17.9-10.3
			c0.7-0.4,1.5-0.7,2.3-0.3c1.2,3.4-2,4-3.6,5.5C272.1,297.9,269.6,299,267,300z"/>
		<path class="st162" d="M246,318c-1.3-3.4-1.3-5.9,3.4-6.4c1.9-0.2,3.8-1.7,5.6-2.6c1.6-1.2,3.3-1.8,5.3-1.6c0.5,0.2,0.8,0.5,0.9,1
			c-1.3,3-3.9,4.2-6.8,5c-3.5,0.9-5.8,2.7-5.3,6.7c-0.4,0.3-0.8,0.3-1.2,0C247.3,319.3,246.7,318.7,246,318z"/>
		<path class="st102" d="M258,302c-0.7,0.7-1.3,1.3-2,2c-4.5,0.8-8.2,4.3-13,4c3.7-3.4,8.8-3.7,13-6
			C256.7,301.4,257.3,301.4,258,302z"/>
		<path class="st163" d="M246.1,324c-0.7-1.1-1.6-1.8-2.9-2c-0.1-0.3-0.1-0.6-0.3-0.9c0.8-0.1,1.6-0.2,2-1c1,0.4,2,0.7,3,1.1
			c1.2,0.3,1.6,1.1,1.5,2.2c-0.6,1-1.3,1.5-2.3,0.6l-0.5,0L246.1,324z"/>
		<path class="st164" d="M249.1,322.8c-0.4-0.6-0.8-1.1-1.2-1.7c0-0.4,0-0.7,0-1.1c0.3,0,0.7,0,1,0c0.7,0,1.3,0.4,1.8,0.8
			c0.7,1,2.3,1.9,1,3.5C250.3,324.8,249.5,324.1,249.1,322.8z"/>
		<path class="st165" d="M258,302c-0.7,0-1.3,0-2,0c1.3-1,2.7-2,4-3c2.7-1.6,5.4-3.3,8-4.9c4.7-1.1,8.2-4.4,12-7
			c0.8-0.7,1.7-0.6,2.7-0.4c0.7,0.6,0.5,1.2,0,1.7c-1.3,0.8-2.5,1.8-3.5,2.8c-0.4,0.2-0.8,0.2-1.2-0.1
			C271.3,294.7,264.7,298.4,258,302z"/>
		<path class="st145" d="M286,281c0.3,0,0.7,0,1,0c0,2.8-1.1,4-4,3.1c0,0-0.1-0.1-0.1-0.1C283.7,282.7,284.7,281.7,286,281z"/>
		<path class="st166" d="M283,284.1c1.9-0.2,3.1-1.5,4-3.1c1-1,2-2,3-3c0.6,0,1.3-0.1,1.9-0.1c-0.6,1-1.3,2.1-1.9,3.1
			c-0.5,2.1-2.3,3.2-3.4,4.8c-1,0.9-2,1.9-3.6,1.2c-1,0-2,0-2.9,0C281,286,282,285,283,284.1z"/>
		<path class="st167" d="M406,374c-2.1-11.5-4.3-23-6.3-34.5c-2.4-14.3-4.3-28.7-6.8-43c-1.1-6.2-3-12.2-2.9-18.5
			c2.5,5.5,2.9,11.5,4,17.4c0.2,1,0.1,2,1,2.6c1.4,1.4,0.8,3.3,1.5,4.9c0.3,1.7,0.4,3.4,1,5c0.3,0.7,0.5,1.4,0.5,2.1
			c0,2.2,0,4.4,1.5,6.3c0,1.3,0.6,2.5,0.6,3.7c-0.2,1.9,0.4,3.6,0.9,5.4c2.6,12.6,5,25.3,8,37.8c0.9,3.8,2.8,7.5,1.2,11.5
			C408.6,375.2,407.3,374.7,406,374z"/>
		<path class="st168" d="M410,374.8c-3.2-15.1-6.5-30.2-9.7-45.4c-0.3-1.4-0.2-3-0.3-4.4c-1.2-1.5,0.2-3.5-1-5c0-1.3,0-2.7,0-4
			c-0.3-0.2-0.4-0.4-0.3-0.7c0.1-0.2,0.2-0.3,0.3-0.3c2.9,4.5,2.6,9.8,3.9,14.7c3.1,12.1,4.8,24.5,8.3,36.4c0.8,2.8,1.3,5.8,1.9,8.7
			C412,374.8,411,374.8,410,374.8z"/>
		<path class="st1" d="M284,331c-1.8,2.1-3.8,4.1-4.9,6.8c-1,2.4-2.7,3.1-5.1,2.2c-1.8,0.8-2.9-0.5-4.3-1.2
			c-1.1-0.8-2.2-1.4-3.3-2.2c-2.5-1.6-4.7-3.5-6.4-6c-1.1-1.8-3.2-2.8-4.2-4.8c-2.2-3.2-1.5-5.5,2.1-7c4-1.7,7.8-3.6,12.2-4.1
			c6.4-0.7,11.8-4.5,17.7-6.6c3.6-1.3,7-1.9,10.6-1.6c0.5,0.2,0.8,0.6,0.9,1.1c-1.1,3.4-3.5,6.3-4.7,9.7
			C291.1,321.7,288.9,327.4,284,331z"/>
		<path class="st169" d="M263,357c-1.7,2-3.3,4-5,6c-4.6-4.3-2.9-9.9-2.9-15c0-3,0.7-5.9,0.3-8.9c-0.4-3.1,0.8-5.2,3.9-5.9
			c3.1-0.3,4.8,2.1,7,3.5c0.7,0.8,1.3,1.6,0.6,2.7c-2.5,0.2-4.1,0.7-3.8,4C263.4,347.8,263.8,352.4,263,357z"/>
		<path class="st170" d="M263,357c-2.4-5.9,0-12.2-1.6-18.2c-0.3-1.1,1.2-2,2.5-1.2c1,0.6,1.9,1.4,3.1,1.3c0.6-0.6,1.2-0.6,1.9-0.4
			c1.6,1.2,3.5,2.2,5.1,3.5c0.6,0.4,0.9,1.2,0.5,1.7C270.4,347.9,267.8,353.4,263,357z"/>
		<path class="st171" d="M260.1,334c-2.9,0.6-4.3,1.9-3.3,5.2c1.4,4.7-0.8,9.4-0.5,14.2c0.2,3.4,1.4,6.4,1.7,9.6c-1,1.7-2.3,3.1-4,4
			c-1.9-4.6-0.9-9.4-1.2-14.1c-0.5-7.6,0.1-15.2,0.2-22.9c0.3,0,0.7,0,1,0c2.1-0.7,3.5,0.6,5.1,1.5
			C259.9,332.2,260.5,332.9,260.1,334z"/>
		<path class="st110" d="M284,331c3.1-4.8,6-9.8,10-14c1-0.4,1.7-1.7,3-1c-2.5,5.9-7.1,10.4-10.9,15.4
			C285.4,332.3,284.3,333.4,284,331z"/>
		<path class="st107" d="M297,316c-1.1,0-1.5,2.2-3,1c0.8-3.5,2-6.7,5-9c0.9-0.1,1.5,0.3,2,1c0.2,2.6-3.2,3.4-3,6
			C297.7,315.3,297.3,315.7,297,316z"/>
		<path class="st172" d="M274.1,342c-2.5,0.4-3.9-1.2-5.3-2.9c0.1-0.7,0.5-1.1,1.2-1.2c1.3,0.7,2.6,1.4,3.9,2.1
			C274,340.7,274.1,341.3,274.1,342z"/>
		<path class="st173" d="M330,251.9c0.1,0.8,0.2,1.6,1,1.9c0,0.7,0,1.4,0,2.1c-1.2,0.6-2,1.6-1.9,3.1c-0.3,0.3-0.7,0.7-1,1
			c-1.5,0.3-1.7-0.8-2-1.8c-0.3-1.9,0.2-3.6,1.3-5.2C328,252.2,328.8,251.5,330,251.9z"/>
		<path class="st112" d="M301,309c-0.8,0-1.6-0.2-2-1c0-0.3,0-0.7,0-1c0.8-3.4,2.3-6.4,5.3-8.3c2,0.7,2.5-2.8,4.7-1.7
			c-1.2,4.4-5.9,6.5-7,11C301.7,308.3,301.3,308.7,301,309z"/>
		<path class="st109" d="M309,297c-1.6,0.1-1.8,3-4,2c-1.1-3.5,0.5-5.7,3.5-7.3c1.4,0.2,1,1.5,1.5,2.3c0,0.7,0,1.3,0,2
			C309.7,296.3,309.3,296.7,309,297z"/>
		<path class="st174" d="M324,270c-0.7,1-1.3,2-2,3c-1.2,1.4-2.1,3.7-4.3,1.1c-0.3-1.2,0.2-2.3,0.6-3.4c1.4-2.6,2.7-5.3,3.9-8
			c1-1.5,1.3-3.5,3.5-4c2.9,2-1.5,4.2,0.2,6.2C325.3,266.6,324.6,268.3,324,270z"/>
		<path class="st175" d="M326,265c-0.8,0.2-2.2,1-1.5-0.9c0.6-1.7,1.7-3.2,1.4-5.1c-0.2-0.8,0.2-1.2,1-1.1c0.1,0.9,0.2,1.7,1.1,2.1
			C327.4,261.7,326.7,263.3,326,265z"/>
		<path class="st111" d="M314,282.9c0.1,0.8,0.2,1.6,1,2.1c-1,1.7-2,3.3-3,5c0,0,0,0,0,0c-1.5,0.3-1.7-0.8-2-1.8
			c-0.2-1.3,0.1-2.5,0.9-3.6C311.8,283.8,312.5,282.6,314,282.9z"/>
		<path class="st108" d="M318.1,274c1.7,1.4,2.6-0.5,3.9-1c0,0.3,0,0.7,0,1c-1.7,2.3-3.3,4.7-5,7c-0.8-0.5-1-1.2-1.1-2.1
			C314.8,276.5,315.9,275,318.1,274z"/>
		<path class="st176" d="M311,288c0,0.8,0.2,1.6,1,2c0.2,1.7-1.4,2.6-2,4c-0.8-0.4-1-1.2-1-2C307.8,289.7,308.1,288.2,311,288z"/>
		<path class="st177" d="M318.1,274c-0.9,1.6-2,3.1-2.2,4.9c-1.2,1.1-1.8,2.4-2,4c-0.7,0.7-1.3,1.3-2,2c-2.3-1.6-4-0.2-5.8,1.1
			c-6.7,4.7-13,9.9-19.8,14.4c-9.5,6.3-19.7,11.1-30.2,15.3c-2.9,1.1-4.4,2.5-5,5.4c-0.4,0.3-0.8,0.3-1.2-0.1c-0.3-0.3-0.7-0.6-1-1
			c-2.6-4-0.4-5.9,3.2-7.1c3.3-1,6.4-2.3,8.8-5c12.9-6.3,24.7-14.1,35.4-23.7c6.3-4.5,10.9-10.9,17.5-15c3.2-2,4.5-1.5,5.1,1.8
			C318.7,272,318.4,273,318.1,274z"/>
		<path class="st67" d="M304,428c4.4-5,10.9-6.7,16.3-10c8.1-5,15.6-10.6,20.8-18.7c6.3-9.9,9-21.1,10-32.7
			c1.7-19.5,2.6-38.9,3-58.4c0-0.7,0.6-1.5,0.9-2.2c0,21.8-0.7,43.6-1.3,65.4c-0.4,16.3-5.7,31.8-20.4,41.6
			c-7.5,5-15.4,9.5-23.9,12.9C307.6,426.6,306.3,428.4,304,428z"/>
		<path class="st178" d="M359,264c0.8-3.7,0.7-7.7,3-11c0.2,0.2,0.4,0.4,0.6,0.6c0.3,0.5,0.4,1,0.5,1.5c-0.5,5-1.1,10-2.6,14.8
			c-0.4,0.5-0.9,0.5-1.4,0.2c0-0.3,0-0.7,0-1C357.7,267.3,357.8,265.7,359,264z"/>
		<path class="st179" d="M359,287c0-3,0-6,0-9c0-1,0-2,0-3c0.6-0.3,1.1-0.2,1.5,0.3c0.8,1.3,0.8,2.7,0.9,4.2
			c-0.3,3.7,0.7,7.6-0.8,11.2c-0.4,0.5-0.9,0.7-1.5,0.5C358.3,289.8,358.3,288.4,359,287z"/>
		<path class="st125" d="M357,276c-0.3,0-0.7,0-1,0c0-1.3,0-2.7,0-4c0-0.8,0.2-1.6,1-2c0.8,1.3,0.7,2.7,0,4
			C357,274.7,357,275.3,357,276z"/>
		<path class="st128" d="M359,264c0,1.7,0,3.3,0,5c-0.3,0-0.7,0-1,0c-0.1-0.2-0.3-0.4-0.4-0.6c0.1-1.5-0.5-3,0.4-4.4c0,0,0,0,0,0
			C358.3,264,358.7,264,359,264z"/>
		<path class="st128" d="M357,274c0-1.3,0-2.7,0-4c0-0.3,0-0.6,0-1c0.3-0.4,0.7-0.5,1,0c0,0,0,0,0,0
			C357.8,270.7,358.6,272.6,357,274z"/>
		<path class="st117" d="M360,275c-0.3,0-0.7,0-1,0c0-1.7,0-3.3,0-5c0.3,0,0.7,0,1,0c0.4,0.3,0.7,0.8,0.9,1.3
			C361.2,272.7,361.1,274,360,275z"/>
		<path class="st180" d="M359,287c0,1.3,0,2.7,0,4c1.3,1.4,1.3,3.1,1.4,4.8c-0.1,9.5-0.4,19,1.1,28.3c0.8,4.9,1.7,9.8,3.8,14.3
			c1.9,4,4.4,4.2,6.9,0.3c3.6-5.7,4.4-12.1,4.5-18.6c2.2-13.4,2.1-26.9,2-40.3c0-2.5-0.4-5,0.8-7.4c0.4-0.6,0.9-0.8,1.6-0.5
			c0,1,0,2,0,3c0,13,0,26,0,39c-1.6,4.7-1.2,9.7-2.1,14.4c-1.3,7-1.8,14.3-6.2,20.4c-3.2,4.4-5.2,4-8.6-0.1
			c-2.8-3.4-0.8-8.1-4.2-10.8c-2.5-16-2-32.2-2-48.3C358,288.6,358.1,287.7,359,287z"/>
		<path class="st117" d="M381,272c-0.3,0-0.7,0-1,0c-2.9-3.5-2.3-7.8-2.4-11.9c0.1-1.5,0.1-3,1.4-4.1c1.7,2.8,2,5.8,2,9
			C381,267.3,381,269.7,381,272z"/>
		<path class="st168" d="M396,303c-1-1.5-1.1-3.2-1-5c0-1.3,0-2.7,0-4c1.7,2.8,2.1,5.8,2,9C396.7,303.5,396.3,303.5,396,303z"/>
		<path class="st142" d="M379,238c-2-2.3-3.2-5-4-8C377.6,232,378.8,234.8,379,238z"/>
		<path class="st124" d="M381,244c0,1,0,2,0,3c-1.5-1.7-1.9-3.8-2-6c0,0,0,0,0,0c1.9-0.6,1.1,1.6,2,2C381,243.3,381,243.7,381,244z"
			/>
		<path class="st142" d="M381,243c-0.7-0.7-1.3-1.3-2-2c0-1,0-2,0-3C380.6,239.3,381.1,241,381,243z"/>
		<path class="st142" d="M374,229c-1.7-0.3-3.3-0.7-5-1C371.1,226.2,372.7,226.8,374,229z"/>
		<path class="st181" d="M344,303c-0.7,0.3-1.3,0.7-2,1c0.2-5.9,2.9-11.3,4-17c1.5-8.6,3.2-17.1,7-25c0,1,0,2,0,3
			c-3.5,9.5-4.1,19.7-7,29.3C345.2,297.2,344.7,300.1,344,303z"/>
		<path class="st182" d="M379,256c0,1.3,0,2.7,0,4c-0.5,0.3-0.9,0.3-1.3-0.1c-2.4-4.3-1.7-9.4-3.5-13.8c-1-2.4-1.2-6.1-4-6.2
			c-3.1-0.1-2.7,3.9-4,6c-1,1.7,0.1,5-3.4,5c-0.2-1-0.4-2,0.3-3c0-1,0-2,0-3c2.2-2,2.1-5.1,3.7-7.5c1-1.5,1.8-3.4,3.9-3.3
			c2.1,0.1,2.9,1.9,3.7,3.6c0.9,1.7,0.8,3.9,2.6,5.2C376.8,247.5,379.5,251.5,379,256z"/>
		<path class="st178" d="M363,248c0,1,0,2,0,3c0.6,1.1,0.7,2-1,2c0,0-0.1-0.1-0.1-0.1C362.2,251.3,361.4,249.4,363,248z"/>
		<path class="st125" d="M358,269c-0.3,0-0.7,0-1,0c0.2-1.7-0.6-3.6,1-5C358,265.7,358,267.3,358,269z"/>
		<path class="st134" d="M332,334c0-1,0-2,0-3c2.4-6.3,3.6-13,7-19c0.2,0.2,0.3,0.4,0.5,0.5c0,1.2,0.3,2.4-0.5,3.5
			c-1.3,2.1-1.8,4.5-2,7c-1.2,1.8-1.2,4-2,6c-0.3,1-0.7,2-1,3C333.1,332.4,333.9,334.6,332,334z"/>
		<path class="st134" d="M346,287c-0.4,5.9-2.6,11.4-4,17c-0.3,0.3-0.7,0.7-1,1c-0.3-5.3,3.1-9.8,3-15C344.7,289,345.3,288,346,287z
			"/>
		<path class="st134" d="M341,305c0,2,0,4,0,6c-0.6,0.5-0.9,1.6-2,1c0,0,0,0,0,0C339,309.5,338.7,306.9,341,305z"/>
		<path class="st79" d="M341,266c0.2,5.3-2.9,9.6-4.8,14.2c-1.1,2.6-0.8,6.3-4.2,7.8C334.4,280.4,336.9,272.9,341,266z"/>
		<path class="st85" d="M350,247c-0.3,6-3.9,10.7-6,16c0,0,0,0,0,0c-1.2-1.3-0.8-2.7,0-4c0.3-1,0.7-2,1-3c1.5-2.1,1.4-4.9,2.8-7.1
			C348.3,248,348.3,246.5,350,247z"/>
		<path class="st79" d="M350,247c-3.2,2.2-1.7,6.9-5,9c0.8-4.7,1.9-9.2,5-13c0.2,0.2,0.3,0.3,0.5,0.5c0.1,0.9,0.2,1.8-0.5,2.5
			C350,246.3,350,246.7,350,247z"/>
		<path class="st79" d="M344,259c0,1.3,0,2.7,0,4c-1,1-2,2-3,3C340.9,263.2,341.3,260.6,344,259z"/>
		<path class="st79" d="M350,243c0.3-2.9,0.9-5.8,3-8c1.3,2.3-0.5,4-1,6C351.1,241.4,352,243.6,350,243L350,243z"/>
		<path class="st85" d="M352,241c0.3-2,0.7-4,1-6c0.3-0.3,0.7-0.7,1-1C354,236.5,354.3,239.1,352,241z"/>
		<path class="st97" d="M270,402c3.7-4,6.8-8.7,12-11C278,394.6,275.9,400.4,270,402z"/>
		<path class="st136" d="M313,343c1.4-4,2.7-8.1,6-11c0.3,1,0.7,2,1,3C316.4,336.5,316.7,341.5,313,343z"/>
		<path class="st97" d="M262,409c2.1-3,4.6-5.5,8-7C268.7,405.9,265.9,408.1,262,409z"/>
		<path class="st97" d="M286,386c0.3-2.4,1.6-3.7,4-4C288.8,383.4,288.4,385.7,286,386z"/>
		<path class="st97" d="M258,412c0.6-1.3,1.6-2,3-2C260.9,412,259.5,412,258,412z"/>
		<path class="st85" d="M350,243c0.7-0.7,1.3-1.3,2-2c0.1,2-0.4,3.7-2,5C350,245,350,244,350,243z"/>
		<path class="st134" d="M323,357c2.6-7.5,5.2-15,9-22c0.8,1.3,0.7,2.7,0,4c-2.3,5.7-4.7,11.3-7,17C324.4,356.5,324.1,357.6,323,357
			L323,357z"/>
		<path class="st181" d="M332,339c0-1.3,0-2.7,0-4c0-0.3,0-0.7,0-1c0.7-0.7,1.3-1.3,2-2C334.1,334.5,333.7,337,332,339z"/>
		<path class="st181" d="M335,329c-0.1-2.3,0.1-4.4,2-6C336.9,325.2,336.5,327.3,335,329z"/>
		<path class="st181" d="M339,312c0.7-0.3,1.3-0.7,2-1c-0.4,1.8-0.6,3.6-2,5C339,314.7,339,313.3,339,312z"/>
		<path class="st23" d="M323,357c0.7-0.3,1.3-0.7,2-1c-0.4,1.8-0.6,3.6-2,5C323,359.7,323,358.3,323,357z"/>
		<path class="st139" d="M234,368c-1.8,3.9-0.5,8.7-4,12c-1.6-2.9,0.5-5.4,1.2-7.8c1.3-5,1.2-10.3,2.8-15.2c1.5,2,0.5,4,0,6
			C234,364.7,234,366.3,234,368z"/>
		<path class="st155" d="M234,363c0-2,0-4,0-6c0-2,0-4,0-6c0.7-1,1.3-2,2-3C235.5,353,237.4,358.4,234,363z"/>
		<path class="st168" d="M397,310c0-0.7,0-1.3,0-2c-0.7-1.3-0.7-2.7,0-4c1.4,2.5,2.1,5.2,2,8C397.1,312.6,397.9,310.4,397,310z"/>
		<path class="st120" d="M397,310c0.7,0.7,1.3,1.3,2,2c0,1,0,2,0,3c0,0.3,0,0.7,0,1C397.1,314.4,396.9,312.3,397,310z"/>
		<path class="st120" d="M397,304c0,1.3,0,2.7,0,4c-1.7-1.4-0.8-3.3-1-5c0.3,0,0.7,0,1,0C397,303.3,397,303.7,397,304z"/>
		<path class="st183" d="M330,251.9c-0.6,0.4-1.3,0.7-1.9,1.1c-2.6,0-3.8,2.2-5.6,3.7c-2.8,2.4-4.7,5.9-8.6,7.1
			c-0.8,0-1.4-0.2-1.9-0.8c5.5-6.9,11.7-13.2,18-19.4c1-1,1.9-1.5,2.1,0.5c0.5,1,0.8,2-0.3,2.8C331.1,248.6,330.6,250.3,330,251.9z"
			/>
		<path class="st184" d="M312,263c0.7,0,1.3,0,2,0c0.6,2.4-1.4,3.4-2.7,4.8c-2.8,3-5.7,5.8-8.6,8.6c-0.5,0.5-1.1,0.9-1.8,1.1
			c-0.7,0.2-1.4,0.1-2-0.4c0-2.8,2.6-3.6,4.1-5.2C305.6,268.6,308.6,265.6,312,263z"/>
		<path class="st183" d="M303,272c-1.3,1.7-2.7,3.4-4,5c-0.2,1.5-1.3,2.3-2.3,3.3c-0.5,0.5-1,0.9-1.6,1.3c-1,0.5-2,1.1-3.2,0.5
			c-0.3-0.4-0.3-0.8,0.1-1.2c1.8-4.3,7-5,9.1-8.9C301.7,272,302.3,272,303,272z"/>
		<path class="st185" d="M331.7,246.9c0.1-0.9,0.2-1.9,0.3-2.8c0.6-0.7,1.3-1.4,1.9-2.1C334,244,333.8,245.9,331.7,246.9z"/>
		<path class="st186" d="M292,281c0,0.3,0,0.7,0,1c-1.1,2.7-2.5,4.7-5.9,3.1c0.8-1.9,2.3-3,3.9-4.1C290.7,281,291.3,281,292,281z"/>
		<path class="st187" d="M258.8,332.2c-1.6-0.7-3.2-1.5-4.8-2.2c-0.7-0.9-1.5-1.9-2.2-2.8c0.1-0.8,0.6-1.3,1.3-1.6
			c3.3-0.4,4.3,2.8,6.4,4.2C259.8,330.7,261.2,332,258.8,332.2z"/>
		<path class="st188" d="M253,325.9c-0.4,0.4-0.8,0.8-1.2,1.2c-0.6,0-1.2-0.1-1.9-0.1c-0.4-1.6-2.2-1.8-2.9-3c0.9,0,1.7-0.2,2.1-1.1
			c1,0.4,1.9,0.8,2.8,1.2C252.7,324.5,253,325.1,253,325.9z"/>
		<path class="st162" d="M297,285c-4.8,5.9-11.7,9.2-17.5,13.9c-4.1,3.3-9.5,4.6-13.2,8.6c-1.2,1.3-3.5,0.4-5.3,0.6c0,0,0,0,0,0
			c-0.6-2.6,2-2,3-3c1-0.7,2-1.3,3-2c2.8-0.7,4.3-3.1,6.4-4.7c1.4-1.2,2.7-2.7,4.5-3.2c4.5-0.9,7-4.8,10.7-7.1
			c2.1-1.3,3.8-3.2,6.4-3.8C295.8,284.2,296.5,284.4,297,285z"/>
		<path class="st189" d="M264,305c-1,1-2,2-3,3c-2.1-0.3-4,0.7-6,1C257.4,306.4,260.6,305.5,264,305z"/>
		<path class="st189" d="M274,299c-1.8,2.2-3.9,4-7,4c1-1,2-2,3-3c0.1-0.2,0.2-0.4,0.4-0.6C271.5,298.6,272.6,297.9,274,299z"/>
		<path class="st184" d="M267,300c2.1-1.8,4.1-3.6,7-4c0.1,0.2,0.1,0.4,0.2,0.7c-0.6,2.1-3,2-4.2,3.3c0,0,0,0,0,0
			C269,300,268,300,267,300z"/>
		<path class="st184" d="M286.1,285.1c2.7,0.4,3.9-2.1,5.9-3.1c1-0.3,2-0.7,3-1c0.5,1.1,0,2.1-0.7,2.6c-5.4,3.9-10.1,8.9-16.3,11.7
			c-1.3,0.1-2.4,2.1-4,0.6c0,0,0,0,0,0c0.7-2.2,4.1-2.1,4-4.9c0.3-0.1,0.6-0.1,0.9-0.1c0.8-1.2,2-2,3.1-2.9c0.3-0.3,0.6-0.7,1-1
			C284,286.3,285.1,285.7,286.1,285.1z"/>
		<path class="st162" d="M253,325.9c-0.4-0.6-0.7-1.2-1.1-1.8c-0.7-1-1.3-2-2-3.1c0.3,0,0.7,0,1,0c3.6-0.2,4,3.3,6,5
			c1.2,1.5,3.5,2,3.9,4.2c-0.7,0.4-1.3,0.3-1.9-0.2C256.8,329,255.9,326,253,325.9z"/>
		<path class="st190" d="M282,288c-0.1,1.9-1.7,2.3-3.1,2.9C279.1,289.1,280.1,288,282,288z"/>
		<path class="st120" d="M399,320c1.7,1.4,0.8,3.3,1,5C398.3,323.6,399.2,321.7,399,320z"/>
		<path class="st191" d="M257,326c-2-1.7-4-3.3-6-5c-1.2-3.5-0.2-4.9,3.7-6.2c10.2-3.3,19.7-8.2,28.8-13.9
			c8.2-5.2,15.9-11.2,23.6-17.3c1.9-1.5,4.3-2.9,5,1.3c-1.1,0.8-1,1.9-1,3.1c-1.8,0.8-2.1,2.2-2,4c-2.4,1.7-3.3,4.3-4,7
			c-2.9,2-3.3,5.9-6,8c-6.9,0.6-13.2,2.7-19.3,6.1c-5.7,3.2-12.7,2.4-18.4,5.7c-0.4,0.2-1,0.2-1.4,0.4
			C256.8,320.5,254.3,322.2,257,326z"/>
		<path class="st192" d="M259,330.1c0.6,0.1,1.3,0.1,1.9,0.2c2.1,1.9,4.1,3.8,6.2,5.6c0.2,1-0.2,1.5-1.2,1.2c-1.9-1-3.9-2.1-5.8-3.1
			c-0.4-0.6-0.9-1.2-1.3-1.8C260,331.6,259.3,330.8,259,330.1z"/>
		<path class="st193" d="M265.9,337.1c0.4-0.4,0.8-0.8,1.2-1.2c1,0.7,2,1.4,3,2.1c-0.4,0.4-0.8,0.8-1.2,1.2
			c-0.6-0.1-1.2-0.1-1.7-0.2C266.7,338.3,266.3,337.7,265.9,337.1z"/>
		<path class="st194" d="M302,276c4-4.3,8-8.7,12-13c3.6-3.4,7.1-6.8,10.7-10.2c1-1,2.4-3.2,3.3,0.2c-0.2,1.7-1.5,3.1-1.1,4.9
			c-0.3,0.4-0.7,0.7-1,1.1c-1,1.4-1.9,2.8-2.9,4.2c-2.1-1-3.2,0.6-4.7,1.6c-5.1,3.5-8.7,9-14.4,11.9
			C303.2,276.7,302.5,276.6,302,276z"/>
		<path class="st195" d="M304,276c5.2-4.7,10.5-9.4,15.7-14.2c2.3-2.2,3.3-1.8,3.3,1.4c-0.7,3-2.2,5.5-4,8c-1.2-3.4-2.8-2-4.8-0.6
			c-6,3.9-10.1,9.9-16,13.8c-0.4,0.3-0.8,0.5-1.3,0.8c-0.7,0-1.3,0-2,0c-0.7-2.2,1.5-3.1,2.2-4.6c0.4-0.5,1-0.9,1.6-1.3
			C300.7,278.3,302.3,277.1,304,276z"/>
		<path class="st196" d="M362,253c0.8-0.4,1-1.2,1-2c1.1-3.1,2.1-6.2,3.2-9.3c0.6-1.7,1.2-3.5,3.5-3.7c2.3-0.2,3.1,1.6,3.9,3.2
			c2.9,5.9,3.6,12.3,4.4,18.7c0.9,1.9,0.4,3.8,0.4,5.7c-0.4,0.5-0.8,0.6-1.4,0.5c-1.8-1.9-0.9-4.5-1.7-6.7
			c-0.6-4.9-1.1-9.9-3.2-14.4c-1.2-2.5-2.6-2.9-4-0.2c-0.5,1-0.8,2-0.8,3.1c-0.1,0.9-0.2,1.7-0.4,2.6c-0.2,0.6-0.6,1.2-0.9,1.7
			c-0.9,1.2-0.7,2.8-1.2,4.1c-0.2,0.4-0.5,0.7-0.8,0.9c-0.4,0.1-0.8-0.1-1.1-0.3c-0.4-0.9,0.2-2.1-0.7-3
			C362,253.7,362,253.3,362,253z"/>
		<path class="st179" d="M362,254c1.1,0.7,0.9,1.9,1,3c0.8,0.9,1,1.9,0.8,3c-1,3.6,0.1,7.6-2.4,10.8c-0.4,0.4-0.9,0.5-1.4,0.2
			c0-0.3,0-0.7,0-1C359.7,264.5,361.8,259.4,362,254z"/>
		<path class="st197" d="M360,291c0-4,0-8,0-12c0.6-0.3,1.1-0.2,1.5,0.4c1.7,6.5,0.3,13.3,1.8,19.8c-0.1,5.5,0.4,10.9,2.8,15.9
			c0.6,1.2,1,2.6,2.5,2.8c1.8,0.1,2.6-1.3,3.2-2.7c2.7-5.8,4.1-11.8,3.8-18.3c1.4-7.9,0.9-15.8,1-23.7c0-1.5,0.1-3,1.2-4.2
			c3,0.1,1.6,2.5,1.6,3.7c0,13.1,0.8,26.3-1.5,39.4c-0.6,3.8-1.6,7.5-3.3,10.9c-1.3,2.5-3.2,5-6.4,4.6c-3-0.3-4.3-3-5.1-5.5
			c-2.4-7.5-3.1-15.2-3.3-23c-0.3-1.1-0.2-2.2-0.2-3.3C359.7,294.2,359.1,292.5,360,291z"/>
		<path class="st198" d="M361,279c-0.3,0-0.7,0-1,0c0-1.3,0-2.7,0-4c0-1.3,0-2.7,0-4c0.3,0,0.7,0,1,0
			C362.9,273.7,362.9,276.3,361,279z"/>
		<path class="st198" d="M360,291c0,1.7,0,3.3,0,5c-0.3,0.5-0.7,0.5-1,0c0-1.7,0-3.3,0-5C359.3,291,359.7,291,360,291z"/>
		<path class="st199" d="M377,313c2.1-12.9,2.2-25.9,2-38.9c0-1.7,0.6-3.7-1-5.1c-0.9-1-0.8-2,0-3c0-2,0-4,0-6c0.3,0,0.7,0,1,0
			c-0.6,4.1,0.8,8,1,12c-0.1,16.4,0.6,32.7-2,49c-1.1,5.3-1.6,10.8-5,15.3c-2.4,3.3-6.4,3.7-8.1,0.3c-2.1-4.4-4.6-8.9-3.5-14.1
			c2.5-1.9,2.1,1,2.7,1.8c1.4,2,1.8,5.3,4.6,5.3c3.2,0,4.2-3.3,5.3-5.8C375.6,320.4,376.4,316.7,377,313z"/>
		<path class="st179" d="M362,322c-0.7,4.9,1.7,9,3.3,13.2c0.6,1.6,1.9,2.7,3.8,2.7c1.8,0,2.2-1.4,3.1-2.6c3.4-4.3,4-9.5,5.8-14.3
			c-0.3,7.3-1,14.6-6,20.5c-3,3.5-5.9,3.1-7.5-1.1c-2.2-5.6-3.6-11.5-4.4-17.6c-1.2-8.9-0.9-17.9-1-26.8c0.3,0,0.7,0,1,0
			c0,1,0,2,0,3C359.9,306.7,362.3,314.2,362,322z"/>
		<path class="st194" d="M299,280c-0.3,0.3-0.7,0.7-1,1c-1.1,0.6-2.1,0.9-2-1c0.6-1.4,1.7-2.4,3-3c0.7,0,1.3,0,2,0
			C301.6,278.9,299.8,279.1,299,280z"/>
		<path class="st189" d="M299,280c0.7-1,1.3-2,2-3c0.3-0.3,0.7-0.7,1-1c0.7,0,1.3,0,2,0C302.8,277.9,301.5,279.8,299,280z"/>
		<path class="st189" d="M296,280c0.4,0.8,1.2,1,2,1c-1,1.3-2,2.7-3,4c-3.9,2.9-8,5.7-11.8,8.8c-1.6,1.3-3.1,2.3-5.2,2.2
			c-0.3-0.2-0.5-0.4-0.3-0.7c0.1-0.2,0.2-0.3,0.3-0.3c5.6-4.8,12.1-8.3,17-14C295.3,280.7,295.7,280.3,296,280z"/>
		<path class="st160" d="M278,295c0,0.3,0,0.7,0,1c-1.3,1-2.7,2-4,3c-1.3,0.3-2.7,0.7-4,1c1.3-1.3,2.7-2.7,4-4
			C275.3,295.7,276.7,295.3,278,295z"/>
		<path class="st200" d="M378,266c0,1,0,2,0,3c0,9.7,0.3,19.4-1,29c-0.7,4.2-1.4,8.3-2.4,12.4c-0.5,1.7-1.4,3-2.4,4.2
			c-2.2,2.5-4.5,2.2-6.5-0.6c-2.3-3.2-2.5-7.1-3.1-10.7c-0.2-1.1,0.3-2.3-0.5-3.3c-1.3-7-1-14-1-21c0-2.7,0-5.3,0-8
			c1.2-3.6,0.2-7.6,2-11c1,0.8,1.2,2,1.3,3.1c0.1,2.3,0.1,4.6-0.3,6.9c-1.4,10.8-0.8,21.6,1.8,32.1c0.4,1.7,0.9,4,3,4.2
			c2.5,0.2,3.2-2.2,3.7-4c2.6-9,3.2-18.3,3.1-27.6c0-2.9-0.9-6,1.3-8.6C377.3,266,377.7,266,378,266z"/>
		<path class="st201" d="M377,266c0,10.9,0.3,21.8-1.9,32.7c-0.5,2.5-1.4,4.7-2.4,7c-0.7,1.4-1.2,3.4-3.3,3.2
			c-2.2-0.2-3.6-1.6-4.2-3.7c-2.2-7-3.3-14.2-3.1-21.5c0.1-4.5-1.2-9.2,0.9-13.6c2.2,2.4,1.3,5.4,1.3,8.1c0,5.8,0,11.7,2.3,17.2
			c0.6,1.3,0.7,3.5,2.4,3.5c2,0,2.3-2.2,2.8-3.7c1.7-5.8,2.7-11.6,2.9-17.7c0.2-6-0.9-12,0.7-17.9c0.2-0.2,0.4-0.4,0.6-0.6
			C377.9,261.1,376.6,263.7,377,266z"/>
		<path class="st202" d="M366,251c0-1,0-2,0-3c4.1-3.8,6.3-3.3,7.7,2c0.6,2.2,1.5,4.3,1.3,6.7c-0.5,9.6,1.3,19.3-1.5,28.8
			c-0.2,0.8-0.3,1.6-0.7,2.4c-0.7,1.6-1.7,3-3.7,2.8c-1.7-0.1-2.7-1.2-3.2-2.7c-1.6-4.3-2.5-8.6-1.7-13.2c0.2-0.6,0.6-0.9,1.2-1
			c2.5,1.5,1.6,4.2,2.4,6.3c0.4,0.8,0.2,2.2,1.4,2.1c1.8-0.2,1.2-1.9,1.4-3c1.1-8.9,1.9-17.8-0.1-26.6c-3-0.1-1.8,4.5-5,3.2
			C364.7,254,365.2,252.5,366,251z"/>
		<path class="st201" d="M367,245c0.4-1.8,0.6-3.8,3-3.9c2.2-0.1,2.5,1.9,3.1,3.4c1.9,4.6,3.2,9.4,2.8,14.5c0,0,0,0,0,0
			c-0.4,0.3-0.9,0.3-1.3-0.1c-0.3-0.9-0.2-1.9-0.2-2.9c-0.2-2.3-1.1-4.4-1.5-6.7C372.4,246.1,370.7,244.1,367,245z"/>
		<path class="st203" d="M367,245c3.1-2.9,4.9-1.5,5.9,1.9c0.8,3,1.4,6,2.1,9.1c-0.3,0.4-0.7,0.5-1,0c-0.3-1.4-0.7-2.9-1-4.3
			c-1.4-5.9-1.5-5.9-7-3.7C366,246.9,365.8,245.7,367,245z"/>
		<path class="st203" d="M366,251c0,1.7,0,3.3,0,5c0.6,0.5,0.7,1.2,0.6,2c-0.3,1-0.8,1.8-1.7,2.3c-0.5,0.1-0.9-0.1-1.3-0.5
			c-0.1-1-0.4-1.9,0.4-2.8l0,0c1.2-1.5-0.2-3.5,1-5C365.3,251.7,365.7,251.3,366,251z"/>
		<path class="st201" d="M364,257c0,1,0,2,0,3c0.8,0.9,0.9,1.8,0.3,2.8c-0.4,0.4-0.8,0.5-1.3,0.2c0-1,0-2,0-3c0-1,0-2,0-3
			C363.3,257,363.7,257,364,257z"/>
		<path class="st201" d="M365,252c-0.2,1.7,0.7,3.6-1,5C364.2,255.3,363.4,253.4,365,252z"/>
		<path class="st198" d="M362,322c-1.8-7.6-2.4-15.2-2-23c1,5.8,2,11.6,3,17.3c0.2,1.3,0.6,2.6,0.9,3.9c0.5,2.9,1.6,6.3,4.4,6.4
			c3.3,0.2,5.1-3.1,6.1-6.2c0.8-2.5,1.7-4.9,2.6-7.4c0,5.9-1,11.5-4.7,16.1c-3.2,4-4.2,3.6-7.3-0.5C363.4,326.5,363.6,323.9,362,322
			z"/>
		<path class="st204" d="M362,300c1.8,4,1.4,8.6,3.7,12.6c2.1,3.6,3.8,3.5,6.3,0.5c2.9-3.5,3-7.9,3.9-12c0.3-1.1-0.1-2.3,1-3.1
			c0.2,6.9-1.6,13.3-4.7,19.4c-0.8,1.6-1.8,2.8-3.8,2.5c-1.8-0.3-2.8-1.5-3.4-3.2C363.1,311.3,361.7,305.8,362,300z"/>
		<path class="st203" d="M363,263c0.3,0,0.7,0,1,0c2.3,3.2,1.6,6.7,0.9,10.1c-1.2,5.6,0.2,10.9,1.6,16.1c0.4,1.3,1.1,3.1,2.9,3
			c1.7-0.1,2.4-1.7,2.8-3.1c1.1-4.3,2.2-8.6,2.3-13.2c0.1-5.6-0.7-11.3,0.4-16.9c0.3,0,0.7,0,1,0c-0.2,11,0.9,22.1-1.8,33.1
			c-0.6,2.3-1.6,4.3-2.2,6.5c-0.4,1.4-1.1,3-3,2.7c-1.5-0.3-2.3-1.4-3-2.9c-3.8-9.2-2.9-18.8-3-28.4C363,267.7,363,265.3,363,263z"
			/>
		<path class="st205" d="M366,258c0-0.7,0-1.3,0-2c0.1-0.1,0.3-0.2,0.4-0.3c1.2-2.1,0.7-6.2,3.3-6c3.3,0.3,2.8,4.6,3.1,7
			c0.7,7.7,0.3,15.5-0.8,23.3c-1.3,2.1-3,2.5-5,1c-1.4-2.2-0.9-4.6-1-7C364.2,268.7,364.7,263.3,366,258z"/>
		<path class="st206" d="M375,259c-0.3,9.1,0.9,18.3-1,27.3c-0.7,3.3-0.4,8.2-4.6,8.3c-4,0.1-3.7-4.6-4.5-7.8
			c-1.9-7.9-0.5-15.9-0.9-23.8c0-1,0-2,0-3c0.3,0,0.7,0,1,0c0.8,4.7,0.8,9.3,0,14c-0.4,4.4,0.6,8.5,1.9,12.6
			c0.5,1.5,0.6,3.2,2.5,3.1c1.9,0,2-1.8,2.5-3.2c2.6-7.2,2.1-14.7,2.1-22.1c0-2.8,0-5.6,0-8.5c0.3,0,0.7,0,1,0
			C375,257,375,258,375,259z"/>
		<path class="st207" d="M365,274c0-4.7,0-9.3,0-14c0-0.8,0.2-1.6,1-2c0,5.3,0,10.7,0,16C365.7,274,365.3,274,365,274z"/>
		<path class="st207" d="M367,281c1.8,0.1,3.5,0,5-1c0,2-0.3,3.7-2.7,3.9C367.1,284.1,367,282.6,367,281z"/>
		<path class="st208" d="M372.2,264.1c-0.3,1.4-0.4,2.9-0.9,4.2c-0.5,1.4,0.4,4-2,3.8c-1.8-0.2-1.7-2.7-2.1-4.2
			c-1-4,0.4-7.8,0.9-11.7c0.1-0.8,0.5-1.7,1.6-1.5c0.5,0.1,1.1,0.9,1.2,1.4C371.4,258.7,371.7,261.4,372.2,264.1z"/>
	</g>
</g>
</svg>
