<?xml version="1.0" encoding="utf-8"?>
<!-- Generator: Adobe Illustrator 21.0.0, SVG Export Plug-In . SVG Version: 6.00 Build 0)  -->
<svg version="1.1" id="Layer_1" xmlns="http://www.w3.org/2000/svg" xmlns:xlink="http://www.w3.org/1999/xlink" x="0px" y="0px"
	 viewBox="0 0 612 792" style="enable-background:new 0 0 612 792;" xml:space="preserve">
<style type="text/css">
	.st0{fill:#C93837;}
	.st1{fill:#FEFEFE;}
	.st2{fill:#CA3837;}
</style>
<g>
	<g>
		<path class="st0" d="M307,786c-148,0-296,0-444,0c-3.1-2.5-2.4-6.1-2.4-9.3c-0.1-28.8,0-57.7-0.1-86.5c0-2,0.1-4-0.1-6
			c-0.3-4.8-1.9-6.4-6.9-6.7c-2.8-0.2-5.7-0.1-8.5-0.1c-174.1,0-348.2,0-522.4,0c-3.3,0-6.7,0-10-0.1c-2.2-0.1-4.3-0.4-5.8-2.3
			c0-220.8,0-441.6-0.1-662.4c0-3.6,0.5-4.7,4.5-4.7C-24.9,8,638.9,8,1302.6,7.9c4,0,4.5,1.1,4.5,4.7
			c-0.1,220.8-0.1,441.6-0.1,662.4c-1.5,1.9-3.6,2.2-5.8,2.3c-3.5,0.1-7,0.1-10.5,0.1c-321.8,0-643.6,0-965.3,0c-3,0-6-0.1-9,0.1
			c-4.9,0.3-6.5,1.9-6.9,6.7c-0.1,2-0.1,4-0.1,6c0,28.8,0,57.7-0.1,86.5C309.4,779.9,310.1,783.5,307,786z"/>
		<path class="st1" d="M307,786c0-35.3,0.1-70.7-0.1-106c0-4.1,1-5.2,5.2-5.2c330.5,0.1,661,0.1,991.4,0.1c1.2,0,2.3,0.1,3.5,0.1
			c0,35.5-0.1,71,0.1,106.5c0,3.8-0.8,4.6-4.6,4.6C970.7,786,638.8,786,307,786z"/>
		<path class="st1" d="M-693,675c1.7,0,3.3-0.1,5-0.1c181.5,0,363,0,544.5-0.1c5.1,0,6.3,1.2,6.3,6.3c-0.2,33-0.1,66-0.1,99
			c0,2,0.2,4,0.4,5.9c-183.8,0-367.7,0-551.5,0.1c-3.7,0-4.6-0.8-4.6-4.6C-692.9,746-693,710.5-693,675z"/>
		<path class="st1" d="M862.4,119c109.3,0,218.6,0,328-0.1c4.5,0,5.7,1,5.7,5.7c-0.1,144.6-0.1,289.3,0,433.9c0,4.2-0.7,5.6-5.3,5.6
			c-33.5-0.2-67-0.2-100.5,0c-4.7,0-5.7-1.4-5.7-5.8c0.1-107.2,0.1-214.3,0.1-321.5c0-6.3,0-6.3-6.5-6.3c-32.7,0-65.3,0.1-98-0.1
			c-4.8,0-6.4,0.9-6.4,6.1c0.2,107.2,0.1,214.3,0.2,321.5c0,4.6-0.8,6.2-5.9,6.1c-33.3-0.3-66.7-0.2-100,0c-4.8,0-6.1-1.1-6.1-6
			c0.1-107,0.1-214,0.1-321c0-7.4,1-6.6-6.6-6.6c-32.5,0-65,0-97.5,0c-7.2,0-6.3-0.7-6.3,6.5c0,106.8,0,213.6,0,320.5
			c0,7.4,0.7,6.5-6.3,6.5c-70.3,0-140.6,0-211,0.1c-4.2,0-5.6-0.8-5.6-5.4c0.1-144.8,0.1-289.6,0-434.4c0-4.6,1.4-5.3,5.6-5.3
			C643.8,119,753.1,119,862.4,119z"/>
		<path class="st1" d="M-26.6,396.6c0-90.5,0-181-0.1-271.5c0-5,1.1-6.3,6.2-6.3c144.1,0.2,288.3,0.2,432.4,0c4.8,0,6.3,0.9,6.3,6.1
			c-0.2,144.3-0.2,288.6,0,432.9c0,5.2-1.4,6.2-6.3,6.1c-70.2-0.2-140.3-0.1-210.5-0.2c-4.7,0-5.6,1.4-5.6,5.8
			c0.2,33.3,0,66.7,0.2,100c0,4.3-0.8,5.5-5.4,5.5c-70.7-0.2-141.3-0.2-212,0c-4.5,0-5.5-1.2-5.5-5.5
			C-26.6,578.6-26.6,487.6-26.6,396.6z"/>
		<path class="st1" d="M-582,341.5c0-72.3,0.1-144.7-0.1-217c0-4.7,1.4-5.6,5.8-5.6c144.5,0.1,289,0.1,433.5,0
			c4.3,0,5.9,0.8,5.9,5.6c-0.1,144.7-0.1,289.3,0,434c0,4.3-0.9,5.6-5.4,5.6c-33.7-0.2-67.3-0.2-101,0c-4.4,0-5.5-1.1-5.5-5.5
			c0.1-107.3,0.1-214.7,0.2-322c0-5.1-1.3-6.3-6.3-6.2c-32.8,0.2-65.7,0.2-98.5,0c-5,0-6,1.5-6,6.2c0.1,107,0.1,214,0.1,321
			c0,7.6,0.4,6.5-6.4,6.5c-70,0-140-0.1-210,0.2c-5.4,0-6.4-1.6-6.4-6.6C-581.9,485.5-582,413.5-582,341.5z"/>
		<path class="st2" d="M196,341.2c0-35.2,0.1-70.3-0.1-105.5c0-3.9,0.6-5.4,5-5.4c33.8,0.2,67.6,0.2,101.5,0c3.7,0,4.7,0.9,4.7,4.7
			c-0.1,70.8-0.1,141.6,0,212.4c0,4.1-1.3,4.8-5,4.8c-33.8-0.1-67.6-0.1-101.5,0c-3.7,0-4.7-0.9-4.7-4.7
			C196.1,412.2,196,376.7,196,341.2z"/>
	</g>
</g>
</svg>
