<?xml version="1.0" encoding="utf-8"?>
<!-- Generator: Adobe Illustrator 21.0.0, SVG Export Plug-In . SVG Version: 6.00 Build 0)  -->
<svg version="1.1" id="Layer_1" xmlns="http://www.w3.org/2000/svg" xmlns:xlink="http://www.w3.org/1999/xlink" x="0px" y="0px"
	 viewBox="0 0 271.8 154.9" style="enable-background:new 0 0 271.8 154.9;" xml:space="preserve">
<style type="text/css">
	.st0{fill:#131311;}
	.st1{fill:#141412;}
	.st2{fill:#131412;}
	.st3{fill:#141513;}
	.st4{fill:#151513;}
	.st5{fill:#FEFEFE;}
	.st6{fill:#FCFCFB;}
	.st7{fill:#F8F8F8;}
	.st8{fill:#FCFCFC;}
	.st9{fill:#FDFDFD;}
</style>
<g>
	<path class="st0" d="M83.7,58.3c0-8.8,0-17.6,0-26.4c0-1.5,0.5-2.2,1.7-3c15.2-8.7,30.5-17.5,45.6-26.3c1.6-0.9,2.7-0.8,4.1,0.1
		c4.2,2.5,8.4,4.9,12.6,7.4c1.2,0.7,2.1,0.7,3.2,0c5.4-3.2,10.9-6.3,16.3-9.5c1.2-0.7,2.2-0.8,3.5,0c8.2,4.8,16.4,9.6,24.7,14.3
		c1.3,0.7,1.7,1.6,1.7,3c-0.1,9.4-0.1,18.9,0,28.3c0,1.6-0.6,2.4-1.9,3.2c-4,2.2-7.9,4.6-11.8,6.8c-1.1,0.6-1.4,1-1.1,2.4
		c0.4,2.3,0.1,4.6,0.1,6.9c0,6.5,0,13,0,19.4c0,1.5-0.4,2.4-1.8,3.2c-15.3,8.8-30.6,17.6-45.8,26.5c-1.4,0.8-2.3,0.7-3.7-0.1
		c-15.2-8.8-30.4-17.6-45.6-26.3c-1.3-0.8-1.9-1.6-1.9-3.2C83.7,76,83.7,67.2,83.7,58.3z"/>
	<path class="st0" d="M270.9,122.2c-4,4.1-7.8,8.2-11.7,12.1c-1.2,1.1-1.2,1.9-0.2,3.1c4.2,5.4,8.3,10.9,12.8,16.7
		c-2.3,0-4.2,0-6.1,0c-1.1,0-1.4-0.9-1.9-1.6c-3.2-4.2-6.5-8.5-9.9-13c-1.5,1.6-2.9,3.1-4.4,4.5c-0.6,0.6-0.6,1.2-0.6,2
		c0,2.2-0.1,4.3,0,6.5c0.1,1.3-0.4,1.6-1.6,1.6c-4.1,0.1-4.1,0.1-4.1-3.9c0-8.7,0.1-17.4,0-26.1c0-1.8,0.4-2.5,2.2-2.2
		c0.5,0.1,1.1,0.1,1.7,0c1.5-0.2,1.9,0.3,1.9,1.8c-0.1,4.6,0,9.2,0,14.4c2.9-3.1,5.5-5.8,8-8.4c1.2-1.3,2.6-2.4,3.6-3.9
		C263,122.2,266.3,121,270.9,122.2z"/>
	<path class="st0" d="M194.2,141.5c0,0.1,0,0.2,0,0.2c-0.7,4.4-3.6,5.4-7.5,4.7c-4.1-0.8-6.6,0.7-7.7,4.9c-0.9,3.3-1.3,3.2-6.6,2.7
		c-0.2-0.8,0.3-1.3,0.6-2c4.1-9.5,8.4-19,12.4-28.5c0.8-1.8,1.8-1.8,3.3-1.8c1.4,0.1,2.8-0.3,3.6,1.7c4,9.6,8.3,19.2,12.5,28.7
		c0.2,0.6,0.4,1.2,0.7,1.7c-0.2,0.1-0.2,0.2-0.3,0.2c-5.3,0.5-5.2,0.5-7.3-4.3C196.6,147,195.3,144.3,194.2,141.5
		c-2.2-2.4-2.8-5.7-4.2-8.5c-0.4-0.8-0.6-1.6-1.2-2.6c-1.6,3-2.7,6.1-4,9c-0.4,1,0.2,1.5,1.2,1.5c1.8,0.1,3.7,0,5.5,0
		C192.4,140.9,193.4,140.8,194.2,141.5z"/>
	<path class="st0" d="M131.3,154.5c-4.4,0.1-8.3-1.4-11.8-3.9c-1.2-0.9-1.4-1.6-0.2-2.5c0.5-0.4,0.9-0.9,1.2-1.4
		c0.7-1.1,1.3-1,2.3-0.2c2.2,1.8,4.8,2.9,7.6,3.2c1.7,0.2,3.3,0,4.9-0.8c1.3-0.7,2.1-1.7,2.1-3.2c0.1-1.5-0.7-2.6-2-3.3
		c-1.6-0.9-3.3-1.2-5-1.7c-1.6-0.5-3.2-0.9-4.8-1.4c-4.5-1.7-6.5-4.4-6.3-8.5c0.2-4.2,2.8-7.5,7.1-8.6c5.2-1.3,10-0.3,14.4,2.6
		c0.9,0.6,1.3,1.1,0.5,2c-0.5,0.6-1,1.3-1.4,2c-0.6,1-1.1,1.1-2.1,0.4c-2.4-1.6-4.9-2.6-7.8-2.5c-2.7,0.1-4.6,1.3-4.9,3.3
		c-0.4,2,0.8,3.5,3.5,4.4c2.3,0.8,4.8,1.3,7.1,2.1c5.5,1.8,7.9,5.1,7.3,9.8c-0.7,4.9-4.3,8-9.8,8.4
		C132.6,154.6,132,154.5,131.3,154.5z"/>
	<path class="st0" d="M225.5,121.4c3.3,0.1,7,1.2,10.2,3.9c1,0.8,1.4,1.4,0.3,2.4c-0.2,0.1-0.3,0.3-0.5,0.5c-1.3,2-2.4,2.4-4.5,0.7
		c-3.8-3-8.9-2.9-12.5-0.4c-3.8,2.6-5.6,7.8-4.4,12.6c1.2,4.8,4.5,7.9,9.2,8.5c3.4,0.4,6.4-0.6,8.8-2.9c2.7-2.4,3.1,0.8,4.3,1.7
		c1.7,1.3-0.3,1.8-0.9,2.4c-5.6,4.9-14.1,5.5-20.3,1.5c-6.2-4-8.9-11.8-6.7-19.2C210.6,125.9,217,121.4,225.5,121.4z"/>
	<path class="st1" d="M157,140.5c0-3.9,0-7.8,0-11.8c0-1.2-0.3-1.7-1.6-1.6c-2.3,0.1-4.6,0-7,0.1c-1.3,0.1-1.8-0.3-1.8-1.7
		c0-3.6-0.1-3.6,3.5-3.6c7,0,13.9,0.1,20.9-0.1c2.6-0.1,1.8,1.5,1.9,2.8c0,1.3,0.5,2.8-1.8,2.6c-2.1-0.2-4.3,0.1-6.5-0.1
		c-1.7-0.1-2,0.5-2,2c0.1,7.6,0,15.2,0.1,22.8c0,1.8-0.5,2.3-2.3,2.3c-3.5-0.1-3.5,0-3.5-3.6C157,147.2,157,143.9,157,140.5z"/>
	<path class="st2" d="M60.5,153.9c-2.6,0.8-4.1-0.1-5-2.7c-1-2.8-2.4-5.5-4-9.1c-0.3,4.5-3.2,3.5-5.5,3.6c-3,0-5.9,0.1-8.9,0
		c-1.2,0-1.9,0.4-2.3,1.5c-0.6,1.5-1.4,2.9-1.9,4.4c-0.8,2.5-2.3,3.2-4.8,2.3c3.2-7.2,6.5-14.4,9.7-21.5c1.4-3.1,2.9-6.2,4.2-9.4
		c0.5-1.3,1.4-1.2,2.5-1.3c1,0,1.7,0.2,2.2,1.3c4.5,10.1,9.1,20.2,13.6,30.3C60.4,153.5,60.4,153.7,60.5,153.9z"/>
	<path class="st2" d="M12.5,154.6c-4.1,0-7.8-1.3-11.1-3.9c-0.6-0.5-2.2-0.8-0.9-2.2c0.9-1,1.4-1.9,2.9-0.6
		c3.2,2.8,7.1,3.8,11.4,3.2c1.1-0.2,2.2-0.5,3.1-1.2c3.2-2.2,3-6.6-0.3-8.5c-1.8-1-3.9-1.4-5.9-1.9c-1.9-0.4-3.9-1-5.7-1.8
		c-3.1-1.4-4.9-3.7-5-7.2c0-3.6,1.6-6.1,4.7-7.8c4.5-2.4,12.5-1.4,16.3,1.9c1,0.8,0.6,1.3,0,1.9c-0.6,0.5-0.7,2-2.1,1
		c-2.5-1.9-5.3-2.9-8.5-2.9c-1.6,0-3.2,0.4-4.5,1.3c-3.1,2-3,6.2,0.1,8.2c1.8,1.1,3.8,1.5,5.9,2c1.5,0.4,3,0.7,4.4,1.2
		c5.1,1.8,7.1,4.7,6.5,9.2c-0.5,4.2-3.9,7.3-8.7,7.8C14.3,154.6,13.4,154.6,12.5,154.6z"/>
	<path class="st3" d="M99.5,139.6c0-4.1-0.1-8.2,0-12.2c0.1-1.9-0.5-2.3-2.3-2.2c-2.4,0.1-4.8,0-7.2,0.1c-1.2,0-1.6-0.4-1.5-1.5
		c0.1-0.9-0.2-1.9,1.4-1.9c7.6,0.1,15.2,0.1,22.8,0c1.5,0,1.2,0.9,1.2,1.7c0,0.9,0.2,1.7-1.3,1.7c-2.5-0.1-5,0.1-7.4-0.1
		c-1.7-0.1-2.1,0.5-2.1,2.1c0.1,8.2,0,16.5,0.1,24.7c0,1.7-0.5,2.2-2.2,2.1c-1.2-0.1-1.6-0.3-1.6-1.6
		C99.6,148.3,99.5,144,99.5,139.6z"/>
	<path class="st4" d="M67,138c0-4.7,0.1-9.4,0-14.1c0-1.5,0.4-2,2-2s1.8,0.6,1.8,2c0,8.3,0,16.6-0.1,24.9c0,1.6,0.4,2.2,2.1,2.1
		c4.8-0.1,9.6,0,14.4-0.1c1.3,0,1.8,0.3,1.8,1.7c0,1.4-0.5,1.7-1.8,1.7c-6.1-0.1-12.3-0.1-18.4,0c-1.4,0-1.7-0.5-1.7-1.8
		C67.1,147.6,67,142.8,67,138z"/>
	<path class="st5" d="M131.1,110.2c-12.1-7-24-13.8-35.9-20.7c-2.7-1.6-6.3-2.6-7.7-5c-1.3-2.3-0.4-5.9-0.4-8.9c0-13,0-26.1,0-39.1
		c0-2.3,0.5-2.2,2.3-1.2c13.4,7.8,26.8,15.5,40.2,23.2c1,0.6,1.7,1.1,1.7,2.5c-0.1,16.1,0,32.1,0,48.2
		C131.2,109.5,131.2,109.7,131.1,110.2z"/>
	<path class="st5" d="M155.2,48.2c0,9.3,0,18.5,0,28.2c8-5,15.6-9.7,23.6-14.7c0,7.7,0,15,0,22.3c0,0.8-0.4,1.1-1,1.5
		c-14.2,8.1-28.4,16.3-42.5,24.5c-0.1,0-0.2,0-0.3,0c-0.5-0.6-0.2-1.3-0.2-2c0-15.4,0-30.9-0.1-46.3c0-1.6,0.5-2.4,1.8-3.2
		c5.5-3.1,10.9-6.3,16.4-9.4C153.5,48.7,154.1,48.1,155.2,48.2z"/>
	<path class="st5" d="M89.3,30.8c11.2-6.5,22.3-12.9,33.5-19.4c3-1.7,5.9-3.4,8.9-5.1c0.7-0.4,1.2-0.8,2.2-0.3
		c3.8,2.3,7.7,4.5,11.5,6.7c-0.1,0.3-0.1,0.5-0.2,0.5c-3.9,1.2-4.9,4.1-4.2,7.8c0.4,2.4-0.5,3.9-2.8,5c-2.9,1.4-5.5,3.1-8.7,5
		c8,4.6,15.7,9.1,23.7,13.7c-4.7,2.7-9.1,5.3-13.6,7.9c-2.2,1.3-4.4,3.4-6.7,3.4c-2.1,0-4.3-2.1-6.5-3.4
		c-11.7-6.8-23.5-13.6-35.2-20.4C90.6,31.9,89.8,31.7,89.3,30.8z"/>
	<path class="st5" d="M193.6,20c0,8.5,0,16.8,0,25c0,0.7-0.3,1.1-0.9,1.5c-7.2,4.1-14.3,8.3-21.9,12.6c0-2.8,0-5.2,0-7.7
		c0-5.6,0-11.2,0-16.8c0-1.1,0.1-1.9,1.2-2.6c6.9-3.9,13.7-7.8,20.5-11.8C192.8,20.3,193.1,20.2,193.6,20z"/>
	<path class="st5" d="M191.8,16.7c-7.5,4.3-14.5,8.4-21.5,12.5c-0.9,0.5-1.5,0.5-2.4,0c-7-4.1-14.1-8.1-21-12.2
		c-0.1-0.8,0.5-0.8,0.9-1c6.6-3.8,13.2-7.7,19.9-11.5c0.6-0.4,1.2-1,2.2-0.5C176.9,8.2,184.2,12.3,191.8,16.7z"/>
	<path class="st5" d="M144.6,19.9c3.2,1.8,6.1,3.4,8.9,5.1c4.1,2.4,8.1,4.7,12.2,7.1c0.7,0.4,1.5,0.7,1.5,1.8c0,8.3,0,16.6,0,25.2
		c-2.8-1.6-5.3-3.1-7.9-4.5c-0.5-0.3-0.8-0.7-0.8-1.3c0-0.5,0-1,0-1.4c-0.1-2.7,0.7-5.9-0.4-8c-1.1-2-4.3-2.8-6.5-4.2
		c-2.3-1.4-5.5-2.3-6.7-4.3c-1.2-2.1-0.3-5.3-0.4-8C144.6,25,144.6,22.6,144.6,19.9z"/>
	<path class="st6" d="M168.4,63.9c-3,1.9-5.7,3.5-8.4,5.2c-1,0.6-1.4,0.5-1.4-0.8c0-3.2,0-6.5,0-10.1C162,60.2,165.1,62,168.4,63.9z
		"/>
	<path class="st7" d="M140.9,28.5c0,1.8,0,3.2,0,4.8c-1.5-0.6-2.8-1.3-4.1-2.4C138.1,30.1,139.3,29.4,140.9,28.5z"/>
	<path class="st8" d="M194.2,141.5c-3,0-6.1-0.1-9.1,0c-1.4,0-1.9-0.2-1.2-1.7c1.6-3.5,3.1-7.2,4.9-11.3
		C190.7,133.1,192.4,137.3,194.2,141.5C194.1,141.5,194.2,141.5,194.2,141.5z"/>
	<path class="st9" d="M51.6,142.4c-4.5,0-8.8,0-13,0c-1.5,0-1.6-0.4-1-1.6c2.2-4.8,4.3-9.6,6.7-14.9
		C46.8,131.6,49.2,136.9,51.6,142.4z"/>
</g>
</svg>
