<?xml version="1.0" encoding="utf-8"?>
<!-- Generator: Adobe Illustrator 21.0.0, SVG Export Plug-In . SVG Version: 6.00 Build 0)  -->
<svg version="1.1" id="Layer_1" xmlns="http://www.w3.org/2000/svg" xmlns:xlink="http://www.w3.org/1999/xlink" x="0px" y="0px"
	 viewBox="0 0 612 792" style="enable-background:new 0 0 612 792;" xml:space="preserve">
<style type="text/css">
	.st0{fill:#FEFEFE;}
	.st1{fill:#A7B8CB;}
	.st2{fill:#1B75B2;}
	.st3{fill:#FDFEFE;}
	.st4{fill:#FCFDFD;}
	.st5{fill:#FDFDFE;}
</style>
<g>
	<g>
		<path class="st0" d="M-59,396c0-127.8,0-255.7-0.1-383.5c0-3.7,0.8-4.6,4.6-4.6c240.7,0.1,481.3,0.1,722,0c3.7,0,4.6,0.8,4.6,4.6
			c-0.1,256-0.1,512,0,768c0,3.7-0.8,4.6-4.6,4.6c-240.7-0.1-481.3-0.1-722,0c-3.7,0-4.6-0.8-4.6-4.6C-59,652.3-59,524.2-59,396z"/>
		<path class="st1" d="M304.5,535.2c-15.7,0.3-35.9-0.9-55.6-6.9c-20.3-6.1-38.1-16.5-53.7-30.6c-17.5-15.9-32.2-34.1-42.9-55.3
			c-8.8-17.5-14.1-36.1-16.4-55.6c-1.7-14.4-2.4-28.9-1.8-43.3c1.5-36.5,9.5-71.1,30.6-101.8c15.9-23.2,36.9-40.8,61.3-54.7
			c18.5-10.5,38.3-17,59.2-19.6c16.5-2.1,33.1-1.6,49.7,0.5c19.7,2.5,38.4,7.6,56,16.7c25.1,12.9,44.3,32.1,58.4,56.4
			c11.5,19.8,18.7,41,21.9,63.7c0.5,3.9-0.9,4.3-3.9,4.2c-29.5-1.6-58.9-0.5-88.4-0.9c-4.1,0-5.4-1.1-6.5-5.3
			c-5.3-21.6-16.5-38.9-39.3-44.8c-24.4-6.3-47.1-2-65.9,15.6c-13.3,12.5-20.1,28.9-23.2,46.6c-4.6,26.8-4.1,53.4,5.7,79.1
			c8.4,22,21.8,39.9,44.9,48c17.7,6.2,35.7,6.9,52.3-3.9c11-7.2,17.7-17.9,22-30.1c1.7-4.9,3.5-9.7,3.9-14.9c0.2-2.6,1.6-3.4,4-3.2
			c12.9,0.9,25.8,1.8,38.8,2.6c7.1,0.5,14.3,0.9,21.4,1.3c8.1,0.4,16.3,0.8,24.4,1.2c4.4,0.2,6.7,1.4,6.5,6.8
			c-1,33.2-11.9,62.2-36.1,85.4c-23.8,22.8-52.6,35.6-85,40.8C334.4,535.1,321.8,535.1,304.5,535.2z"/>
		<path class="st2" d="M455.4,614.3c2.6-3.5,3.5-7.2,4.9-10.7c3.7-8.9,7.5-17.8,10.9-26.8c1.2-3,2.8-4,5.9-3.8
			c4.8,0.3,9.7,0.1,14.5,0.1c0.9,0,2.2-0.3,2.5,1c0.2,1.3-0.9,1.6-1.9,1.7c-4.4,0.4-5.2,3.5-5.2,7.1c0,12.3,0,24.7,0,37
			c0,8.5,0,8.5,8.4,12.6c-10.6,0-19.9,0-29.2,0c0.1-0.5,0.1-1,0.2-1.1c7.3-2.6,7.4-2.6,7.4-10.6c0-12.9,0-25.9,0-39.4
			c-2,1.3-2.1,3-2.7,4.4c-5.7,14-11.3,28.1-17,42.1c-0.8,1.8-0.6,5-3.3,4.9c-2.5-0.1-2.4-3.2-3.2-5.1c-6.3-14.8-12.4-29.7-19.5-44.6
			c0,3.6,0,7.3,0,10.9c0,7.5,0,15,0,22.5c0,10.7,0,10.7,9.4,16c-7.4,0-13.9,0-20.4,0c9.3-2,7.4-9.3,7.5-15.5c0.1-11,0-22,0-33
			c0-4.2-0.1-8.3-5.9-8.4c-0.9,0-1.6-0.6-1.6-1.6c0.1-1.1,1.1-1.1,1.9-1.1c5.8,0,11.7,0.1,17.5,0c2.6-0.1,2.8,2,3.5,3.6
			C445,589,450.1,601.5,455.4,614.3z"/>
		<path class="st2" d="M389.9,581.8c-5.6,13.8-11.2,27.7-16.8,41.5c-0.7,1.9-1.3,3.8-2.2,5.5c-0.8,1.5-0.5,4.2-3,4
			c-2.3-0.1-2.2-2.7-2.9-4.2c-6.4-15.2-12.6-30.4-19.9-45.4c0,7.3,0,14.6,0,22c0,4.5,0,9,0,13.5c0,9.7,0.1,9.8,8.6,13.7
			c-6.5,0-13.1,0-19.6,0c9.4-1.7,7.5-9,7.6-15.2c0.1-11,0-22,0-33c0-4.2-0.1-8.2-5.9-8.5c-0.8,0-1.7-0.5-1.7-1.5
			c0-1.5,1.3-1.2,2.2-1.2c5.7,0,11.3,0.1,17-0.1c2.6-0.1,2.9,1.8,3.6,3.4c5.1,12.4,10.2,24.9,15.4,37.3c2.1-0.5,2-2.3,2.5-3.6
			c4.7-11.2,9.3-22.4,13.7-33.7c1-2.6,2.2-3.6,5.1-3.5c5,0.2,10,0,15,0.1c1,0,2.6-0.6,2.8,1.1c0.1,1.2-1.2,1.5-2.2,1.6
			c-4.4,0.4-5.2,3.5-5.2,7.1c0,13.5,0.1,27-0.1,40.5c-0.1,5.4,3.2,7.4,8.3,8c-0.3,0.4-0.6,0.8-0.8,1.2c-9.4,0-18.8,0-28.2,0
			c0.1-0.6,0.1-1.1,0.2-1.1c7.3-2.7,7.4-2.7,7.4-10.6c0-13,0-25.9,0-38.9C390.6,581.9,390.2,581.9,389.9,581.8z"/>
		<path class="st2" d="M335.6,126.6c-9.5,0-19.1,0-28.7,0c0.1-2.2,1.6-1.8,2.6-2.1c3-0.7,4.5-2.6,4.5-5.7c0-6-0.1-12,0.1-18
			c0-2.2-0.8-2.9-2.9-2.8c-4.8,0.1-9.7,0.1-14.5,0c-2.1,0-3,0.6-2.9,2.8c0.1,6,0.1,12,0.1,18c0,3.1,1.4,5,4.5,5.7
			c1,0.2,2.4,0,2.8,2.1c-9.7,0-19.1,0-28.7,0c0.1-0.5,0.2-1.3,0.4-1.3c6.7-0.7,6.9-5.4,6.9-10.6c-0.1-10.7,0-21.3,0-32
			c0-9.9,0-9.9-8.2-15c10.4,0,19.9,0,29.4,0c0,0.4,0,1-0.1,1c-6.8,1.1-7.5,5.7-7.1,11.4c0.4,4.4-1.4,10.4,0.9,13
			c2.7,3,8.8,0.4,13.4,1c5.2,0.7,6.8-1.2,6.1-6.2c-0.4-3.4-0.2-7,0-10.5c0.2-4.4-1-7.6-5.9-8c-0.7-0.1-1.2-0.5-1.3-1.8
			c9.5,0,19.1,0,28.7,0c-0.1,0.5-0.1,1.1-0.2,1.1c-7.4,1.2-7.5,6.4-7.3,12.3c0.3,9.8-0.1,19.7,0.1,29.5c0.2,6.2-3,14.2,8.8,15
			C336.6,125.8,336.1,126.2,335.6,126.6z"/>
		<path class="st2" d="M33.9,632.6c-9.5,0-19,0-28.5,0c9.3-1.9,7.4-9.1,7.5-15.2c0.1-10.7,0.1-21.3,0-32c0-4.5,0.4-9.4-6.2-9.9
			c-0.5,0-1.2-0.8-1.2-1.3c-0.1-1.2,0.9-1.2,1.7-1.2c12.3,0.3,24.7-1.1,36.9,1.2c7.8,1.5,12.4,6.3,13,12.6
			c0.7,7.6-2.7,12.7-10.6,16.1c-0.9,0.4-1.8,0.8-3.2,1.3c7.4,9.3,13.1,19.5,21.9,28.7c-6.1,0-11.8,0.1-17.5,0c-1.7,0-2.2-1.9-3.1-3
			c-5.6-7.7-11.1-15.4-17.2-23c-0.3,6.8-1.1,13.6,0.1,20.4c0.6,3.3,4.2,3.2,6.8,4.1C34.1,631.8,34,632.2,33.9,632.6z"/>
		<path class="st2" d="M244.1,604.3c7.6,9.4,13.2,19.7,22,28.7c-6.2,0-11.8,0.1-17.5-0.1c-1.9-0.1-2.4-2.1-3.4-3.4
			c-5.5-7.6-11-15.2-17.2-23.9c0,7.6-0.1,13.8,0,20.1c0.1,4.4,4,4.9,7.6,5.6c-0.2,0.4-0.5,0.8-0.7,1.3c-9.5,0-19,0-28.5,0
			c9.3-1.9,7.4-9.1,7.4-15.1c0.1-10.8,0-21.6,0-32.4c0-4.4,0.2-9-6.1-9.4c-0.5,0-1.2-0.8-1.3-1.3c-0.2-1.1,0.9-1.2,1.7-1.2
			c12.4,0.4,25-1.3,37.3,1.3c7.6,1.6,11.9,6.2,12.5,12.4c0.7,7.5-2.6,12.7-10.1,16C246.8,603.3,245.8,603.7,244.1,604.3z"/>
		<path class="st2" d="M131.3,603.5c0,18.3-12.7,31.5-30.1,31.5c-17.8,0-30.5-13-30.5-31.1c0-19,12.5-32,30.7-31.9
			C118.9,572,131.3,585.1,131.3,603.5z"/>
		<path class="st2" d="M507.4,721.2c0.2-1.5,1.4-1.4,2.3-1.5c4.1-0.7,5.3-3.3,5.3-7.2c-0.1-13.7-0.1-27.3,0-41
			c0-3.8-1.2-6.5-5.5-6.9c-0.9-0.1-2-0.3-2.1-1.6c0.8-1.4,2.1-0.9,3.1-0.9c14.2,0,28.3,0.1,42.5-0.1c3.1,0,4.1,0.8,3.9,3.9
			c-0.3,3.8,0,7.7-0.1,11.5c0,0.9,0.4,2.3-1,2.4c-1.2,0.1-1.5-1.1-1.7-2.1c-2.1-10.4-8-12.7-20.5-12.6c-3.3,0-4.8,1.4-4.8,4.9
			c0.1,5.7,0.1,11.3,0,17c-0.1,2.5,0.9,3.1,3.2,2.9c5.7-0.5,8.4-4.1,9.8-9.2c0.4-1.3-0.1-3.7,1.9-3.5c2.1,0.2,1.1,2.4,1.1,3.7
			c0.1,7.3,0.1,14.7,0,22c0,1.3,1,3.5-1.2,3.6c-1.5,0.1-1.4-2-1.7-3.2c-1.6-6.7-4.1-9.2-9.5-10.1c-2.8-0.5-3.8,0.3-3.7,3.3
			c0.2,5.8,0.1,11.7,0,17.5c-0.1,3.6,1.6,5,5.1,5.2c10.3,0.7,18.3-2.8,23-12.3c0.6-1.2,0.9-3.5,2.8-2.8c2.1,0.7,0.4,2.6,0.2,3.9
			c-0.8,4.6-0.4,10.5-3.1,13.2c-2.8,2.9-8.8,0.8-13.5,0.9c-10.7,0.1-21.3,0.1-32,0C510.1,722,508.4,722.7,507.4,721.2z"/>
		<path class="st2" d="M172,608.2c9.7-0.7,19.3-0.5,29.5,0.6c-9.6,1.4-8,8.3-7.5,13.9c0.5,5.8-1.8,8.2-7.2,9.7
			c-7.7,2-15.3,3.3-23.1,1.9c-17.5-3.3-27.7-20.3-23.3-38.9c4.2-17.5,20.9-27.1,38-21.9c1.7,0.5,3.5,1.1,5.2,1.8
			c2.6,1,4.9,1.4,6.3-1.7c0.4-0.8,0.8-1.5,1.8-1.3c1.4,0.2,1.1,1.4,1.1,2.4c0,5.3,0,10.7,0,16c0,0.8,0.2,1.8-0.8,2.1
			c-1.3,0.4-1.7-0.5-2.2-1.4c-1.7-3.4-3.6-6.8-6.1-9.7c-4.3-4.8-9.4-7.5-15.9-6.3c-6.6,1.3-9.6,6.2-11.1,12.2
			c-2.9,11.9-2.8,23.7,1.4,35.4c1.7,4.5,4.8,7.5,9.5,8.7c8.6,2.3,12.6-0.7,12.6-9.5c0-1.3-0.1-2.7,0-4c0.4-5-1.3-8.1-6.8-8
			C172.8,610.1,172.1,609.8,172,608.2z"/>
		<path class="st2" d="M633.1,608.3c9.6,0,19.1,0,28.7,0c0,0.6,0,1.1-0.1,1.1c-6.1,1.1-7,5.2-6.9,10.6c0.3,10.6,0.1,10.7-10.5,13.3
			c-11,2.7-21.9,3-31.6-4.1c-12.2-9-15.8-27.4-8.3-41.5c7.1-13.3,21.5-18.7,36.7-13.7c3.6,1.2,7.6,4.6,10.6-1.4
			c0.6-1.1,2.2-0.5,2.2,1.2c0,5.8,0,11.7,0,17.5c0,0.7-0.2,1.4-1,1.5c-0.9,0.1-1.5-0.5-1.9-1.3c-1.8-3-3.4-6.2-5.5-8.9
			c-4.2-5.5-9.8-8.6-16.9-7.2c-6.9,1.4-9.7,6.8-11.1,12.8c-2.6,11.4-2.6,22.8,1.4,33.9c2.7,7.4,8.7,10.9,16.4,9.8
			c3.8-0.6,6.1-2.4,6-6.6c0-1.3,0.1-2.7,0-4C640.9,612.3,643.4,612,633.1,608.3z"/>
		<path class="st2" d="M-20.7,632.7c-9.4,0-18.8,0-28.1,0c9.2-2.6,6.7-9.9,6.8-16c0.1-11,0-22,0-32.9c0-3.9-0.3-7.5-5.3-8
			c-0.9-0.1-1.7-0.5-1.6-1.5c0.1-1.5,1.4-1.2,2.3-1.1c11.3,0.3,22.6-0.9,33.9,0.9c8.4,1.3,13,5.8,13.7,13.4
			c0.7,8.1-3.2,14.2-10.9,17.1c-4.3,1.6-8.8,1.9-13.3,1.6c-4.1-0.3-5.2,1.3-4.8,5.1c0.3,3,0.1,6,0.1,9
			C-28,628.7-28,628.7-20.7,632.7z"/>
		<path class="st2" d="M274.3,697.3c9.9,0,19.5,0,29.2,0c-9.4,2.4-7.3,9.9-7.1,16.1c0.2,4.4-1.6,6.2-5.4,7.4
			c-8.1,2.4-16.1,3.8-24.6,2.4c-17.4-3-27.5-19.6-23.4-38.7c3.6-16.8,19.9-26.9,36.3-22.5c2.1,0.6,4.1,1.3,6.2,2
			c2.8,1,5.5,2,7.1-1.8c0.3-0.8,1-1.5,1.9-0.9c0.4,0.3,0.7,1.1,0.7,1.7c0.1,5.5,0.1,11,0,16.5c0,0.8,0.2,1.8-0.9,2.1
			c-1.3,0.3-1.7-0.9-2.1-1.7c-1.7-3.3-3.4-6.5-5.9-9.2c-4.5-5.1-10-7.9-16.8-6.2c-6.5,1.6-9.1,6.9-10.5,12.8
			c-2.7,11.8-2.7,23.5,1.8,34.8c2.8,7.1,10.4,10.8,17.5,8.3c8.2-2.8,3.6-10,4.5-15.1c0.6-3.7-1.6-5.9-5.5-6.1
			C276.3,699,274.9,699.5,274.3,697.3z"/>
		<path class="st2" d="M471.8,697.3c10.1,0,19.8,0,29.4,0c-9.3,2.3-7.2,9.7-7,15.8c0.2,4.5-1.4,6.6-5.5,7.8
			c-8.1,2.4-16.1,3.8-24.6,2.3c-17-2.9-27.3-19.6-23.4-37.9c3.7-17.5,19.5-27.8,36.1-23.4c2.6,0.7,5.1,1.5,7.6,2.4
			c2.5,0.9,4.6,1.1,5.8-1.8c0.3-0.8,0.9-1.5,1.8-1.3c1.4,0.3,1,1.5,1,2.4c0,5.3,0,10.7,0,16c0,0.8,0.2,1.8-0.9,2
			c-1,0.2-1.5-0.6-1.9-1.3c-0.8-1.3-1.4-2.6-2.1-4c-2-3.7-4.6-7-8-9.4c-8.1-5.7-18.1-3.4-21.6,5.6c-5.2,13.6-4.9,27.4,0.8,40.9
			c2.6,6.2,11.1,9.5,17.4,6.8c7.4-3.1,3.3-9.9,4-15c0.5-3.6-1.6-6-5.6-6.1C474.1,699,472.8,699.2,471.8,697.3z"/>
		<path class="st2" d="M224.1,699.4c0-10.3,0-19.3,0-28.2c0-3.1-1.4-5.4-4.7-6.3c-1.2-0.3-2.6-0.4-3.2-2.5
			c5.8-0.9,11.4-0.2,16.9-0.4c0.6,0,1.4,0,1.5,0.9c0.2,1.1-0.6,1.6-1.4,1.7c-5.4,0.7-5.3,4.6-5.3,8.6c0,15.5,0,31,0,46.5
			c0,1.3,0.9,3.3-1,3.9c-1.7,0.5-2.5-1.4-3.4-2.5c-10.9-13.7-21.8-27.4-32.7-41c-0.9-1.1-1.5-2.6-3.7-3.4c0,7,0,13.7,0,20.4
			c0,3.2,0,6.3,0,9.5c0,6.2-1.1,13,9,13.6c-0.4,0.4-0.8,0.8-1.1,1.2c-6.3,0-12.6,0-18.9,0c0.1-0.5,0.1-1.1,0.2-1.1
			c6.7-0.8,7.4-5.4,7.3-10.8c-0.1-10.7-0.3-21.3,0.1-32c0.2-5.6-1.4-9.7-6-12.7c-0.7-0.5-1.6-0.9-1.5-1.8c0.2-1.4,1.5-1,2.4-1
			c4.5,0,9,0.1,13.5-0.1c2.3-0.1,3.2,1.3,4.3,2.8C205.4,675.9,214.3,687.1,224.1,699.4z"/>
		<path class="st2" d="M546.4,588.4c0,12.1,0,24.1,0,36.2c0,5,4.3,5.6,7.7,7.9c-6.3,0-12.6,0-18.9,0c-0.2-1.8,1.1-1.5,2-1.6
			c3.6-0.6,5.2-2.8,5.3-6.2c0.1-13.6,0.2-27.3,0.1-40.9c0-3.5-3-5.4-5.3-7.5c-0.8-0.7-2.4-0.8-1.8-2.4c0.5-1.2,1.7-0.6,2.6-0.8
			c0.3-0.1,0.7,0,1,0c10.2-1.8,17.4,1.8,23.1,10.8c5.8,9.1,13.3,17.1,20,25.5c1.8-0.6,1-2,1-2.9c0.1-7.7,0-15.3,0-23
			c0-3.9-1.2-6.9-5.5-7.6c-1-0.2-2.2-0.5-2.1-1.7c0.1-1.4,1.4-1.1,2.4-1.1c4.5,0,9,0,13.5,0c0.9,0,2.2-0.3,2.3,1.1
			c0.1,1.2-1.1,1.5-2.1,1.7c-4.1,0.7-4.6,3.7-4.6,7.1c0,16,0,32,0,47.9c0,1.2,0.7,2.9-0.7,3.6c-1.8,0.9-2.6-1-3.4-2.1
			c-11.1-13.9-22.2-27.9-33.3-41.8c-0.7-0.9-1.4-1.8-2.1-2.6C547.1,588.2,546.8,588.3,546.4,588.4z"/>
		<path class="st2" d="M344.3,125.4c9-0.3,8.3-6.3,8.3-11.9c0-11.8,0-23.7,0-35.5c0-4.3-0.4-8.2-5.9-8.7c-0.8-0.1-1.8-0.3-1.6-1.5
			c0.2-1.2,1.2-0.9,2-0.9c14.8,0,29.6,0,44.5,0c1.1,0,2.6-0.2,2.5,1.6c-0.1,5.4,0.6,10.8-0.4,16.4c-2.4-0.9-2.1-2.9-2.6-4.3
			c-2.9-8.4-14.3-13.6-22.4-10.4c-2.1,0.8-2.4,2.6-2.4,4.5c-0.1,5.7,0,11.3-0.1,17c0,2.5,1,3.1,3.3,2.9c6.3-0.5,8.8-4.6,10.1-10
			c0.2-0.9-0.1-2.8,1.6-2.5c1.6,0.2,1.1,1.8,1.1,2.9c0.1,8.8,0,17.5,0,26.2c-2.6,0.3-2.2-1.2-2.5-2.2c-0.7-2.7-1.2-5.6-3.2-7.7
			c-2.4-2.7-5.8-3.9-9.1-3c-2.8,0.8-1.1,4.1-1.2,6.2c-0.2,4.8-0.1,9.7-0.1,14.5c0,3.5,1.7,5,5.2,5.2c10.3,0.6,18.3-2.7,23.1-12.3
			c0.6-1.2,0.9-3.5,2.8-2.7c1.6,0.7,0.7,2.7,0.3,4c-1.2,4.5,0,10.7-3.3,13.1c-3,2.2-8.6,0.7-13.1,0.7c-10.5,0-21,0-31.5,0
			C348.2,127,346.5,127.5,344.3,125.4z"/>
		<path class="st2" d="M338,662c-7.9,5.4-8,5.4-7.9,15.5c0,9.2-0.2,18.3,0.1,27.5c0.4,11.2,5.7,15.7,15.7,14.2
			c5.8-0.9,10-4.6,11-10.7c1.9-12.6,0.9-25.2,0.7-37.9c-0.1-3.1-1.8-5.3-5.2-5.8c-1.1-0.2-2.4-0.3-3.2-2.8c6.1,0,11.9,0,17.7,0
			c0.7,0,1.3,0.5,1.1,1.2c-0.2,0.5-0.7,1.3-1.2,1.4c-5.7,0.9-5.1,5.2-5.2,9.2c-0.2,10.3,0.5,20.6-0.4,30.9
			c-1.1,12.8-8.9,19.4-22.1,19.1c-14.2-0.3-21.8-7-22.2-20.1c-0.3-10.1-0.1-20.3-0.2-30.5c-0.1-3.9,0.2-8.3-5.5-8.9
			c-0.8-0.1-1.6-0.7-1.3-1.8c0.2-0.8,1-0.7,1.6-0.7C320.3,662,329.1,662,338,662z"/>
		<path class="st2" d="M250.8,126.5c-10,0-20.1,0-30.1,0c10.3-1.7,8.2-9.5,8.2-16c0.1-12.2-0.1-24.3,0.1-36.5
			c0.1-3.9-1.4-4.5-4.7-3.8c-6.4,1.3-10.3,5-11.6,11.5c-0.2,1.1,0,3.2-1.8,3c-1.8-0.2-1.1-2.2-1-3.3c0.1-4.6-1.9-10.5,0.8-13.5
			c2.6-2.8,8.5-0.8,12.9-0.8c11.3-0.1,22.6,0.1,34-0.1c3,0,4.2,0.8,4,3.9c-0.2,3.1,0.1,6.3,0,9.5c-0.1,1.5,1,4-1.1,4.4
			c-2.4,0.5-1.8-2.4-2.2-3.7c-1.6-5.9-5.1-9.5-11.1-10.8c-3.3-0.7-4.8-0.1-4.7,3.8c0.2,12.6,0.1,25.3,0.1,37.9
			C242.6,122.1,242.6,122.1,250.8,126.5z"/>
		<path class="st2" d="M432.7,720.9c-4.9,1.5-24.1,1.5-27.9,0.1c1.5-2.4,5.7-0.3,6.3-3.7c0.7-3.5-1.4-6.4-2.3-9.5
			c-0.7-2.5-2.3-3.2-4.8-3.1c-4.2,0.2-8.3,0.2-12.5,0c-2.3-0.1-3.6,0.7-4.4,2.9c-3.4,8.8-3.3,9.4,4.3,14.4c-5.3,0-10.6,0-15.9,0
			c-0.4,0-1-0.3-1.2-0.6c-0.4-0.7,0-1.3,0.7-1.6c5.1-2,6-6.8,7.7-11.1c5.9-14.6,11.5-29.4,17.3-44c0.6-1.4,0.5-3.7,2.7-3.7
			c2.2,0,2.2,2.2,2.8,3.6c5.9,14.3,11.7,28.6,17.6,42.8C425.2,712.5,426.5,718.3,432.7,720.9z"/>
		<path class="st2" d="M169.8,721.6c-9.1,0-18.1,0-27.4,0c0.3-0.8,0.3-1.2,0.5-1.3c2-1.3,6,0.3,6.1-3.7c0.1-4.1-1.9-7.7-3.8-11.2
			c-0.6-1.1-2.1-0.6-3.3-0.6c-3.8,0-7.7,0.2-11.5-0.1c-3.4-0.3-5,0.9-6.1,4.2c-2.7,8.5-2.9,8.4,4.6,13.2c-5.3,0-10.6,0.2-15.9-0.1
			c-1.8-0.1-1.5-1.6-0.1-2.2c4.3-1.7,5.4-5.7,6.8-9.4c6.1-15.3,12-30.6,18.1-45.9c0.5-1.3,0.5-3.3,2.4-3.4c2.3-0.2,2.3,2.1,2.8,3.5
			c6.4,15.5,12.8,31,19.2,46.5c1.6,3.9,2.8,8.3,8.2,9.4C170.3,720.8,170.1,721.2,169.8,721.6z"/>
		<path class="st2" d="M328.6,632.6c-9.1,0-18.3,0-27.6,0c0.3-0.8,0.3-1.2,0.5-1.3c2.6-1.1,6.9,0.1,6.2-5.1
			c-1.1-7.2-3.6-10.4-8.5-10.4c-2.2,0-4.3,0-6.5,0c-8.6,0-8.4,0.1-10.9,8.3c-1.3,4.3-0.2,6.4,4.2,6.8c0.8,0.1,1.7,0,1.9,1.7
			c-5.7,0-11.5,0-18.9,0c8.6-4.1,9.5-11.5,12.1-17.9c5.2-12.8,10.1-25.7,15.2-38.5c0.6-1.5,0.4-4.2,2.9-4.1c2.3,0.1,2.2,2.6,2.9,4.2
			c6.3,15,12.4,30.1,18.6,45.1C322.4,625.7,323.9,630.1,328.6,632.6z"/>
		<path class="st2" d="M50.9,720.1c10.3,0,9-6.6,9-12.4c0-10.1,0-20.3,0-30.4c0-9.7,0-9.7-8.6-14.7c10.9,0,20.8,0,30.7,0
			c-0.1,0.6-0.1,0.9-0.2,0.9c-9.5,0.8-8.4,7.9-8.4,14.3c0,11.5,0,23,0,34.4c0,6,1,6.8,7,7c10.2,0.3,17.1-4.3,21-13.7
			c0.5-1.3,0.6-4,2.9-3.2c1.6,0.6,0.5,2.6,0.3,4c-0.4,2.5-0.9,4.9-1.4,7.3c-1.5,8.4-1.5,8.4-9.8,8.4c-12.1,0-24.3,0-36.4,0
			C55.5,722,53.8,722.6,50.9,720.1z"/>
		<path class="st2" d="M530.7,632.6c-10.9,0-20.7,0-30.6,0c0.1-0.6,0.1-1.1,0.2-1.1c6.1-0.7,7.5-4.5,7.4-10.1
			c-0.2-12.3-0.1-24.6-0.1-36.9c0-4.4-0.2-8.6-6.1-8.8c-0.9,0-1.6-0.6-1.4-1.6c0.2-1.1,1.2-0.9,2-1c8.5,0,17,0,25.4,0
			c0.8,0,1.8-0.3,2,0.8c0.3,1.4-0.9,1.7-1.9,1.7c-5.3,0.1-5.9,3.6-5.9,7.9c0.1,11.6,0,23.3,0,34.9
			C521.8,628.3,521.8,628.3,530.7,632.6z"/>
		<path class="st0" d="M26.8,589.5c0-2-0.2-4,0-6c0.2-2.6-1.4-6.1,2.6-7.1c3.7-1,7.6-0.5,10,2.7c4.1,5.4,3.5,11.7,1.6,17.6
			c-1.8,5.5-7.2,5-11.7,5.6c-2,0.3-2.7-0.5-2.6-2.4C26.9,596.5,26.8,593,26.8,589.5z"/>
		<path class="st3" d="M227.9,589.8c0-2.2-0.1-4.3,0-6.5c0.2-2.3-1.2-5.3,2-6.6c3.3-1.3,6.6-0.8,9.5,1.2c3.9,2.7,5.4,12.6,3,18.6
			c-1.5,3.8-7.5,6.4-12.7,5.9c-2.2-0.2-1.8-1.5-1.8-2.7C227.8,596.4,227.9,593.1,227.9,589.8z"/>
		<path class="st0" d="M116,603.8c0.2,6-0.3,12-2.3,17.7c-2.4,7-6.9,10.6-13,10.5c-6-0.1-10.7-3.7-12.7-10.8
			c-3.3-11.6-3.4-23.4-0.1-35c2.1-7.7,6.6-11.2,12.8-11.3c6-0.1,10.6,3.8,13.1,11.1C115.8,591.8,116.2,597.7,116,603.8z"/>
		<path class="st3" d="M-28,590.4c0-2.5-0.1-5,0-7.5c0.2-2.3-1.2-5.4,2.3-6.3c3.6-0.9,7-0.5,9.4,2.6c3.1,4,3.3,15.9,0.3,20
			c-2.7,3.7-6.8,3.7-10.8,3.7c-1.8,0-1.3-1.6-1.3-2.7C-28,597-28,593.7-28,590.4z"/>
		<path class="st4" d="M397.6,679.7c3.1,7.8,5.7,14.2,8.6,21.3c-5.1,0-9.6,0-14.2,0c-1.9,0-2.3-0.7-1.6-2.4
			C392.7,692.8,394.9,686.9,397.6,679.7z"/>
		<path class="st4" d="M135.4,679.7c3.1,7.7,5.7,14.1,8.6,21.3c-5.1,0-9.6,0-14.1,0c-1.9,0-2.3-0.8-1.7-2.4
			C130.4,692.8,132.7,686.9,135.4,679.7z"/>
		<path class="st5" d="M293.9,590.8c2.9,7.3,5.2,13.1,7.6,18.9c1,2.3-0.3,2.5-2,2.5c-4.3,0-8.6,0-13.6,0
			C288.5,605.2,291,598.7,293.9,590.8z"/>
	</g>
</g>
</svg>
