<?xml version="1.0" encoding="utf-8"?>
<!-- Generator: Adobe Illustrator 21.0.0, SVG Export Plug-In . SVG Version: 6.00 Build 0)  -->
<svg version="1.1" id="Layer_1" xmlns="http://www.w3.org/2000/svg" xmlns:xlink="http://www.w3.org/1999/xlink" x="0px" y="0px"
	 viewBox="0 0 612 792" style="enable-background:new 0 0 612 792;" xml:space="preserve">
<style type="text/css">
	.st0{fill:#FEFEFE;}
	.st1{fill:#020204;}
	.st2{fill:#F4BC0C;}
	.st3{fill:#EDB30C;}
	.st4{fill:#9C6705;}
	.st5{fill:#B57C08;}
	.st6{fill:#734904;}
	.st7{fill:#C38808;}
	.st8{fill:#493106;}
	.st9{fill:#533606;}
	.st10{fill:#D4980A;}
	.st11{fill:#EBB40B;}
	.st12{fill:#D2960A;}
	.st13{fill:#EDB40D;}
	.st14{fill:#956105;}
	.st15{fill:#9A6606;}
	.st16{fill:#E9BC0C;}
	.st17{fill:#C48708;}
	.st18{fill:#B8810C;}
	.st19{fill:#A77006;}
	.st20{fill:#F3D20E;}
	.st21{fill:#BD850C;}
	.st22{fill:#BB820D;}
	.st23{fill:#B57E0B;}
	.st24{fill:#825505;}
	.st25{fill:#674706;}
	.st26{fill:#603E05;}
	.st27{fill:#CA9E0D;}
	.st28{fill:#A9750D;}
	.st29{fill:#4B3106;}
	.st30{fill:#C88D08;}
	.st31{fill:#452E06;}
	.st32{fill:#B17C12;}
	.st33{fill:#111111;}
	.st34{fill:#B57C09;}
	.st35{fill:#38260E;}
	.st36{fill:#3B2806;}
	.st37{fill:#B37B09;}
	.st38{fill:#0A0604;}
	.st39{fill:#FDFDFB;}
	.st40{fill:#030204;}
	.st41{fill:#BDBCBB;}
	.st42{fill:#F5F5F3;}
	.st43{fill:#EDEDED;}
	.st44{fill:#F1F1F0;}
	.st45{fill:#CB9007;}
	.st46{fill:#AE7908;}
	.st47{fill:#D59A09;}
	.st48{fill:#141413;}
	.st49{fill:#BEBEBD;}
	.st50{fill:#787878;}
	.st51{fill:#ECECEC;}
	.st52{fill:#212120;}
	.st53{fill:#6D6D6D;}
	.st54{fill:#F4F4F4;}
	.st55{fill:#CDA10A;}
	.st56{fill:#989898;}
	.st57{fill:#D29A08;}
	.st58{fill:#A0A0A0;}
	.st59{fill:#1B1305;}
	.st60{fill:#CCCCCC;}
	.st61{fill:#343434;}
	.st62{fill:#222222;}
	.st63{fill:#E0DFDF;}
	.st64{fill:#5C5C5C;}
	.st65{fill:#A57208;}
	.st66{fill:#0F0F0E;}
	.st67{fill:#353535;}
	.st68{fill:#515150;}
	.st69{fill:#1A1A19;}
	.st70{fill:#DAA409;}
	.st71{fill:#252524;}
	.st72{fill:#2D2D2D;}
	.st73{fill:#634105;}
	.st74{fill:#B98315;}
	.st75{fill:#252525;}
	.st76{fill:#0E0D0D;}
	.st77{fill:#323232;}
	.st78{fill:#3E3E3E;}
	.st79{fill:#0B0A0A;}
	.st80{fill:#1F1F1E;}
	.st81{fill:#3C3C3C;}
	.st82{fill:#444444;}
	.st83{fill:#3A3A3A;}
	.st84{fill:#474747;}
	.st85{fill:#333333;}
	.st86{fill:#373737;}
	.st87{fill:#4E4E4F;}
	.st88{fill:#3F3F3F;}
	.st89{fill:#181716;}
	.st90{fill:#131312;}
	.st91{fill:#E1B31A;}
	.st92{fill:#875F07;}
	.st93{fill:#707070;}
	.st94{fill:#2A2A2A;}
	.st95{fill:#2C2C2C;}
	.st96{fill:#4A4A4A;}
	.st97{fill:#747473;}
	.st98{fill:#454545;}
	.st99{fill:#474746;}
	.st100{fill:#DCA20A;}
	.st101{fill:#131212;}
	.st102{fill:#424243;}
	.st103{fill:#6E6E6D;}
	.st104{fill:#404040;}
	.st105{fill:#595958;}
	.st106{fill:#4E4E4E;}
	.st107{fill:#F0B50C;}
	.st108{fill:#C5C5C5;}
	.st109{fill:#6A4405;}
	.st110{fill:#B47F0A;}
	.st111{fill:#483612;}
	.st112{fill:#E0A609;}
	.st113{fill:#E1A809;}
	.st114{fill:#EBB310;}
	.st115{fill:#B17808;}
	.st116{fill:#CC9109;}
	.st117{fill:#935E05;}
	.st118{fill:#B07807;}
	.st119{fill:#9D6806;}
	.st120{fill:#A87006;}
	.st121{fill:#D59909;}
	.st122{fill:#E0A709;}
	.st123{fill:#E9B10E;}
	.st124{fill:#DDA409;}
	.st125{fill:#B88008;}
	.st126{fill:#CB8F07;}
	.st127{fill:#DFDFDF;}
	.st128{fill:#E7E7E7;}
	.st129{fill:#DCDCDB;}
	.st130{fill:#EBEBEB;}
	.st131{fill:#E6AE0F;}
	.st132{fill:#D3D3D3;}
	.st133{fill:#E2A90B;}
	.st134{fill:#F3F3F3;}
	.st135{fill:#EEB40C;}
	.st136{fill:#E5BA0B;}
	.st137{fill:#DDB50C;}
	.st138{fill:#C88F09;}
	.st139{fill:#946711;}
	.st140{fill:#9F6B0E;}
	.st141{fill:#7E5809;}
	.st142{fill:#B47F13;}
	.st143{fill:#CBCBCB;}
	.st144{fill:#B78418;}
	.st145{fill:#C3C3C3;}
	.st146{fill:#070608;}
	.st147{fill:#E4B80E;}
	.st148{fill:#E1B50F;}
	.st149{fill:#2D2D2C;}
	.st150{fill:#685430;}
	.st151{fill:#C49522;}
	.st152{fill:#C8C8C8;}
	.st153{fill:#09090A;}
	.st154{fill:#B5810D;}
	.st155{fill:#110E0A;}
	.st156{fill:#B0B0B0;}
	.st157{fill:#5D5D5D;}
	.st158{fill:#6C6248;}
	.st159{fill:#D69D09;}
	.st160{fill:#F4D40E;}
	.st161{fill:#AA8609;}
	.st162{fill:#DBA509;}
	.st163{fill:#A47E09;}
	.st164{fill:#363636;}
	.st165{fill:#DCA209;}
	.st166{fill:#EFC70C;}
	.st167{fill:#EABD0B;}
	.st168{fill:#525252;}
	.st169{fill:#CD9208;}
	.st170{fill:#EBB30B;}
	.st171{fill:#EEB50C;}
	.st172{fill:#D79D09;}
	.st173{fill:#F4D30E;}
	.st174{fill:#EFD010;}
	.st175{fill:#C88B08;}
	.st176{fill:#D39A0A;}
	.st177{fill:#9C7008;}
	.st178{fill:#AA8109;}
	.st179{fill:#9E710C;}
	.st180{fill:#E0A909;}
	.st181{fill:#987606;}
	.st182{fill:#797979;}
	.st183{fill:#EABC0B;}
	.st184{fill:#F0D42B;}
	.st185{fill:#EEB80B;}
	.st186{fill:#ECB40B;}
	.st187{fill:#D7AC0A;}
	.st188{fill:#D5A80A;}
	.st189{fill:#F5D742;}
	.st190{fill:#F3D541;}
	.st191{fill:#EFD22A;}
	.st192{fill:#7A7A7A;}
	.st193{fill:#636362;}
	.st194{fill:#EDCC0E;}
	.st195{fill:#E9CA25;}
	.st196{fill:#845D06;}
	.st197{fill:#DDB40B;}
	.st198{fill:#EBC00C;}
	.st199{fill:#E1BB0C;}
</style>
<g>
	<g>
		<path class="st0" d="M175,396.5c0-50.8,0-101.7-0.1-152.5c0-3.4,0.7-4.1,4.1-4.1c85.7,0.1,171.3,0.1,257,0c3.4,0,4.1,0.7,4.1,4.1
			c-0.1,102-0.1,204,0,306c0,3.4-0.7,4.1-4.1,4.1c-85.7-0.1-171.3-0.1-257,0c-3.4,0-4.1-0.7-4.1-4.1C175,498.8,175,447.7,175,396.5z
			"/>
		<path class="st1" d="M370,358.9c5.2,8,11,15.5,17.6,22.5c7.8,8.3,10.4,19.4,14.2,29.7c4.1,11.1,5.9,22.7,5.1,34.5
			c-0.4,4.9-1.3,9.9-3.1,14.6c-1.4,2.4-2.6,4.8-4.2,7c-1.1,1.5-2.1,3.1-3.2,4.5c-0.8,0.9-1.7,1.8-2.7,2.6c-6,3.9-12.4,6.1-19.7,4.1
			c-1.9-0.5-3.8-1.2-5-3c-3.2-4.8-4-10.1-3.2-15.7c0.4-2.9,1.6-5.4,4.2-7c0.4-0.3,0.9-0.5,1.4-0.7c3.1-0.7,6.1-2.1,9.4-2.3
			c1.6,0.6,3.4,0.2,5,0.6c1.8,0.8,3.7,1.1,5.5,1.8c1.7,0.6,3.2,1.3,4.2,2.9c0.9,1.9,0.3,3.7-0.3,5.6c0.1,0.3-0.5,1.1,0.2,0.9
			c1.6-0.6,2.9-1.8,3.6-3.4c0.5-1.4-0.1-2.3-1.2-3c-0.5-0.3-1-0.7-1.5-1.1c-0.7-0.5-1.4-1-2.2-1.3c-2.2-0.6-4.4-1.2-6.6-1.9
			c-2-1.3-4.5-0.2-6.5-1.2c-2-0.5-2-2.1-2.2-3.7c0-0.5,0-1,0-1.5c0.1-1.2,0.5-2.4,0.9-3.5c0.4-1.3,0.9-2.6,1.3-3.9
			c0.1-0.4,0.2-0.9,0.4-1.3c0.7-1.9,0.4-3.9,0.8-5.9c0.1-0.4,0.2-0.9,0.3-1.3c0.4-1.3,0.4-2.7,0.3-4.1c0-3.9-0.8-7.6-1.7-11.3
			c-0.5-0.8-0.9-1.7-1.1-2.6c-0.2-1.3-0.4-2.7-0.8-3.9c-0.3-1.9-1-3.6-2.8-4.6c-1.3-0.8-1.9-2.3-2.8-3.4c-1-1.1-1.9-2.3-3-3.2
			c-1-1.1-2.2-2-3.6-2.6c-1.1-0.9-2.2-1.9-3.5-2.4c-0.6-0.2,0.3-0.3-0.3-0.1c-0.1,0.1-0.2,0.2-0.2,0.3c0,0.2,0.1,0.2,0.3,0.2
			c1.1,0.5,2.2,0.9,3.1,1.7c1.5,0.9,3,1.7,4.1,3.1c1.2,1,2.2,2.2,3.3,3.4c0.5,0.8,1,1.6,0.6,2.6c-0.6,1-1.6,1.2-2.6,1
			c-3.2-0.6-5.1,0.4-5.7,3.8c-0.4,2-1.8,3.1-3.9,3.2c-2.3-0.5-2.6-2.8-3.7-4.3c-1.9-6.3-6.4-11.2-9.2-17c-0.1-2-1.4-3.2-2.7-4.5
			c-1.1-2.8-1.3-5.7-2.2-8.5c-1.3-7.7-5.6-14-8.9-20.9c-2-4.3-3.1-9-5.6-13.1c-0.3-1.2,0.1-2.3,0.5-3.5c-0.1-3.7,3.6-7.6-0.5-11.2
			c-0.9-0.8-1.7-1.7-1.9-3c3.6-6,5-12.3,2.5-19.2c-0.9-4.5-3.4-7.9-7.1-10.5c-5-2.7-10.7-1.5-14.6,3.1c-1.1,1.3-2,2.7-2.6,4.2
			c-0.8,1.5-0.7,3.1-0.7,4.7c0,1-0.2,1.9-0.6,2.7c-0.7,1-1.6,0.7-2.5,0.5c-0.4-0.1-0.8-0.3-1.2-0.6c-0.5-0.4-0.9-0.8-1.3-1.3
			c-0.7-0.8-1.3,0-1.9,0.2c-0.6,0.2-1.3,0.1-1.9-0.2c-2.1-1.2-4.5-2.1-5.7-4.5c-0.4-0.5-0.8-1.1-1.1-1.7c-2.5-3.4-4.6-8.2-9.9-6.4
			c-4.8,1.6-5.8,6.3-5.8,11.1c-0.4,6.3,0.4,12.5,2.7,18.4c0.2,2.8-1.6,4.7-2.8,6.8c-1.1,1.8-1.4,3.6,0.1,5.4
			c0.3,0.4,0.6,0.8,0.8,1.2c1.3,2.2,2.1,4.6,2.2,7.1c0,3.4,0.3,6.9-0.3,10.3c-0.2,0.7-0.5,1.4-0.9,2.1c-2.8,4.6-5.7,9.1-8.2,13.8
			c-0.6,1.2-1.4,2.3-2,3.5c-0.9,1.6-1.4,3.3-2,5c-0.7,2-0.6,4.2-2,5.9c-4,4.6-4.6,10.5-5.7,16.1c-1.2,4.7-3.9,8.7-5.9,13.1
			c-4,8.5-5.9,17.5-7.3,26.7c-0.6,1.9-0.5,3.9-0.6,5.9c-0.1,1.8,0,3.8-2.4,4.4c-1.5-0.2-2.2-1.4-3.1-2.3c-0.7-1.3-1.5-2.7-1.8-4.2
			c-0.2-1-0.3-2-0.4-3c-0.2-1.7-0.9-3.4-0.9-5.2c0.1-1.7,0.4-3.4,0.3-5.1c-0.1-1.2,0.1-2.3-0.1-3.4c0.1,3,0.4,6.1-0.8,8.8
			c-1.7,3.9-1,6.9,2,9.7c0.4,0.5,0.8,1.1,1.1,1.7c0.9,1.3,2,2.4,3.3,3.3c2.4,1.4,3.7,4,5.9,5.7c2.2,2.3,4,5,7.2,6.1
			c5.6,4.3,11.7,8.2,17.3,12.6c2.1,1.6,4,3.5,5.8,5.4c7.3,8.1,5.1,15.6-5.3,18.5c-1.5,0.2-2.9,0.6-4.4,0.3
			c-3.5-2.7-5.1-6.8-7.7-10.2c-5.2-8-8.8-16.9-15.6-23.8c-3.3-5.1-7.1-9.8-12.8-12.5c-1.7-0.9-3.3-0.4-5,0.1c-2,0-3.6,2.2-5.8,1.2
			c-4.3-7.2-2.6-14.6,1.2-20.7c7.9-12.6,13-26,16.8-40.2c1.7-6.4,5.9-11.7,10.4-16.7c5.1-5.6,9.1-12.1,14.3-17.7
			c0.5,0.6,0.6,1.4,1.4,2.6c-0.4-1.5-1-2-1.4-2.6c-0.3-1.8,1.3-2.6,2.1-3.7c5.6-8.3,4.3-17.4,3.3-26.5c-0.1-0.8-0.4-1.6-0.3-2.4
			c0.3-12.9-1.9-25.8-1-38.7c1-14.5,5.7-27.2,19-34.9c4.8-2.8,10.1-4.4,16-4.9c14.8-1.2,27.7,2.9,38.8,12.2
			c7.9,6.6,12.1,15.7,14.1,25.7c2.1,10.2,1.8,20.6,2.2,30.9c0.4,12.3,4.5,23.6,11.1,34c0.8,1.3,2.1,2.5,1.6,4.4
			C367.7,357.7,368.1,358.9,370,358.9z"/>
		<path class="st2" d="M409.8,476c0,0.3,0,0.7,0,1c-0.9,5.5,2.9,9.3,5.1,13.6c0.6,1.3,2.5,1.5,4.1,1.6c1.9,0.1,3.6,0.5,5.1,1.7
			l-0.1-0.1c0.7,0.8,1.7,1.1,2.4,1.7c3.4,2.6,3.1,5.5-0.1,8.1c-6.5,5.2-14.1,8.6-21.3,12.6c-0.7,0.4-1.5,1-2.3,0.9
			c-6.1-1.2-10.5,2.3-15.2,5.1c-1.2,0.7-2.4,1-3.8,1.1c-3.1,0.1-5.8,0.9-8.4,2.8c-2.7,2-5.5,2-8-0.6c-0.3-0.4-0.7-0.8-1.1-1
			c-5-2.2-6.7-6.1-6.1-11.3c0.6-4.9,1.2-9.8,1.4-14.7c0.2-5,3.4-7.2,8.3-5.6c5.7,1.9,11.5,1,17.2,0.1c3.9-0.7,3.7-4.6,4.3-7.6
			c0.5-2.7,2.1-4.5,4.8-5.2c1.9-0.5,3.1-1.6,4.5-2.9C403.3,474.9,406.3,473.6,409.8,476z"/>
		<path class="st1" d="M346,533.1c-16-2.7-32.1-2-48.2-2.1c-4.8,0-9.4,1.8-14.2,1c-3.3-0.6-3.2,4.5-6.5,3.8
			c-0.9-0.8-1.1-1.8-1.1-2.9c1.4-5.7,1-11.3-1.6-16.6c-0.1-0.5-0.2-1.1-0.1-1.6c0.2-1.6,1.1-2.4,2.7-2.4c9.5,2.9,19,4.2,29,2.7
			c14.6-2.1,26.5-9.2,36.8-19.4c2.2-1.5,3.8-3.9,6.4-5c0.5,0,1,0.1,1.4,0.5c0.6,0.9,0.6,1.9,0.4,3c-0.5,1.7-0.5,3.6-1,5.3
			c-1,10.6-3.6,21.1-3.1,31.8C346.7,532,346.4,532.6,346,533.1z"/>
		<path class="st3" d="M361,513c-0.6,7.5,4.4,10.4,10.2,12.9c1.6,0.7,1.8,0.4,2.9-0.7c4.4-4,11.1-2.1,15.8-5.7
			c3.6-2.7,7.3-4.9,12.4-3.4c1.5,0.4,3.7-1.9,5.7-2.7c6.7-2.8,12.4-7.3,18.5-11.2c2.4-1.5,1.5-3.3,0.5-5.2c-0.7-1.3-2.6-1.6-3-3.2
			c2.6,0.9,5.3,1.6,7,4c1.2,3.4,0.2,5.8-2.8,8c-6.1,4.6-12.4,8.6-19.7,11.1c-4.3,1.5-8.2,3.9-12.8,4.5c-0.4,0.1-0.9,0.2-1.3,0.2
			c-2.3,0-4,1.4-5.7,2.6c-0.4,0.3-0.7,0.5-1.1,0.7c-3.7,1.6-7.3,3.4-10.8,5.4c-0.4,0.2-0.8,0.3-1.3,0.5c-1.6,0.3-3.1,0-4.5-0.8
			c-1.1-0.7-2.2-0.7-3.5-0.5c-2.3,0.2-4.1-1.1-6-2.3c-2.7-4.8-6.2-9.5-2.9-15.4C359.9,511.4,360.5,512.1,361,513z"/>
		<path class="st4" d="M349.9,493.9c0-0.9,0.1-1.8,0.1-2.7c2.5,0.1,2,2.1,2.4,3.6c1.3,6,1.2,12.1,0.8,18.1c-0.9,2.7-1,5.5-0.8,8.3
			c0.9,11.1,8.8,17.5,19.8,16c1.1-0.2,2.3-0.4,3.4-0.4c3.5,0.2,6-1.9,8.8-3.4c1.4-0.3,2.7-0.4,3.7,0.8c-1.3,1.3-2.7,2.7-4,4
			c-3.4,2.1-7,3.8-10.8,5c-4.5,0.6-8.9,1.1-13.2-0.6c-5.5-2.2-9.4-5.9-10.4-12.2c-0.8-5.2-2-10.2-1.2-15.6
			C349.4,507.8,348.9,500.8,349.9,493.9z"/>
		<path class="st5" d="M185.9,525c-4.3-2.7-3.3-6.4-2-10.1c1.8,6.2,6.7,7.4,12.4,8.5c9.9,1.8,19.9,3.6,29.9,4.6
			c2.7,0.4,5.4,0.4,7.9,1.3c3.4,1.7,7,2.4,10.7,2.8c4.4,1.9,8.8,2,13.2-0.2c1-0.5,2.1-0.8,3.3-0.5c1.3,0.7,0.7,1.6,0.2,2.5
			c-0.9,1-2.2,1.8-3,2.9c-0.3,0.4-0.7,0.6-1.2,0.8c-0.9,0.4-1.9,0.5-2.9,0.5c-6.6,0.2-12.9-2-19.3-3.2c-0.5-0.1-1-0.3-1.5-0.5
			c-5-1.9-10.4-2.4-15.6-2.8C207.2,531,196.8,526.9,185.9,525z"/>
		<path class="st6" d="M274.9,515c0.1,0.3,0.2,0.5,0.2,0.8c1.5,5.2,3.6,10.4,0,15.6c-6.3,9.3-14.8,14.3-26.1,11.4
			c-2.4-0.6-4.9-0.9-7.1-1.9c-0.3,0-0.6-0.1-0.9-0.2c-3-2.2-6.6-2.8-10.1-3.8c-1.3-0.4-3,0.8-3.9-0.9c-0.4-0.5-0.3-1,0.1-1.4
			c2.6-1.6,5-0.6,7.6,0.1c7.6,2.2,15.2,4.5,23.3,2.8c2.5-1.2,4.9-2.6,7.3-4.2c4.9-3.4,8.3-7.5,7.6-13.9c-0.2-1.5-0.1-3,0.8-4.3
			C274,514.8,274.4,514.7,274.9,515z"/>
		<path class="st7" d="M227,529c-10.4-0.2-20.5-2.2-30.6-4.4c-1.3-0.3-2.6-0.5-3.9-0.6c-6.4-0.8-8-2.5-8.6-9.1c0,0,0,0.1,0,0.1
			c1.1-1.5,1.3-3.4,2.1-5.1l-0.1,0.1c1.7-2.1,1.4-4.7,2.1-7.1c0.1-1.3,0.2-2.6,0.2-3.9c0.8-2.9-0.2-5.9,0.5-8.8
			c2.6-0.7,2.7,1.6,2.9,2.9c0.7,6.5,1.9,13.1-1.3,19.5c-2.3,4.7-0.8,7.7,4.4,8.9c6.3,1.5,12.7,2.5,19.1,3.2c4.4,0.5,8.9,0.9,13,2.9
			C227.2,528,227.3,528.5,227,529z"/>
		<path class="st8" d="M346,533.1c-2.3-8.3,0.8-16.4,1.5-24.5c0.3-3.2-0.2-6.6,1.6-9.6c1.1,6.6,0.4,13.2-0.7,19.8
			c-1.7,10.1,3.4,20.7,12.3,23.5c5.3,1.6,10.8,1.7,16-0.6c1.4-0.9,2.8-2.1,4.5-0.5C373.3,549.8,347.9,547.4,346,533.1z"/>
		<path class="st9" d="M241.9,541c5.6-0.6,10.8,2,16.6,1.2c10.5-1.5,19-12.5,16.8-22.9c-0.2-1.1-0.1-2.3-0.2-3.5
			c3.4,5.4,3.9,11.1,1.9,17.1c-0.8,1.2-0.8,2.8-2,3.8c-0.6,0.4-1.2,0.8-1.8,1.2c-1.4,0.6-2.4,1.9-3.7,2.7c-1.9,1-3.6,2.3-5.4,3.4
			c-0.6,1.5-2,0.6-2.9,1c-3.8-0.1-7.5-0.2-11.2-1C246.9,543.8,244.2,543,241.9,541z"/>
		<path class="st10" d="M408,516c6.9-2.5,13-6.4,19-10.5c2.9-2,4.6-4.1,4-7.6c1.7,4.9,0.2,9.3-5.1,13.1c-5.5,3.9-11.7,6.7-18.1,9
			c-2,0.9-4,2.4-6.4,1.4c-1.4-1.6,0.3-1.8,1.1-2.3C404.4,518,406.3,517.3,408,516z"/>
		<path class="st11" d="M409.8,476c-7.9-0.2-12.8,5.1-17.8,10c-0.9,2.8-1.4,5.8-4.7,7c-1.8,0.6-3.7,1.3-4-1.6
			c3.6-4.4,7.2-8.9,11.3-12.9c1.3-1.3,3.1-2.2,2.4-4.4c-0.5-2-0.4-3.7,2.1-4.2c3.5,0.8,7.3,0,10.8,1.2
			C409.8,472.7,409.8,474.3,409.8,476z"/>
		<path class="st12" d="M218,457.9c0-0.3,0.1-0.6,0.2-0.9c0.6-0.3,1-0.2,1.4,0.4c0.9,1.8,0.7,3.6,0.4,5.4c-1.2,3.8-2.6,7.4-6.6,9.1
			c-2.4,0.7-4.8,1.2-7.1,1.9c-1,0.2-1.9,0.2-2.9,0c-4.3-2.6-7.5-1-10.3,2.6c-1.5,1.8-1.4,4-1.8,6.1c-0.1,0.7-0.3,1.3-0.6,2
			c-0.5,0.6-1,1-1.8,0.6c-0.9-1.2-1-2.7-1.5-4c-0.1-0.5-0.1-1,0-1.5c0.4-4.1,1.6-7.7,5.7-9.7l-0.1,0.1c3.7-1.1,7.5-1.3,11.2-0.8
			c2.7,0.4,4.8-0.2,7-1.5C215,465.6,215.7,461.1,218,457.9z"/>
		<path class="st13" d="M424.1,493.9c-0.5-0.1-1-0.2-1.5-0.2c-7.5,0.9-10.3-4.1-12.9-9.9c-1.1-2.5-1.2-4.6,0.1-6.9
			c2.9,6.3,7.1,11.5,13.1,15C423.9,492.5,424,493.2,424.1,493.9z"/>
		<path class="st14" d="M258,538c-7.7,3.1-15,0.5-22.3-1.7c-2.9-0.9-5.7-1.6-8.7-1.3c-4.2,0.2-8.1-1.3-12.1-2
			c-1.8,0.5-3.2-1.1-4.8-1.2c1.8-2.7,4.6-1.5,6.6-1.2c6.1,1,12.4,1.4,18.4,3.3l0,0c6.6,1.5,12.9,4.7,20,3c1,0,2,0,3,0
			c0.3,0.2,0.4,0.5,0.3,0.7C258.2,537.9,258.1,538,258,538z"/>
		<path class="st15" d="M235,534c-5.8-0.9-11.6-1.8-17.4-2.6c-2.6-0.4-5.2-1-7.6,0.5c-8.1-1.9-16.3-3.7-24.1-6.8
			c2.6,0.3,5.3,0.3,7.8,1c12.4,3.3,25.2,4.2,37.8,6.3C232.7,532.6,234.2,532.8,235,534z"/>
		<path class="st16" d="M409.8,471c-1.7,0.5-3.4,2.9-5.3,0.1c-0.7-1-1.6-0.4-2.4,0.4c-2.7,3-3,0.8-3.2-1.6c-1.2-1.3,0-2.2,0.5-3.1
			c0.4-1.2,1-2.1,2.3-2.3c2.1,0.3,3.9,2,6.2,1.3C409.5,467.3,410.3,468.9,409.8,471z"/>
		<path class="st17" d="M404,522.8c-2.2,1.5-4.1,3.6-6.8,4.2c-3.1,1.6-6,3.6-9.3,4.8c-1.3,0.3-2.5,0.4-3.7-0.4
			c-0.4-3.4,2.9-3.4,4.6-4.9c1.5-1.3,3.6-1.8,5.5-2.3c1.6-0.3,3.1-0.7,4.4-1.9c0.8-0.5,1.6-1,2.6-0.8
			C402.2,521.8,403.9,520.8,404,522.8z"/>
		<path class="st18" d="M212,468c-2.9,2.6-6,3-9.9,2.1c-2.9-0.7-6.2-0.2-9.2-0.2c3.1-2.4,6.7-2,10.3-1.9c2.6,0,5.2,0.1,7.7-1.1
			C211.9,466.6,212.2,467.1,212,468z"/>
		<path class="st19" d="M388,531c2.7-2.1,5.6-3.9,9.2-4c-2.2,3.4-5.5,5.4-9,7c-1.4,0-2.8,0-4.1,0c-0.1-0.2-0.1-0.4-0.2-0.6
			C384.5,531.4,386.7,532,388,531z"/>
		<path class="st20" d="M408,465.9c-1.7,2.2-1.9,2.2-6.1-0.9c-0.4-2-0.4-3.7,2.3-3.9C405.8,462.4,407.9,463.4,408,465.9z"/>
		<path class="st21" d="M188,481c1.4,1.1,0.8,2.6,1,4c1.3,1.7,2.3,3.3,0,5c-0.4,3,0.8,6.1-0.8,9c0.4-4.7-1.8-9.2-1-14
			C188,483.7,186.6,482.1,188,481z"/>
		<path class="st22" d="M212,468c-0.4-0.4-0.7-0.7-1.1-1.1c3.1-2.5,3.6-6.9,7.1-9.1C217,461.8,216.2,466,212,468z"/>
		<path class="st23" d="M193,469.9c-2.6,2.9-4.5,6.2-5,10.1c-0.9,0.2-1.5,0-1-1.1C186.3,473.6,188.1,470.9,193,469.9z"/>
		<path class="st24" d="M381.1,541c-1.5-0.2-2.8,0.3-4.1,1c-1,0.6-2,0.8-3,0c3.2-1.8,6.2-4,10.2-3.9
			C384,539.9,383.2,541.1,381.1,541z"/>
		<path class="st25" d="M214.9,533c4.1,0.2,8.2,0.6,12.1,2c0,0.4,0,0.8,0,1.1C222.8,535.6,218.7,534.7,214.9,533z"/>
		<path class="st26" d="M230.9,537c3.7,0.3,7.5,0.4,10.1,3.8C237.4,540.1,234.1,538.7,230.9,537z"/>
		<path class="st27" d="M404.2,461c-1.5,0.9-2,2.4-2.3,3.9c-0.7,0.7-1.3,1.4-2,2c-0.4,0.4-0.8,0.4-1.1-0.1c1.7-2.2,1.4-6,5-6.8
			C404,460.4,404.1,460.7,404.2,461z"/>
		<path class="st28" d="M219,457.1c-0.3,0-0.6-0.1-0.9-0.1c0-0.6,0-1.2,0-1.8c2-0.6,3.4-2.6,5.8-2.3c0.4,0.3,0.5,0.6,0.4,1
			c-0.2,0.6-0.6,1-1.1,1.4c-0.7,0.4-1.4,0.8-2,1.3C220.5,457.1,219.9,457.6,219,457.1z"/>
		<path class="st29" d="M249.9,544c3.7,0.4,7.6-1.2,11.2,1c0,0,0,0,0,0c-2.4,0.7-4.8,0.7-7.2,0C252.6,544.6,250.9,545.8,249.9,544z"
			/>
		<path class="st30" d="M404,522.8c-0.8-1-1.9-0.8-3-0.9c-0.1-0.2-0.2-0.3-0.3-0.5c0.1-0.2,0.2-0.3,0.3-0.5c2.3-0.3,4.6-0.7,6.9-1
			C407.5,522.2,405.4,522.1,404,522.8z"/>
		<path class="st31" d="M264,544.1c1.2-1.9,2.8-3.4,5-4.1c0.6,0.6,0.5,1.2,0,1.8C267.5,542.9,266.3,544.6,264,544.1z"/>
		<path class="st32" d="M187,478.9c0.3,0.4,0.7,0.7,1,1.1c0,0.3,0,0.7,0,1c-0.2,1.3,0.4,2.8-0.8,4C187,482.9,184.5,481,187,478.9z"
			/>
		<path class="st33" d="M370,358.9c-0.2,0.7-0.1,2-1.3,1.2c-1.4-1-2.5-2.3-0.9-4C368.6,357,369.3,357.9,370,358.9z"/>
		<path class="st34" d="M188,502.9c0,2.6,0.5,5.3-2.1,7.1C186.3,507.5,186.6,505.1,188,502.9z"/>
		<path class="st35" d="M269,541.8c0-0.6,0-1.2,0-1.8c1.4-0.6,2.3-2.2,4.1-2C272,539.5,270.9,541.2,269,541.8z"/>
		<path class="st36" d="M253.9,545c2.4,0,4.8,0,7.2,0C258.7,546.6,256.3,546.6,253.9,545z"/>
		<path class="st37" d="M185.9,509.9c0.1,2-0.3,3.8-2.1,5.1C183.9,513,184.4,511.2,185.9,509.9z"/>
		<path class="st38" d="M275,536.9c0.2-1.5,0.7-2.9,2-3.8c0,0.9,0,1.9,0,2.8C276.3,536.2,275.7,536.5,275,536.9z"/>
		<path class="st39" d="M344,495.9c-11.1,12.1-24.7,19.2-41.1,20.7c-9,0.8-17.8,0.4-26.2-3.6c-1.5-0.8-3.4-1.1-4.7-2.3
			c-0.5-0.4-1-0.8-1.4-1.4c-0.7-1.1-1.4-2.1-2.2-3.2c-0.6-0.9-1-1.9-1.5-2.9c-0.8-1.9-0.8-3.4,1.6-4c10.4-2.7,12.5-10.1,4.8-17.6
			c-6.8-6.7-15.3-11.3-22.5-17.6c-2.7-1.8-4.6-4.3-6.9-6.6c-5.7-4.6-3.2-10.8-3.1-16.5c0.4-14.6,6.9-27.1,13.2-39.7
			c0.2-0.7,0.5-1.3,0.9-1.8c3.2-2.2,6.2-4.6,8.9-7.4c0.4-0.3,0.8-0.5,1.2-0.7c0.7-0.2,1.3-0.3,2-0.3c3.1,2.1,3.3-2.4,5.4-2.4
			c0.4-0.2,0.8-0.4,1.3-0.5c1-0.5,2-0.9,3-1.5c-11.1-3.7-12.8-6.2-11-15.9c2.2-4.9,5-9.4,8.1-13.7c4.1,0.9,6.8,3.7,8.7,7.1
			c2.1,3.9,6.9,4.4,9.2,8c0.5,0.8,1.5-0.1,2.1-0.6c1.7-1.4,4-1.6,5.7-2.9c0.9-0.6,2-1.1,3-1.4c1.6-0.3,2.8-1,3.8-2.3
			c6.5-2.4,11.7-6.5,16.3-11.5c2.3-2.5,5.5-3.4,9-3.2c2.2,0.3,2.6,2.8,4.3,3.7c3.8,6.7,8.1,13.1,9,21.1c-3.4,3-7,5.7-11.5,7.2
			c-6.1,2-12.3,2.7-18.6,2.8c2.7,2.9,6,4.2,9.8,4.9c9.5,1.7,18.1,5.4,25.2,12.2c2.5,2.4,5.1,4.3,8.8,2.8c2.4,0.4,1.4,3.1,2.8,4.2
			c2.4,2.4,2.2,5.8,3.3,8.6c1.7,12.2,2.5,24.3,0.1,36.5c-0.4,1.1-0.9,2.1-1.7,2.9c-3,2.2-6.9,0.3-9.9,2.2c-0.8,0.5-1.3,1.1-1.7,2
			c-0.1,0.4-0.3,0.9-0.4,1.3c-0.6,2.9,0.5,5.9-1.1,8.6c-7.2,4.3-8.2,6.6-6.3,15.1C344.7,489.5,345.5,492.7,344,495.9z"/>
		<path class="st2" d="M222.9,454.9c0.3-0.3,0.6-0.7,0.9-1c1.6-0.8,3.2-2.1,5.2-0.9c6.1,2.5,10.3,6.9,13.1,12.8
			c2.3,3.1,4.6,6.4,6.5,9.8c0.8,1.8,1.8,3.6,3,5.2c1.6,3,3.7,5.7,5.3,8.7c1.4,2.9,3.9,5.2,4.9,8.3c0.2,1.2,0.2,2.6-1,3.1
			c-1.9,0.7-2.1-1.7-3.1-2.3c1.2,3.5,3.9,6.4,3.9,10.4c0.3,3.5,0.8,6.9,0.3,10.4c-0.6,4.2-2,6.6-6.8,7.6c-5.1,1-9.8,2.6-15,0.7
			c-2.1-0.8-3.6-2.5-5.6-3.1c-3.9-1.2-7.8-2.8-12-3c-8.7-0.4-17.2-2.1-25.6-4.6c-3.5-1-4.1-3.1-2.5-6.3c1.2-2.3,2.7-4.7,1.8-7.5
			c0-6.2,1.6-12.4-0.6-18.7c-1.3-3.8,2-7.4,6.2-7.5c2.9-0.1,5.6-0.4,8-2c0.4-0.2,0.8-0.4,1.2-0.5c1.5-0.1,2.9-0.2,4-1.4
			c0.3-0.3,0.6-0.6,0.9-0.8c1.1-0.7,1.8-1.6,2.5-2.7c0.8-1.1,1.5-2.1,2.3-3.1c2.7-2.8,2.8-6.1,1.5-9.6
			C222.3,456.1,222.5,455.4,222.9,454.9z"/>
		<path class="st40" d="M363.9,454.8c2.3-12.5,1-25,0-37.4c-0.8-3-0.6-5.7,3.3-5.5c6.3,0.2,8.3-3.4,8.8-8.8c0.2-0.8,0.5-1.4,1.1-2
			c2.1,1,3.3,2.6,3,5c-1,1.8,0.3,3,1.1,4.4c0.2,0.5,0.4,1,0.6,1.5c1,4.1,1.3,8.3,1.3,12.5c-0.2,1.5,0.4,3.1,0,4.6l0-0.1
			c-1.9,2.1-0.5,4.8-1,7.1c0,0.3,0,0.5,0.1,0.8c-0.9,0.9-1.4,2-1.7,3.3c-0.5,1.2-0.9,2.5-0.9,3.8c-0.5,1.5-0.9,3.1-1.9,4.4
			c-1.1,1.3-2.7,1.8-4.1,2.4c-1.2,0.6-2.5,1.2-3.5,2.2c-1.5,0.9-2,2.7-3.3,3.6C364.6,458.1,363.2,457.9,363.9,454.8z"/>
		<path class="st41" d="M336.2,353.9c-2.3,0.4-2.4-2.4-4.2-2.9c-0.7-0.7-1.7-0.3-2.4-0.8c-0.8-1-1.1-2.5-2.6-2.9
			c-1.4,2-2.5,4.2-4.3,5.8c-6.6,8.2-16.3,11.7-25.1,16.7c-7.6,1.4-11.5-0.3-15.6-6.9c-1.8-2.9-3.9-5.6-7.3-6.9c0.5-4-0.5-8,0.5-11.9
			c0.2-0.7,0.5-1.3,1.3-1.5c1.3-0.1,2.3,0.5,3.2,1.4c5.1,6.5,11,11.6,20,10.9c2.3,0.1,4.4-1,6.6-1.7c2.9-0.9,5-2.9,7.3-4.6
			c2.7-1.6,5.2-3.6,8-5.1c0.8-0.4,1.6-0.8,2.4-1.3c1.9-0.7,3.8-2.1,6-1.3C334.1,344.2,333.9,349.6,336.2,353.9z"/>
		<path class="st42" d="M331.2,303.9c2.4,7.2,2.7,14-3.2,19.8c-0.1,0.2-0.3,0.4-0.4,0.6c-0.7,0.3-1.4,0.3-2.1,0
			c-1.6-1.2-4.4-1.3-4-4.4c3.2-3.9,5.4-8.1,2.7-13.2c-1.2-1.8-2.5-3.5-4.9-3.5c-4.8,1.2-6.7,3.6-7,8.8c-0.1,1.8,1.1,4.1-1.1,5.5
			c-0.8,0.2-1.5,0.1-2.2-0.2c-1.8-1.6-3-3.6-3.8-5.8c0.1-4.4-1.9-9.2,2.7-12.6c3.4-1.4,6.8-2.4,10.5-2.3
			C324,296.7,328.5,298.6,331.2,303.9z"/>
		<path class="st43" d="M359.1,404.8c-3.5,4.3-6.4,1.1-8.7-1.1c-6.1-6-13.3-9.7-21.5-11.8c-1.6-0.4-3.2-0.7-4.8-1
			c-4.5-0.8-8.4-2.4-10.6-7.1c11.6,0.5,22.2-2.4,31.8-8.8c1.5,2.8,1.7,6,2,9.1c1.3,1.1,1.9,2.7,2.8,4
			C353.4,393.3,358.5,397.9,359.1,404.8z"/>
		<path class="st44" d="M289.8,301.1c0.3,0.3,0.7,0.7,1,1c1,1.4,0.7,3.4,2,4.6c0.3,1,0.3,2,0.2,3c-0.2,1.2-0.7,2.4-1.3,3.4
			c-0.7,1-1.4,2-2.4,2.7c-3.7-0.2-1.8-3.6-2.9-5.3c-0.3-1-0.7-2-1.4-2.9c-0.7-0.8-1.4-1.7-2.2-2.4c-4.2-1.3-5.9-0.3-6.5,3.7
			c-0.4,3.2,0.5,6.2,0.8,9.4c-0.1,1.1-0.3,2.1-1.3,2.7c-3.5-2-2.6-5.8-3.2-8.8c-0.5-2.2-0.1-4.6-0.1-6.9c-0.1-3.1,1.1-5.4,4.1-6.6
			c2.6-0.9,5.2-1.5,8-1C286.7,298.4,288.8,298.8,289.8,301.1z"/>
		<path class="st45" d="M393.9,472.9c0.4-0.9,1-1.6,2-2c1.5,2.4,0.3,4.4-0.8,6.4c-1.9,2.7-4.1,5-7,6.5c-5.2,2.2-10.2,3.7-16.2,1.8
			c-5.3-1.7-8.7-4.4-9.7-9.8c-0.4-1.1-0.8-2.2-0.1-3.3c0.6-0.9,1-2.1,2.1-2.6c0.7,0.1,1.3,0.5,1.4,1.2c0.6,3.8,2.1,6.7,6.3,8
			c5.6,1.7,10.9,1.7,16-1C390.3,476.8,392.6,475.3,393.9,472.9z"/>
		<path class="st46" d="M393.9,472.9c-2.7,6.7-10.6,9.9-19,8.3c-6.4-1.2-10.2-4.6-10.9-11.2c-0.6-0.6-0.6-1.3-0.2-2
			c2-0.7,2.6,0.9,3.1,2.2c0.7,1.9,2,3.3,3.1,4.9C378.5,480.3,386.3,477.4,393.9,472.9z"/>
		<path class="st47" d="M330.1,325.7c2,0.2,3.1,1.7,2.8,3.4c-0.5,3,0.2,6.3-1.7,9c-1.8,2-4.3,3-6.7,3.9c-1.9,0.6-3.5,2-5.5,2
			c-1.5,0-3-0.2-3.8-1.7c-0.9-1.7,0.3-2.8,1.4-3.8c2.3-2.1,5-3.7,7.4-5.7c0.5-0.5,1-0.9,1.6-1.4c0.8-0.5,1.6-0.9,2.6-0.5
			c0.5,0.2,0.7,1.1,1.3,0.9c0.4-0.1,0.2-0.8,0.3-1.3c0.1-0.8,0-1.7-0.1-2.5C329.6,327.3,329.3,326.4,330.1,325.7z"/>
		<path class="st48" d="M377.1,403.1c-0.5,7.6-1.8,9.5-8.6,9.7c-3.4,0.1-4.8,1.2-4.6,4.5c-1.2-2.6-1.8-5.4-2-8.3
			c1.2-0.7,3-1,3.1-2.8c0.3-5.5,3.4-6,7.8-4.6c0.3,0.1,0.8-0.4,1.2-0.6C376,400.3,375.9,402.6,377.1,403.1z"/>
		<path class="st49" d="M331.2,303.9c-6.7-7.3-14.7-7-23.2-3.9c1.5-5.4,9.5-8.9,15.9-7C328.1,295.5,330.2,299.4,331.2,303.9z"/>
		<path class="st50" d="M343.5,338c1.8-0.2,10.4,6.4,10.5,8.1c0.1,1.9-1.4,2.9-2.6,4c-1.6,1.4-3.7,0.3-4.4-0.8
			c-1.9-2.9-3.3-6.1-4.7-9.2C341.8,339.1,342,338.1,343.5,338z"/>
		<path class="st51" d="M274.8,355.9c2.3-1.1,3.9-1,5.1,1.7c1.2,2.5,2.9,4.8,4.5,7.1c3.4,4.9,8.5,4.4,13.5,4.3
			c0.7-0.5,1.4-0.5,2.1,0.1c-1.6,2.8-5.7,2-7.2,5c0,0.1-0.7,0.1-0.8-0.1c-2.1-3.8-7.2-4.3-9.1-7.7c-2.3-4-5.8-6.3-8.9-9.2
			C274.3,356.6,274.5,356.2,274.8,355.9z"/>
		<path class="st52" d="M331,264.1c2.5-0.2,3.3,2.1,4.5,3.5c2.6,3,1.6,5.7-2.4,6.3c-3,0.5-5.7,1.5-8.4,2.8c-3.6,1.7-6.1,0.3-6.2-3.7
			c0-3.1,0.2-6.3,0.9-9.2c0.6-2.7,2.2-5,5.6-2.7c-2.7,2.5-3.4,5.8-3.5,9.3c-0.1,2.5,0.8,3.8,3.5,2.9c1.6-0.5,3.1-1,4.6-1.5
			c2.5-0.7,3-2.2,1.7-4.3C331,266.3,330.4,265.3,331,264.1z"/>
		<path class="st53" d="M323.9,293.1c-6.5-0.4-11.5,2.4-15.9,7c-4,3.4-2,7.7-1.9,11.8c-0.1,0.1-0.3,0.3-0.4,0.4
			c-0.7,0-1.1-0.4-1.4-1c-0.3-0.7-0.4-1.5-0.4-2.3c0-1,0.1-2,0.1-2.9c1-1.6-0.1-3.5,0.8-5.1c2.4-6.4,7.2-9.6,13.9-10
			C320.7,290.8,322.8,291,323.9,293.1z"/>
		<path class="st54" d="M265.9,370.7c0.3,2.2,1,4.4,0.9,6.6c-0.1,5.9,4,6.5,8.3,7.3c1.2,0.2,3.7-0.5,3.4,1.7c-0.3,2-2.2,3.1-4.5,2.5
			c-1.5-1.5-3.6-1.6-5.4-2.4c-2-1-3.8-2.2-4.5-4.5c-0.4-1.7-0.5-3.4-0.6-5.2c0.1-1-0.2-2,0.5-2.9
			C264.4,372.8,264.7,371.5,265.9,370.7z"/>
		<path class="st55" d="M248,476c-2.1-3.4-4.9-6.3-5.9-10.2c2.9,0.5,3.6,3.1,4.9,5.1c3.9,6.3,7.6,12.6,11.4,19
			c-0.7,0.8-1.5,0.7-2.3,0.1c-1.8-2.9-4-5.7-5.1-9C249.8,479.5,249.3,477.5,248,476z"/>
		<path class="st56" d="M276.9,299.8c-2,1.2-3.7,2.5-4,5.1c-0.2,0.5-0.5,0.5-0.9,0.1c0.2-1.3,0.1-2.7,0.5-3.9c1.3-4.2,3.2-8.2,8.2-8
			c4.7,0.2,7.8,3.3,9,8c-1.6-0.7-3.2-1.5-4.8-2.2C281.4,295.3,281.4,295.3,276.9,299.8z"/>
		<path class="st57" d="M256,490c0.8,0,1.6-0.1,2.3-0.1c2.3,3.3,4.5,6.6,6.8,9.9c1.1,0.9,1.4,2.5,2.7,3.3c0.4,0.8,1.7,1.2,1.1,2.5
			c0.7,1.6,1,3.3,1.2,5c0,1.1-0.1,2.2-0.8,3.2c-4,0.4-1.9-3.4-3.3-4.8c-1.7-3.7-3.8-7.2-5.1-11C259.4,495.3,257.7,492.7,256,490z"/>
		<path class="st58" d="M260,385c1.2-1.9,0.4-4.4,1.9-6.1c2.7,2,3,5.6,5.2,8c0.3,0.3,0.1,0.9,0,1.4c-0.7,2.3-7.6,6.8-10.3,6.7
			C257.4,391.5,259,388.4,260,385z"/>
		<path class="st59" d="M370,475c-3.4-1.4-3.5-5.1-5.3-7.6c-0.3,0.4-0.6,0.4-0.9,0c-0.2-1.2-0.6-2.4-0.4-3.7
			c0.1-0.4,0.3-0.8,0.5-1.2c1.9-2.2-1.1-3.5-0.9-5.4c0.3-0.8,0.6-1.5,1-2.3c0.4,0.9,0.4,2.8,2,1.1c1.3-1.4,2.3-3,4.1-3.9
			c0.6,0.1,0.9,0.4,1,0.9c-4.4,4.9-5.5,12.9-2.4,18.9C369.1,472.9,370,473.7,370,475z"/>
		<path class="st60" d="M257.2,395.1c3.6-1.1,5.3-4.7,8.5-6.4c1.1-0.6,0.9-1.7,0-2.5c-2.3-1.9-2.5-4.9-3.8-7.3
			c0.2-1.8,0.9-3.5,2.1-4.9c0,1,0,2,0,3c1.1,1.5-0.2,3.5,1,5c0.7,2,2.8,2.5,4,4c2.1,4.3-2.2,4.4-4,6.1l0,0c-1.9,1.1-3.2,2.8-4.9,4.2
			c-1.1,0.9-2.3,2.3-3.5,0.1C256.6,395.8,256.8,395.4,257.2,395.1z"/>
		<path class="st61" d="M233.9,430.9c0,2,0,4.1,0,6.1c-0.9,1.2-0.3,2.5-0.1,3.8c0,1.6-0.2,3.1,0.6,4.6c0.2,0.9,0.4,1.8-0.4,2.5
			c-3.6-2.7-6.1-5.6-3.1-10.5c2.1-3.4,0-7.9,2-11.5C234.2,427.5,232.8,429.4,233.9,430.9z"/>
		<path class="st61" d="M325,274c-1.8,1.6-3.2,1.3-4.3-0.8c-2-3.6,0.3-10.4,4.3-12.2c2.4,0.2,4.1,1.8,6,3c0.3,1,0.7,2,1,2.9
			c-0.2,0.1-0.4,0.2-0.6,0.3c-1.2,0-2.2-0.6-3.1-1.4c-3.9-2.3-4.9-1.7-5.3,2.7c-0.2,2,0.3,3.5,1.8,4.8
			C324.9,273.6,324.9,273.8,325,274z"/>
		<path class="st62" d="M257.2,395.1c-0.1,0.3-0.1,0.7-0.2,1c-0.4,1.4-0.3,3.1-1.8,4c-0.4,0.4-0.7,0.8-1.1,1.2
			c0.9-5.8,1.1-11.9,5.9-16.3C260.4,388.7,259.7,392.1,257.2,395.1z"/>
		<path class="st63" d="M272.1,305c0.3,0,0.6,0,0.9-0.1c0.3,5.5-0.5,11.2,3,16.1c1.2,0.3,2,1,2.4,2.2c-0.1,1-0.5,1.7-1.5,2.2
			c-0.5,0.1-0.9,0-1.3-0.3C272,318.8,271.1,312.1,272.1,305z"/>
		<path class="st64" d="M241,441c0.1,2.3,0.1,4.6,0.2,6.9c0,3.8,0.4,7.5,3.7,10.2c-0.3,0.3-0.6,0.4-1,0.2c-2.6-1.5-3.9-4.2-5.9-6.2
			c-0.4-0.4-0.4-0.8,0.1-1.2c2.5,0,1.6-1.9,1.8-3.2C240.2,445.4,239,442.9,241,441z"/>
		<path class="st65" d="M275.6,325c0.5,0,0.9-0.1,1.4-0.1c1.9,0,1.8,1.5,1.1,2.3c-2.5,2.9-2.6,6.5-3,10c-0.7,0.4-1.5,0.4-2.1-0.1
			l0,0c-2.2-1.7-1.5-4-1-6.2C273.1,329,274.4,327,275.6,325z"/>
		<path class="st66" d="M286,291c-3.6,0.3-6.3-4.9-10.4-1c4.3-4.5,8.3-4.6,12.3-0.9c-1.6,1.2-2.6-0.1-3.8-0.7
			C284.6,289.3,286.6,289.2,286,291z"/>
		<path class="st67" d="M398,454c2.1,0.6,3.7,1.6,2.1,4.1c-1.8,1.5-3,4.1-6.1,2.9c0.2-2,1.4-3.8,0.9-5.9c0.3-0.3,0.6-0.6,1-0.7
			C396.6,454.4,397.5,454.9,398,454z"/>
		<path class="st68" d="M382.1,425c-0.2-4.3-0.3-8.7-0.5-13c2.3,4.1,2.5,8.5,2.3,13.1C383.3,425.6,382.7,425.6,382.1,425z"/>
		<path class="st69" d="M292,310c0-1,0-2,0-3c1.4-0.6,2.7-1,4.1,0c0.6,0,1.3,0,1.9,0c0.7-0.6,1.4-0.6,2.1,0c0.3,0.3,0.7,0.6,1,0.9
			c-0.4,1.4-2.9,0.1-2.9,2.2c-0.3,0.4-0.7,0.6-1.2,0.8C295.2,311.3,293.4,311.4,292,310z"/>
		<path class="st70" d="M394,477c0.8-2,2.3-3.7,2-6.1c1-1.3,1.9-2.6,2.9-4c0.4,0,0.8,0,1.1,0.1c-0.3,1-0.7,2-1,3
			c-1.4,1.1-1.9,2.4-1,4C397.3,475.9,397.1,478.3,394,477z"/>
		<path class="st40" d="M380,445c0.2,1.4-0.5,3,1.1,4.1c0.2,0.2,0.3,0.5,0.2,0.7c-0.1,0.2-0.2,0.3-0.3,0.3c-2.8,1.7-6,2.4-9.2,2.9
			c-0.2-1.1,0.3-1.8,1.2-2.3c1.5-1,4.3-0.1,4.6-3.1C378.4,446.7,377.9,444.7,380,445z"/>
		<path class="st71" d="M321.8,287.2c2.9-1.1,5.4-1.1,6.7,2.4C325.4,291.1,324.1,287.7,321.8,287.2z"/>
		<path class="st72" d="M391.1,452.9c-1.8-0.3-3.7-0.6-5.1-1.9c-0.1-1.9,0.9-1.6,2.1-1.1c2.4,0.3,4.8,0.8,7,2
			C394,453.5,392.4,452.5,391.1,452.9z"/>
		<path class="st73" d="M272.9,337.1c0.7,0,1.4,0,2.1,0c0.7-0.1,1.3,0.1,1.9,0.4c0.8,0.4,1.4,1,1.7,1.9c0.2,1.9-1.5,2.3-2.4,3.3
			c-0.3,0.4-0.5,0.9-0.8,1.3C274.5,341.7,273.7,339.4,272.9,337.1z"/>
		<path class="st74" d="M324,341c2.4-1,4.8-2,7.2-3c-0.3,0.9-0.7,1.8-1,2.7c-2,0.8-4.1,1.5-6.1,2.3C323.4,342.4,323.4,341.7,324,341
			z"/>
		<path class="st75" d="M394,461c2.4-0.2,3.8-2.5,6.1-2.9c-0.4,3.1-3,4-5.4,5C393.5,463.6,393.5,463.5,394,461z"/>
		<path class="st76" d="M292.5,297.9c-1.1-2-3.3-2.5-2.6-4.7c0.1-0.4,1.4-0.8,1.7-0.6C293.6,293.8,293.1,295.5,292.5,297.9z"/>
		<path class="st77" d="M243.8,458.3c0.3-0.1,0.7-0.1,1-0.2c2.2,1.8,4.7,3.3,6,6C247.2,463.8,245.9,460.5,243.8,458.3z"/>
		<path class="st78" d="M246,398c-0.5,2.6-1.2,5.1-2.9,7.1c-0.8-0.4-0.5-1.4-0.9-2C243.2,401.2,242.6,398.1,246,398L246,398z"/>
		<path class="st69" d="M260.9,359.9c0.7,1.3,5.1-0.8,2.9,3.1c-0.6,1-1.7,1.2-2.6,0.7C259.1,362.7,261.5,361.2,260.9,359.9
			C260.9,359.9,260.9,359.9,260.9,359.9z"/>
		<path class="st79" d="M296,307c-1.4,0.1-2.7,1-4.1,0c-0.4-1.6-0.7-3.3-1.1-4.9C291.5,304.8,295.2,304.4,296,307z"/>
		<path class="st80" d="M388.1,449.9c-0.9,0.1-1.6,0.3-2.1,1.1c-1.7-0.3-3.6,0.6-5-1c0-0.3,0-0.7,0-1
			C383.4,449.3,385.9,448.1,388.1,449.9z"/>
		<path class="st81" d="M382,436.1c-1.2-2.6-2.1-5.1,1-7.1C382.9,431.4,383.8,433.9,382,436.1z"/>
		<path class="st82" d="M363,389c2,0.1,3,1.5,4.1,2.9c0.2,0.9,0,1.4-1.1,1.1c-1.4-0.7-2.7-1.3-4.1-2
			C362.6,390.5,363.8,390.3,363,389z"/>
		<path class="st83" d="M366,393c0.4-0.4,0.7-0.7,1.1-1.1c1.8,0.4,3.5,0.9,4.2,2.9c-0.2,0.7-0.6,1.1-1.3,1.3
			C368.6,395.1,367.3,394.1,366,393z"/>
		<path class="st78" d="M369.9,396.1c0.4-0.4,0.9-0.9,1.3-1.3c1.7,0.4,2.2,1.8,2.8,3.1c0.4,1.1-0.1,1.3-1,1
			C372,398,371,397.1,369.9,396.1z"/>
		<path class="st84" d="M391.1,452.9c1.1-1.4,2.6-0.7,4-1c0.8,0.1,1.5,0.3,1.7,1.2c-0.5,0.6-0.2,1.4-0.8,1.9c-0.4,0-0.7,0-1.1,0.1
			C393.6,454.4,392.4,453.6,391.1,452.9z"/>
		<path class="st85" d="M298,310c0-0.3,0-0.6,0-1c1.1-1,2.6,0,3.8-0.8c0.7,0.3,1.5,0.5,2.2,0.8c0.7,0.5,0.9,1.2,0.8,2.1
			C302.3,312.2,300,311.9,298,310z"/>
		<path class="st86" d="M286,291c-0.8-0.7-1.6-1.4-2.6-2.3c1.8-1.3,3.1,0.6,4.5,0.4C288,290.4,287.3,291,286,291z"/>
		<path class="st86" d="M373,399c0.3-0.3,0.7-0.7,1-1c1,1,2,2,3,3c0,0.7,0,1.4,0.1,2.1c-1.5,0-2-1.4-3.1-2
			C373.6,400.4,373.3,399.7,373,399z"/>
		<path class="st87" d="M233.9,430.9c-1.6-1.4-0.6-3.3-1-5c0.3-0.5,0.6-1.1,0.9-1.6c0.3,0.3,0.8,0.6,0.8,0.8
			C234.5,427.1,234.2,429,233.9,430.9z"/>
		<path class="st88" d="M381,410.4c-2.1-1-4.4-2-1.1-4.4C380.7,407.4,381.3,408.8,381,410.4z"/>
		<path class="st89" d="M350,387.9c-1.4-1-3.2-1.7-2.8-4C350.3,383.7,350.1,385.9,350,387.9z"/>
		<path class="st90" d="M332.9,293c1.3,1.1,2.3,2.4,1.3,5.4c-1.4-1.8-2.4-3-3.3-4.3C331.3,293.2,332.4,293.6,332.9,293z"/>
		<path class="st91" d="M330.1,325.7c0.3,0.8,0.6,1.6,0.9,2.3c-2.1,1.2-3.1-0.2-4.2-1.7c-0.5-1.2,0.4-1.8,1.1-2.4
			c0,0,0.1-0.2,0.1-0.2C328.7,324.4,329.4,325,330.1,325.7z"/>
		<path class="st92" d="M267.9,503.1c-1.9-0.3-2.4-1.8-2.7-3.3c1.1-0.2,2.1-1.2,3.4-0.5C266.3,500.2,267.3,501.6,267.9,503.1z"/>
		<path class="st93" d="M233.9,445.2c-2-1-1.2-2.6-0.9-4.2c1.1-0.6,1.4,0.3,1.8,1c0.1,1,0.1,2,0.2,3
			C234.7,445.5,234.3,445.5,233.9,445.2z"/>
		<path class="st94" d="M246,398c0-2,0.9-3,3.5-2.8C248.9,397.2,247.8,397.9,246,398C246,398,246,398,246,398z"/>
		<path class="st95" d="M332.9,293c-0.4,0.8-1.2,1-2,1.1c-0.8-0.7-1.4-1.6-0.5-2.4C331.9,290.6,332,292.7,332.9,293z"/>
		<path class="st82" d="M373.1,451.1c-0.4,0.6-0.8,1.2-1.3,1.8c0,0-0.4,0-0.4,0s-0.4,0-0.4,0c-0.3-0.3-0.7-0.6-1-0.9
			c0.7-1.2,1.6-1.9,3.1-1.9c0.3,0.2,0.4,0.4,0.3,0.7C373.2,451,373.2,451.1,373.1,451.1z"/>
		<path class="st96" d="M233.9,445.2c0.4-0.1,0.7-0.1,1.1-0.2c0.8,1.2,1.1,2.5,1.1,4c-0.4,0.5-0.8,0.4-1.2,0
			c-0.3-0.4-0.6-0.7-0.9-1.1C234,447,233.9,446.1,233.9,445.2z"/>
		<path class="st97" d="M396,455c-0.2-0.8-1.1-2,0.8-1.9c0.4,0.3,0.8,0.6,1.2,0.8c0.2,0.7,0.8,1.9,0.6,2
			C397.4,457,397,455.1,396,455z"/>
		<path class="st98" d="M363,389c0.6,1.2,0.6,2-1.1,2c-0.7-0.4-1.7-0.9-1.4-1.7C361.1,387.9,362.1,388.6,363,389z"/>
		<path class="st81" d="M382.1,425c0.6,0,1.2,0,1.8,0c0,1.4,0.5,3-0.9,4.1C382.2,427.8,381.7,426.5,382.1,425z"/>
		<path class="st99" d="M237.1,414.1c0.5-1.1,0.4-2.7,2.3-2.8c0.6,1.7-0.4,2.8-1.3,3.9C237.5,415.1,237.4,414.5,237.1,414.1z"/>
		<path class="st88" d="M242.2,403.1c0.3,0.7,0.6,1.4,0.9,2c-0.2,0.8-0.5,2-1.3,1.5C240,405.5,241.6,404.2,242.2,403.1z"/>
		<path class="st73" d="M271.9,330.9c0.2,2.1-0.2,4.3,1,6.2C269.5,335.5,270.8,333.2,271.9,330.9z"/>
		<path class="st100" d="M229.1,453c-1.7,0.3-3.4,0.6-5.2,0.9c0.1-0.3,0.1-0.6,0.1-1C225.7,452.2,227.4,451.8,229.1,453z"/>
		<path class="st101" d="M300,307c-0.7,0-1.4,0-2.1,0c0.1-0.9-0.2-2.3,0.8-2.4C300.5,304.4,299.8,306.1,300,307z"/>
		<path class="st81" d="M380,445c-0.6,1-1.3,2-1.9,3.1c-0.4,0.3-0.8,0.3-1.2,0c0.2-1.6,0.8-2.9,1.9-4c0.4-0.4,0.8-0.4,1.1,0.1
			C379.9,444.3,380,444.6,380,445z"/>
		<path class="st102" d="M379.9,439.9c0-1.5,0.2-2.9,2.1-3c-0.4,1.4-0.7,2.8-1.1,4.1C380,441.1,379.4,441,379.9,439.9z"/>
		<path class="st103" d="M234.8,442c-0.6-0.3-1.2-0.6-1.8-1c0.1-1.4-0.6-2.9,0.9-3.9C234.2,438.7,234.5,440.3,234.8,442z"/>
		<path class="st104" d="M379.9,439.9c0.3,0.4,0.7,0.7,1,1.1c-0.3,1-0.7,2-1,3c-0.4,0-0.7,0-1.1-0.1
			C379,442.5,378.7,441,379.9,439.9z"/>
		<path class="st105" d="M237.1,414.1c0.3,0.4,0.7,0.7,1,1.1c-0.3,0.6-0.6,1.3-1,1.9c-0.4,0.5-0.7,0.4-1,0
			C236.5,416,236.8,415,237.1,414.1z"/>
		<path class="st64" d="M236.1,417c0.3,0,0.7,0,1,0c-0.3,1,0,2.9-1.2,2.5C234.3,419.2,235.8,417.9,236.1,417z"/>
		<path class="st88" d="M235,449c0.4,0,0.8,0,1.2,0c0.6,0.6,1.3,1.3,1.9,1.9c0,0.4-0.1,0.8-0.1,1.2C236.6,451.4,235.6,450.4,235,449
			z"/>
		<path class="st85" d="M304.9,301c-0.2,1.7,0.2,3.5-0.8,5.1C304,304.3,303.5,302.5,304.9,301z"/>
		<path class="st106" d="M301.8,308.2c-1.1,1.3-2.5,0.6-3.8,0.8c0.3-2.2,2.1-0.4,3-1.1C301.3,308,301.6,308.1,301.8,308.2z"/>
		<path class="st107" d="M384,491c1.9,1.7,5.3,0.6,6.2-2.4c0.4-1.2,0.7-2.1,1.8-2.6c-0.1,7.1-0.9,7.8-7.5,8.6
			c-5.6,0.7-11.1,1.9-16.5-1.2c-2-1.1-6.1,2.6-5.6,5.2c0.8,5-0.2,9.7-1.4,14.4c-0.7-0.3-1.3-0.7-2-1c-2.5-0.9-0.8-2.6-0.8-4
			c1.6-5.6,1-11.3,1.2-16.9c-0.1-0.4,0-0.9,0-1.3c0.7-2.1,2.2-2.5,3.9-1.4c1.6,1,3.2,0.2,4.8,0.2C373.1,491.5,378.7,489.9,384,491z"
			/>
		<path class="st108" d="M344,495.9c-0.7-5.3-1.7-10.5-1.9-15.8c-0.3-5.9,1.8-8,7.9-9.2c2.6,3.5,0.9,7.4,1.4,11.1
			c0.1,0.8,0.1,1.7,0,2.5c-0.3,2,0.3,4.4-1.8,5.9C348,492.6,346.9,495.2,344,495.9z"/>
		<path class="st109" d="M374,542c1,0,2,0,3,0c-8.8,5.4-27.3,0.8-28.7-10.7c-0.9-7.1-0.7-14.1,0-21c0.4-3.8,0.6-7.5,0.7-11.3
			c0.3-1.7-0.5-3.6,0.9-5.1c-0.1,8.6,0.4,17.2-0.7,25.8c-1.8,14.4,6.9,23.3,21.3,22.3C371.7,542,372.8,542,374,542z"/>
		<path class="st110" d="M349.6,490.5c0.3-1.8,0.6-3.5,0.9-5.3c4,0,3.8,3,3.9,5.6c0.1,7.9,0.1,15.9,0,23.8c-0.1,3.1,2,6.1-0.1,9.2
			c-2.6,1-2.7-1-2.7-2.5c0-2.4-0.6-4.8,0.4-7.1c-0.2-7.7,0.7-15.4-2-22.8C349.7,491,349.5,490.8,349.6,490.5z"/>
		<path class="st111" d="M272.1,509.7c2.1,0.3,3.3,1.9,4.6,3.3c-1.2,0.2-1.7,0.9-1.7,2c-0.3,0-0.6,0-0.9,0
			C271.8,513.8,270.6,512.3,272.1,509.7z"/>
		<path class="st112" d="M359,508c0.5,1.3-1,2.7,0,4c-2,5.6,1.5,10.1,3,15c2.2,1.8,4.6,3.5,7.7,3c0.4,0.1,0.9,0.2,1.3,0.3
			c1.7,1,3.4,0.6,5-0.3c0.9-0.7,1.9-0.7,2.9-0.2c0.7,1.6-0.6,2.3-1.5,3.3c-12.6,4.8-22.5-2.1-23.4-16.4c-0.5-7.7-0.6-15.5-0.1-23.3
			c0.2-3,0.3-6-1.2-8.8c-0.5-1-0.7-2.2-1-3.3c0,0-1.3-3.4-1.3-3.4c0.2-5.7-0.4-11.3,0.3-16.9l-0.1-0.1c1.7-0.4,2.2,1,2.9,2.1
			c0.3,0.7,0.5,1.5,0.5,2.2c0.2,1.9,0,3.9,0.2,5.8c0.1,0.7,0.3,1.3,0.5,2c1.5,4,2.5,8.2,4.6,12c1,1.8,0.2,3.5,0.6,5.1
			c0,0.3,0,0.7,0,1C359.4,496.7,359.4,502.3,359,508z"/>
		<path class="st113" d="M379,530c-1,0-2,0-3,0c3.6-2.9,7.6-4.7,12-6c0.6,1.8-0.8,2.7-1.9,3.7C383.8,528.4,382.1,531.5,379,530z"/>
		<path class="st113" d="M408,516c-1.5,2.9-5.2,2.6-7,5c0,0,0,0,0,0c-1.8,1.1-3.4,2.8-5.8,1.4c-0.5-0.4-0.5-0.9-0.2-1.4
			C399.3,519.3,403.7,517.7,408,516z"/>
		<path class="st113" d="M370,531c-3.6,0.5-6.3-0.7-8-4c2.3-0.3,3.8,1.8,6,2C369.1,529.2,370.5,529.2,370,531z"/>
		<path class="st112" d="M395,521c0,0.3,0,0.7,0,1c-1.9,3.7-5.2,4.7-9,5c0.7-1,1.3-2,2-3c0,0,0,0,0,0c1.9-1.3,3.9-2.2,6-3
			C394.3,521,394.7,521,395,521z"/>
		<path class="st113" d="M376,530c-1.5,1.1-2.9,3.1-5,1c-0.6-0.7-0.6-1.3,0-2C372.5,530,374.2,530.1,376,530z"/>
		<path class="st113" d="M394,521c-1.7,1.7-3.7,2.6-6,3C389.5,521.9,391.3,520.6,394,521z"/>
		<path class="st114" d="M371,529c0,0.7,0,1.3,0,2c-0.3,0-0.7,0-1,0c-0.7-0.7-1.3-1.3-2-2C369,527.7,370,527.7,371,529z"/>
		<path class="st115" d="M352,514c0.8,3.3-1.8,7.3,2,10c0.1,0.2,0.2,0.4,0.4,0.5c0.4,1.3,1.4,2.1,2.1,3.2c0.3,0.6,0.6,1.1,0.8,1.7
			c0.5,1.2,1.4,2,2.4,2.6c0.7,0.4,1.4,0.9,2.1,1.4c1.7,1.1,3.6,1.3,5.5,1.8c2.2,0.7,4.5,0.6,6.7-0.1c1-0.2,2-0.1,2.8,0.4
			c1,1.2-0.1,1.7-0.8,2.4c-2.9-0.2-5.7,0.8-8.8,0.5C355.7,537.3,348,525.3,352,514z"/>
		<path class="st19" d="M376,538c0.3-0.7,0.7-1.3,1-2c2.1-1.4,4.1-3.2,7-2c0,0,0,0,0,0C382.3,537.2,379.2,537.7,376,538z"/>
		<path class="st116" d="M269,514c0-1,0-2,0-3c3.6,1.6,2.4,4.8,2.4,7.5c0,4.5-2.4,8.1-4.7,11.7c-1,1.5-2.6,2.6-4.7,1.8
			c-5.6,1.8-11.1,5.3-17,1c0.1-0.2,0.2-0.4,0.3-0.6c1.7-1.5,3.4-0.3,5.1-0.1c2.4,0.7,4.4-0.2,6.3-1.4c5.3-3.6,9.7-7.9,10.5-14.8
			C267.3,515.1,268,514.4,269,514z"/>
		<path class="st117" d="M272.1,509.7c-0.2,2.1,1.2,3.6,1.9,5.3c0.1,13.4-5.2,21.1-16,23c0-0.4,0-0.7,0-1.1c0-0.3,0-0.6,0-1
			c1.4-1,3.1-1.2,4.3-2.6c6.5-2.8,10.6-13.2,8.7-19.9c-0.5-1.6-1.6-3.5,0.3-5C271.5,508.9,271.8,509.3,272.1,509.7z"/>
		<path class="st118" d="M271.2,508.5c-0.7,3.1,0.7,5.9,1.1,8.8c0.8,6.4-4,14.5-10.3,16.7c-0.3,0.4-0.7,0.4-1,0c0.3-0.7,0.7-1.3,1-2
			c7-3.8,10-13,7-21c0-1.8,0-3.6,0-5.5C269.9,506.4,271.5,506.8,271.2,508.5z"/>
		<path class="st119" d="M255,537c-7.2,2.5-13.6-0.3-20-3C241.7,534.6,248.1,537.4,255,537z"/>
		<path class="st116" d="M245,533c-4,0.1-7.8-0.2-11-3c0.2-0.2,0.3-0.3,0.5-0.5C238.5,529.2,242.5,528.9,245,533L245,533z"/>
		<path class="st116" d="M227,529c0-0.3,0-0.7,0-1c0.8-0.9,1.8-1.1,3-1.1c1.8,0.4,3.9,0.5,4.1,3.1c0,0,0,0,0,0
			C231.6,529.7,229.3,529.3,227,529z"/>
		<path class="st120" d="M261,534c0.3,0,0.7,0,1,0c-0.8,1.8-2.3,2.1-4,2C258.5,534.7,259.6,534,261,534z"/>
		<path class="st121" d="M230,528c-1,0-2,0-3,0c-10.6-1.7-21.2-3.1-31.8-5.1c-7.3-1.4-8.8-5.2-5.7-11.9c3.2-7.1,1.8-14.1-0.5-21
			c1.1-1.7-0.3-3.3,0-5c0.3-0.3,0.7-0.7,1-1c1.6-0.3,2.1,0.9,2.3,2c1.9,8,4,16,0.5,24.2c-3.1,6.3-1.1,9.9,6.6,10.9
			c6.2,0.8,12.5,1.3,18.7,2.7c3.1,0.7,6.2,1.2,9.2,2C228.5,526.1,230.2,526,230,528z"/>
		<path class="st122" d="M384,491c-6,1.8-11.7,1.5-17-2c-1.5,0.5-2.5-0.5-3.5-1.3c-1.9-1.7-2.9-4-4.6-6c-2.2-2.6-0.8-6.4-0.2-9.6
			c0.1-0.8,0.4-1.5,0.7-2.2c1.4-0.7,1.2-3.9,3.9-2.4c-0.1,1.8,0.5,3.8-0.4,5.5c-1.1,0.7-0.1,1.3,0,2c0.5,7.5,7.9,13.4,15.5,11.9
			c3.3-0.6,6.9-1.2,9.5-3.9c2.1-1.9,4.6-3.4,6-6c2.2,0.2,2.6-2,4-3c1,1,0.8,2.7,0.2,3C392.1,480.4,389.9,487.6,384,491z"/>
		<path class="st123" d="M222.9,454.9c0,0.7,0,1.4,0.1,2.1c-1,3.3,0.4,7-2,10c0,1.4-0.7,2.4-2,3c-0.8,1.2-1.8,2.2-3,3l0,0
			c-1.1,2-3.4,1.2-5,2l0,0c-3.3,1.6-6.5,3.8-10,0.4c-0.2-0.4-0.3-0.8-0.3-1.3c0.5-0.9,1.3-1.1,2.3-1.1c1,0,2,0,3,0
			c2.4-0.5,4.8-0.7,7-2c3.5-1.6,4.2-5.2,6-8c1.1-2.2-0.1-5.1,2-7.1C221.4,455.1,222.2,455,222.9,454.9z"/>
		<path class="st124" d="M192,510c2.4-8.9,1.8-17.6-2-26c0-0.7,0-1.3,0-2c4.2,0.2,3.1,4.4,4.8,6.5c2.2,4.8,1.8,9.8,1.4,14.8
			c-0.2,3.3-0.7,6.5-4.2,8C191.5,510.8,191.5,510.4,192,510z"/>
		<path class="st123" d="M194,489c-2.2-1.9-1-5.6-4-7c1-1.9,0.1-4.4,2-6c1.7-1,2.9-2.7,4.9-3.3c1.7-0.5,3.5-1.5,4.1,1.3l0,0
			c-0.1,0.3-0.2,0.8-0.5,0.8c-6.4,1.8-6.3,6.3-4.9,11.5C196.2,488.4,195.9,488.5,194,489z"/>
		<path class="st124" d="M201,474c-3.8-3-5.9,2-9,2c4.5-5.6,6.3-6.1,11-3C202.6,473.8,201.8,474,201,474z"/>
		<path class="st100" d="M213,471c-2,2-4.3,2.5-7,2C208.1,471.7,210.5,471.2,213,471z"/>
		<path class="st100" d="M221,455.9c-0.9,2.3-0.3,5-2,7.1c0-2,0-3.9,0-5.9C219.7,456.7,220.3,456.3,221,455.9z"/>
		<path class="st10" d="M386,527c3.3-1.2,6.2-3,9-5c2.1,0.3,4-0.7,6-1c0,0.3,0,0.7,0,1c-0.7,0.3-1.3,0.7-2,1c-1.1,1.1-2.7,1.2-4,2
			c-4,1.4-7.7,3.3-11,6c-0.3,0.4-0.7,0.7-1.2,1c-1.9,0.4-3.9,1.7-5.8,0.1c0.7-0.7,1.3-1.3,2-2C381.7,529.8,383.2,527,386,527z"/>
		<path class="st125" d="M383,531c0.3,0,0.7,0,1,0c1.3,0,2.7,0,4,0c-1.3,1-2.7,2-4,3c-2.4,0.3-4.2,2.8-7,2c-1,0-2,0-3,0
			c-2.3,0.8-4.7,0.8-7,0c-2.2,0.1-4.4-0.1-6-2c1-1.2,2.5-1.2,3.7-0.8C371.2,535.2,377.1,533.6,383,531z"/>
		<path class="st126" d="M395,525c1-1.3,2.4-1.8,4-2C398.2,524.8,396.7,525.1,395,525z"/>
		<path class="st127" d="M283,466c-1.6-1.5-0.9-3.4-1-5.2c-0.4-10,0.2-19.9,1-29.8c1.4-2.8-0.4-6.6,2.8-9.6c1.2,5.3,0.8,10.2,0.6,15
			c-0.3,9.3-1.9,18.7-0.3,28.1C286.7,467,284.8,466.9,283,466z"/>
		<path class="st128" d="M283,466c1.2-0.2,2.9,0.4,2.6-1.9c-1.8-12.5,0.7-24.9,0.5-37.4c0-1.2,0-2.5,0-4.5c-2.7,3-0.9,6.5-3,8.8
			c-0.3-6.4,1.1-12.5,2.8-18.8c2.2,0.6,2.5,2.3,2.1,3.8c-2.1,8.2,0.2,16.4-0.8,24.7c-0.7,5.5-0.8,11.2-1,16.8
			c-0.1,2.1-0.3,4.3,0.9,6.3c0.8,1.3,0.8,2.7-0.4,3.6C284.8,468.7,283.8,467.4,283,466z"/>
		<path class="st129" d="M284.6,385.6c5.3-3.5,9.5-4,14-1.6c0.7,0.4,1.7,0.6,1.7,1.6c-0.1,0.9-1,1.4-1.8,1.3c-3.6-0.2-5.2,2.2-6.5,5
			c-0.4,0.9-0.5,2.1-1.8,1.8c-1.3-0.3-1.2-1.5-1.2-2.4C289.1,388.7,289.1,386.1,284.6,385.6z"/>
		<path class="st130" d="M300,369c-0.7,0-1.4,0-2.1-0.1c6.1-3.7,12.1-7.3,18.2-11c2.4-1.5,4.3-3.6,6-5.9c1.9-1.2,3.8-2.4,5.8-3.4
			c1.1-0.2,1.6,0.6,2.2,1.3c0.7,0.4,1.4,0.7,2,1.1c-3.9,0.5-7.4,1.4-9.9,4.9c-3.8,5.3-9.8,7.2-15.2,10.2c-1.1,1.1-2.7,1.2-4,2
			C302,368.3,301,368.7,300,369z"/>
		<path class="st131" d="M362.9,457.1c2.4,1.6,5.3,3,1.3,6c-0.2-0.1-0.3-0.2-0.5-0.4c-0.2-0.6-0.4-1.2-0.7-1.7
			c-2.8-1.5-5.7-0.8-8.5-0.5c-0.5,0.1-0.9,0-1.4-0.1c-0.7-0.3-1.1-0.8-1.3-1.5C355.1,455.7,359.3,457.9,362.9,457.1z"/>
		<path class="st132" d="M265,392c0.6-2.5,4.6-2.7,4-6.1c2.2,0.1,4.7-0.3,5,2.9c-0.3,0-0.6,0.1-1,0.1c-1.8,1.3-3.9,2.1-6,3
			C266.3,392,265.7,392,265,392z"/>
		<path class="st133" d="M350.9,460.8c0.1,6,0.1,12.1,0.2,18.1c0.5,1.4,1.5,2.8-0.6,3.8c-0.2-3.9-0.3-7.9-0.5-11.8
			C350.9,467.6,349,464.1,350.9,460.8z"/>
		<path class="st132" d="M255.2,400.1c0.6-1.3,0.5-3,1.8-4c1.6,1.7,2.3-0.1,3.2-0.8c1.5-1.2,2.5-3.2,4.8-3.2
			C262.4,395.5,259.4,398.4,255.2,400.1z"/>
		<path class="st54" d="M267,392c1.7-1.7,3.7-2.6,6-3C271.5,391.1,269.9,392.8,267,392z"/>
		<path class="st133" d="M351.9,458.9c0.4,0.4,0.8,0.7,1.1,1.1c0.6,0.6,1.2,1.1,1.4,2c0,0.4-0.1,0.8-0.3,1.2
			c-0.4,0.2-0.8,0.1-1.1-0.2c-0.7-0.7-1.5-1.5-2.2-2.2C350.8,460,351.1,459.3,351.9,458.9z"/>
		<path class="st134" d="M307,385c0.6-0.4,1.3-0.9,1.9-1.3c0.1,0.4,0.5,1,0.4,1.2C308.6,385.9,307.8,386.2,307,385
			C307,385,307,385,307,385z"/>
		<path class="st134" d="M307,385c-0.6,0.3-1.2,0.7-1.8,1c0-0.7-0.2-1.9,0.2-2.1C306.3,383.4,306.6,384.3,307,385
			C307,385,307,385,307,385z"/>
		<path class="st51" d="M303,368c1-1.3,2.4-1.8,4-2C306.2,367.8,304.7,368.1,303,368z"/>
		<path class="st107" d="M192,511c2.9-1.9,2.5-5.4,4-8c0.3-0.3,0.7-0.3,1,0c3.4,2.8-0.5,5.2-0.7,7.8c-0.3,4.3,0.1,6.3,4.4,6.7
			c11.1,1.2,22.1,2.8,32.9,5.3c3.6,0.8,6.2,3.4,10,4.4c5.3,1.3,9.5-1.1,13.8-2.3c5.6-1.6,3.2-7.5,3.6-11.8c0.1-1.4-1.8-2.7,0-4.1
			c2.7-0.2,2.8,1.8,3.3,3.6c3.1,12.5-5.4,21.5-18,18.6c-11.9-2.8-23.5-6.9-35.7-8.6c-4.1-0.6-8.2-0.9-12.3-1.7
			C192.5,519.7,190.4,516.4,192,511z"/>
		<path class="st135" d="M197,503c-0.3,0-0.7,0-1,0c-1.3-4.6,0.1-9.5-2-14c1.8-1.5,0.8-3.6,0.4-5.1c-2.4-7.8,0-7.8,5.7-9.5
			c0.3-0.1,0.6-0.3,0.9-0.4c2.9,4.7,6.7,0.8,10,1c-2.2,3.6-5.9,3.1-9.2,3.3c-3.2,0.2-6.3,3.8-5.1,6.7C199.4,491,198,497,197,503z"/>
		<path class="st136" d="M263,513c0.1-1.7-0.2-3.2-2-4c-1.2-3.8-2.8-7.4-5-10.7c1.4-0.6,2.2,0.3,3.3,1.2c2.7,2.2,1.2-0.9,1.7-1.5
			c3.2,2.6,3.9,6.8,6,10C267.7,513.4,266.8,514.6,263,513z"/>
		<path class="st135" d="M221,467c1-3.3-0.9-7.1,2-10C224.9,460.8,225.6,464.5,221,467z"/>
		<path class="st135" d="M211,475c1.1-2.1,3.4-1.1,5-2C215.2,475.9,213.4,476.2,211,475z"/>
		<path class="st137" d="M248,476c2,1,2.7,2.9,3,5C249,479.9,248.4,478.1,248,476z"/>
		<path class="st135" d="M216,473c0.7-1.3,1.6-2.3,3-3C218.9,471.9,217.9,472.9,216,473z"/>
		<path class="st61" d="M376.9,448c0.4,0,0.8,0,1.2,0c0.3,4.2-3.1,2.5-5,3.1c0-0.4,0-0.7-0.1-1.1C374.3,449.4,375.6,448.7,376.9,448
			z"/>
		<path class="st138" d="M324,341c0,0.7,0,1.4,0,2c-0.6,0.3-1.3,0.6-1.9,1c-2,0.6-3.7,1.9-5.7,2.3c-4.4,1.4-8.8,3-13.2,4.4
			c-2.3,0.7-4.7,2.1-7-0.1c0.1-4.7,3.7-2.1,5.5-3c-0.8-0.4-3,0.8-2.7-1.7c2.4-2.4,6.1-1.3,8.7-3.1c0.7-0.6,1.6-1.1,1.1-2.2
			c0.4-1.1,1.3-1.6,2.3-2c1.6-0.2,3-0.7,4-2.1c0.2-0.2,0.3-0.3,0.5-0.5c0.2-0.1,0.4-0.2,0.5-0.4c1.5-0.4,2.7-1.1,3.9-2
			c1.6-0.9,3.1-2.3,5.1-0.7c-1.8,2.5-4.4,3.9-6.9,5.6c-1.1,0.8-3,1.7-2.2,3.4c0.7,1.6,2.7,1.2,4.1,0.8
			C321.4,342.5,322.7,341.6,324,341z"/>
		<path class="st139" d="M300.1,355.7c-9.9,1.3-16.1-4.3-21.4-11.6c1.2-1.4,2.6-1.3,4.1-0.4c2.8,3.1,6.4,5.3,9.9,7.5
			c2.2,0.5,4.5,0.9,6.8,0.6c1.6-0.2,3.9-0.8,4.3,1.1C304.2,355.3,301.6,355.1,300.1,355.7z"/>
		<path class="st140" d="M300.1,355.7c1.1-0.8,2.2-1.5,4-2.8c-4.6-0.5-8.6,1.3-12.2-0.9c0.3-0.4,0.8-0.7,1.3-0.9
			c4.6,0.7,8.9-0.9,13.3-1.7c2,1.2,3,2.5,0.5,4.3C304.9,355,302.7,355.9,300.1,355.7z"/>
		<path class="st141" d="M283,345c-1.2-1.4-2.8-0.9-4.3-0.9c-0.9-0.5-1.8-1-2.7-1.4c-1-2.1,2.1-1.9,1.9-3.5c0.3-0.4,0.7-0.5,1.2-0.4
			c2.3,1.4,4.3,3.4,7.1,4c0.9,0.4,1.8,0.8,1.9,1.9c-0.2,0.5-0.6,0.8-1,1C285.7,346.1,284.2,346.2,283,345z"/>
		<path class="st142" d="M307.1,353.7c1-1.3,0.7-2.5-0.1-3.7c1.6-3.3,4.8-2.1,7.4-2.7c0.3,0.7,0.2,1.4-0.3,2
			C312.1,351.4,310.1,353.3,307.1,353.7z"/>
		<path class="st143" d="M328,349c-1.7,1.6-3.7,2.5-6,3c0.2-1.9,4.7-1.9,1.9-5.7c-1-1.4,2.6,0.1,4.1-0.3
			C328.7,347,328.9,348,328,349z"/>
		<path class="st144" d="M314.1,349.3c0-0.8-0.1-1.5-0.1-2.3c0.3-1,1.3-1.4,2-2c2-0.3,4-0.7,6.1-1
			C319.4,345.8,316.8,347.5,314.1,349.3z"/>
		<path class="st145" d="M328,349c0-1,0-2,0-3c1.8,0.7,2.1,2.2,2,3.9C329.3,349.6,328.7,349.3,328,349z"/>
		<path class="st146" d="M311.2,317.2c1.1-2.2-0.5-4.3-0.2-6.5c0.7-5.5,3.9-8.8,9-8.7c0.6,0.7,0.4,1.6,0.5,2.5
			c0.8,0.9,0.3,3.7,2.9,2c0.4-0.5,0.9-0.9,1.6-0.5c3,6.8,2.2,9.9-3.4,14.7c-0.8,0.8-1.7,1.2-2.9,1.1c-1.3-0.2-2.6-0.6-3.8-1.1
			C313.5,319.7,311.3,319.6,311.2,317.2z"/>
		<path class="st147" d="M311.2,317.2c1.3,0.8,2.6,1.6,4,2.4c0.3,0.5,0.4,0.9,0.2,1.5c-0.6,1-1.4,1.5-2.5,1.7
			c-2.4-0.6-4.7-1.7-7.3-1.1c-1-0.4-1.6-1.1-1.9-2.1c0-0.8,0.3-1.3,0.8-1.9c0.7-0.6,1.5-1,2.3-1.3c0.7-0.2,1.3-0.1,1.8,0.4
			C309.5,317,310.3,317.1,311.2,317.2z"/>
		<path class="st148" d="M315,321c0-0.4,0.1-0.9,0.1-1.3c1.3,0.5,2.6,0.9,3.9,1.4c2.4,1.1,5,1.5,7.2,2.9c0.5,0,1.1,0,1.6,0
			c-0.3,0.7-0.6,1.4-0.9,2C321.9,326.9,317.9,325.3,315,321z"/>
		<path class="st149" d="M325,306c-0.4,0.4-0.7,0.7-1.1,1.1c-2.3,0.1-3.3-1.9-4.9-3c0.3-0.7,0.6-1.3,0.9-2
			C322.5,302.3,324.1,303.7,325,306z"/>
		<path class="st150" d="M308.6,316.9c-0.5,0-1,0-1.6,0c-0.9,0-1.7-0.1-2.3-0.9c-0.3-1.4,0.1-2.6,1.1-3.5c0.1-0.2,0.2-0.5,0.3-0.7
			C307.1,313.4,308.5,314.9,308.6,316.9z"/>
		<path class="st151" d="M326.2,324c-2.6-0.5-5.2-0.9-7.2-2.9c0.9-0.1,1.7-0.3,2.6-0.4C322.5,322.6,325.4,321.8,326.2,324z"/>
		<path class="st152" d="M327,385c3.3,0.2,6.7-0.2,9.8-1.2c4.6-1.5,8,0.1,10,4c2.6,5.1,6.4,9.3,9.1,14.2c0.8,2.2,0.1,2.7-2,2l0,0
			c-1.2-0.8-2.2-1.8-3-3l0,0c-2.2-1.4-3.7-3.7-6-5l0,0c-1.8-1.5-3.9-2.2-6-3c-2.2-0.1-4.2-0.6-6-2c-2.5-1.3-5.4-1.3-8-2
			c-0.8,0-1.6-0.2-2-1c-1.2-1-2-2,0.3-2.5C324.5,385.3,325.9,385.9,327,385z"/>
		<path class="st132" d="M327,385c-0.3,2.4-5-1-4,3c-1.5,0-2.9-0.2-4.3-1.6C321.3,384.2,324.2,385.2,327,385z"/>
		<path class="st132" d="M345,396c3,0.5,4.4,2.8,6,5C348,400.5,346.6,398.1,345,396z"/>
		<path class="st132" d="M325,389c2.9-0.1,5.7-0.1,8,2C330.2,391,327.5,390.4,325,389z"/>
		<path class="st132" d="M339,393c2.5,0,4.7,0.7,6,3C342.7,395.6,340.7,394.6,339,393z"/>
		<path class="st132" d="M354,404c1.3-0.1,2-0.7,2-2c0.9,0.7,2,1.6,0.9,2.7C356.1,405.5,354.8,405.1,354,404z"/>
		<path class="st132" d="M351,401c1.4,0.6,2.4,1.6,3,3C352.1,403.9,351.1,402.9,351,401z"/>
		<path class="st153" d="M276.1,317.6c-1.6-3.5-1.1-7.2-0.7-10.7c0.5-4.1,5.3-5,8.8-1.9c-1.3,1.2-2.7,2.7-0.9,4.1
			c1,0.8,1.3-2,2.8-1.8c1.2,0.9,0.9,2.4,1.4,3.6c0.1,8-1.3,10-8,10.8C277.4,321.1,276.7,319.4,276.1,317.6z"/>
		<path class="st154" d="M279.4,321.2c5-1.7,8.8-4.2,8-10.3c1.5,1.1-1.1,3.8,1.8,4.3c0.6-0.8,1.2-0.8,2-0.3c0.3,0.4,0.6,0.9,0.7,1.4
			c0.3,2-0.5,3.5-2.2,4.5c-1.5,0.6-3.1,0.9-4.3,2.2c-5.5,3.5-6,10.1-9.3,15c-0.4-0.3-0.7-0.5-1.1-0.8c-1.8-3.5-1.2-6.6,1.4-9.4
			c0.7-0.8,2.1-1.4,0.6-2.7c0.3-0.7,0.6-1.3,0.9-2C277.7,321.8,278.2,321.1,279.4,321.2z"/>
		<path class="st155" d="M305.9,312.5c0.2,1.2-0.3,2.1-0.9,3.1c-0.5,1-1.3,0.5-2,0.3c-3.3-1.1-6.8-0.1-10.1-0.7
			c-1-0.4-2.2-0.7-2-2.2c0.4-1,0.8-1.9,1.1-2.9c2,0,4,0,6.1,0c2.3,0.4,4.5,0.7,6.8,1.1C305.2,311.5,305.5,312,305.9,312.5z"/>
		<path class="st156" d="M276.9,299.8c0.8-2.4,1.3-5.5,4.6-5.4c2.2,0.1,3.8,1.8,3.5,4.4C282.3,299.2,279.6,299.5,276.9,299.8z"/>
		<path class="st157" d="M286.1,307.3c-1.7,1.4-0.3,3.8-2.1,5.8c-1.1-2.7-3.7-4.5-3.3-7.4c0.2-1.5,2.3-0.5,3.5-0.7
			C284.8,305.7,285.4,306.5,286.1,307.3z"/>
		<path class="st39" d="M279.4,321.2c-0.5,0.6-1,1.2-1.5,1.7c-0.6-0.6-1.3-1.3-1.9-1.9c0-1.2,0.1-2.3,0.1-3.5
			C277.2,318.8,278.3,320,279.4,321.2z"/>
		<path class="st158" d="M290.8,312.9c0.4,0.9,1.2,1.2,2,1.3c0.3,0.2,0.3,0.4,0.3,0.7c-0.1,0.2-0.1,0.4-0.2,0.4
			c-0.6,0.3-1.2,0.3-1.8-0.1c-0.7,0-1.3,0-2,0C289.7,314.4,290.3,313.7,290.8,312.9z"/>
		<path class="st159" d="M388,483c-2.7,4-9.2,5.8-13.5,4.7c-5.1-1.3-9.8-2.4-11.7-8.3c-0.5-1.6-1.4-3,0.1-4.4
			c4,9.5,10.5,12.4,20.7,9.2C385.1,483.8,386.6,483.4,388,483z"/>
		<path class="st159" d="M363,473c0-2,0-4,0-6c0.6-0.4,1.2-0.3,1.7,0.3c0,0,0,0.1,0,0.1c-0.2,0.8-0.4,1.7-0.6,2.5
			C363.9,471.1,364.2,472.3,363,473z"/>
		<path class="st160" d="M315,321c3.6,2.6,7.8,3.8,12,4.9c1.4,0.6,2.3,2.1,4,2.1c0,1,0,1.9,0,2.9c-0.4,0.6-1,0.7-1.7,0.6
			c-1.1-1-2.2-1.8-3.7-0.7c-0.5,0.3-1.1,0.7-1.6,1c-1.8,0.4-2.9,1.9-4.5,2.6c-0.9,0.9-2.2,1.2-3.3,1.7l-0.3-0.1
			c-3.9,1.9-8.2,2.9-12.2,4.8c-2.1,1-4.5,0.7-5.9-1.9c-0.2-1.2,0.7-1.7,1.5-2.3c2.3-1.7,4.1-3.9,6.2-5.9c1.3-1,2.8-1.7,3.2-3.5
			c2-1.3,2.5-3.8,4.3-5.2C313.7,321.7,314.3,321.3,315,321z"/>
		<path class="st161" d="M319,334c1.5-1.3,2.8-2.9,4.9-3.1c0.8,0.1,1.6,0.3,2.1,1.1c-0.3,0.3-0.7,0.7-1,1c-2.1-0.4-3.4,1.1-5,2
			C319.5,334.8,319.2,334.5,319,334z"/>
		<path class="st162" d="M329,331c0.6,0,1.3,0,1.9-0.1c-0.2,1.1-0.3,2.2-0.5,3.5c-1.6-0.6-2.4-1.8-2.5-3.4c0.2-0.1,0.4-0.2,0.5-0.4
			C328.7,330.7,328.9,330.8,329,331z"/>
		<path class="st163" d="M326,332c-0.9,0-1.7-0.2-2.1-1.1c0.4-0.3,0.7-0.7,1.1-1c1.2-0.1,2.8-1.4,3,1.1c0,0,0,0,0,0
			C327.3,331.3,326.7,331.7,326,332z"/>
		<path class="st164" d="M373.9,407.4c-0.3,2.4-2.3,3.1-4.2,3.4c-1.8,0.3-2.7-1-2.7-2.7c0.1-2.3,0.9-4.4,3.5-4.5
			C372.7,403.6,373.5,405.5,373.9,407.4z"/>
		<path class="st61" d="M332,267c2.6,2.6,2.7,4.6-1.4,5.6c-1.9,0.5-3.7,0.9-5.6,1.4c0,0-0.1-0.2-0.1-0.2c-0.1-1.9,1.5-2.1,2.7-2.8
			C329.9,270.6,330.6,268.4,332,267L332,267z"/>
		<path class="st127" d="M265,382c-1.7-1.4-0.8-3.3-1-5C265.6,378.4,264.8,380.3,265,382z"/>
		<path class="st165" d="M263,513c4.4,0.8,3.9-2.3,4-5c2.1,1.5-0.1,4.5,2,6c-1,8-4.9,14.1-12,18c-2.3,0.3-4.5,2.2-7,1
			c-1.7,0.3-3.3-1.1-5,0c-3.3-2.2-7.2-2.6-11-3c-1-1.3-2.4-1.8-4-2c-9.6-2.9-19.4-4.8-29.4-5.4c-3-0.2-5.4-1.4-7.8-2.8
			c-4.1-2.4-4.2-4.8-0.7-9.8c0,0.3,0,0.7,0,1c0.4,6.3,1.8,8.2,7.6,8.9c15.7,1.9,31,5.5,46.2,10.1c8.7,2.6,14.1-0.4,17.9-8.6
			C265.1,518.2,263.7,515.7,263,513z"/>
		<path class="st166" d="M354,463c0-0.3,0-0.7,0-1c3.5-2.1,6.6-0.5,9.8,0.9c0,0,0.4,0.2,0.4,0.2c0.1,0.3,0.1,0.6-0.1,0.9
			c-1.1,1.3-2,2.8-3.8,3.3c-2.2-0.6-3.3-2.7-5.4-3.4C354.5,463.7,354.2,463.4,354,463z"/>
		<path class="st167" d="M360,467c1.2-1.2,2.3-2.5,4.1-3c-0.2,1.2,1.2,2.1,0.6,3.3c-0.6-0.1-1.1-0.2-1.7-0.3c-1.3,0.7-0.8,3.2-3,3
			c-0.3,0.3-0.7,0.5-1.2,0.4C357.1,468.6,358.9,467.9,360,467z"/>
		<path class="st168" d="M328,272c-1,0.6-2,1.3-3.1,1.9c-2.6-0.2-3.9-1.6-3.2-4.1c0.7-2.3-1.1-5.7,2.7-6.6c2.3-0.5,4.3,0,4.7,2.8
			c-0.2,0.1-0.4,0.2-0.6,0.3c-1.4,0.2-3.4-1.3-4,1.3c-0.1,2.9,2.8,1.1,3.7,2.5C328.5,270.8,328.6,271.4,328,272z"/>
		<path class="st88" d="M328,272c0-0.7,0-1.3,0-2c0-0.2,0-0.4,0-0.6c0.2-1.2,0-2.4,0.9-3.4c0,0,0.2,0,0.2,0c1,0.3,1.9,0.7,2.9,1
			C332.1,269.9,330.9,271.6,328,272z"/>
		<path class="st169" d="M276,337.8c1.3-6.2,2.9-12.3,8.9-15.8c1,1,0.7,2.2,0.2,3.2c-2.6,4.4-3.5,9.6-6.2,13.9l-0.5,0
			c0,0-0.5,0-0.5,0C277.3,338.7,276.7,338.3,276,337.8z"/>
		<path class="st170" d="M360,472c-2.8,7.8,1.3,12.7,7,17c-1.1,2.5-2.7,1.4-4,0.4c-1.4-1.1-2.3-1-3,0.6c-1.9-5.7-4.9-11-6-17
			C356.1,473.2,357.9,471.8,360,472z"/>
		<path class="st3" d="M359,508c-1.2-5.8-0.5-11.4,1-17C360.5,496.7,361.2,502.4,359,508z"/>
		<path class="st126" d="M350.5,482.7c0.2-1.3,0.4-2.5,0.6-3.8c0.6,0.4,1-2.9,1.9,0.2c2.8,9.4,1.3,19,1.6,28.5
			c0.2,5-0.1,10.2,1.7,15.1c3.3,9.1,11.1,12.7,20.7,9.2c2-0.3,4-0.7,6-1c-5.3,3.5-10.9,4.9-17.2,3.5c-1.6-0.4-3.2-0.3-4.8-0.5
			c-0.7-0.3-1.3-0.7-2-1c-0.8-1.2-1.3-2.7-3-3c0-0.7,0-1.3,0-2c-1-1.2-1.5-2.6-2-4c0,0,0,0,0,0c-1.7-11.5-0.9-23-0.9-34.6
			c0-2.1-0.7-3.4-2.6-4.3C350.5,484.3,350.5,483.5,350.5,482.7z"/>
		<path class="st171" d="M360,472c-1.8,1.5-3.5,3.9-6,1c-0.3-0.3-0.7-0.7-1-1c1-2.3,0.7-4.7,0-7c0-0.7,0-1.3,0-2c0.3,0,0.7,0,1,0
			c0.3,0,0.7,0,1,0c1.5,1.4,1.1,3.3,1.6,5c0.4,1.1,0.4,2.8,2.4,2c0.3,0,0.7,0,1,0C360,470.7,360,471.3,360,472z"/>
		<path class="st133" d="M353,465c1.2,2.3,2.1,4.7,0,7C353,469.7,353,467.3,353,465z"/>
		<path class="st110" d="M367,536c2.3,0,4.7,0,7,0C371.7,537.6,369.3,537.6,367,536z"/>
		<path class="st125" d="M356,530c3.3-1.3,2.8,1.2,3,3C357.6,532.4,356.6,531.4,356,530z"/>
		<path class="st110" d="M354,524c1.3,1,1.8,2.4,2,4C354.5,527.1,352.8,526.3,354,524z"/>
		<path class="st172" d="M250,533c2.3-0.3,4.7-0.7,7-1C254.8,533.1,252.7,535.2,250,533z"/>
		<path class="st173" d="M363.8,462.9c-3.4,0.8-6.5-1.1-9.8-0.9c-0.8-0.4-1-1.2-1-2c0.3,0,0.7,0,1,0c3.7-0.9,7.4-0.7,10.9,1
			C364.5,461.7,364.2,462.3,363.8,462.9z"/>
		<path class="st166" d="M364.9,461c-3.6-0.2-7.2-1.6-10.9-1C357.8,458.9,361.6,457.3,364.9,461z"/>
		<path class="st174" d="M298,338c2.1,3.3,4.9,2.3,7.2,0.8c3.3-2.2,6.8-3,10.6-2.8c0.1,0.3,0.1,0.6,0.2,0.9c-1.4,1.3-3.3,1.5-5,2.1
			c-0.7,0.6-1.5,1.1-2.2,1.7c-0.5,2.7-2.9,1.2-4.3,1.9c-1,0.2-2,0.5-3,1c-0.4,0.2-0.8,0.4-1.2,0.5c-2.5,0.3-4.9,0.3-7.1-1
			c0.1-1.5,0.4-3.1-0.6-4.4c1.7-1.1,2-3.7,4.4-4C298,335.7,298.1,336.8,298,338z"/>
		<path class="st175" d="M316,345c-0.7,0.7-1.3,1.3-2,2c-1.9,2.1-5.1,1-7,3c-4.7,0.6-9.1,2.6-14,2c-0.5-0.9-3.2-0.3-1.6-2.5
			c1.6-0.8,3.2-0.8,4.6,0.5c3.6,1.5,6.7-0.6,9.9-1.5C309.3,347.5,312.6,346.2,316,345z"/>
		<path class="st175" d="M309,342.9c-2.5,3.6-6.8,1.7-10,3.1c-0.7,0.8-1.6,1.1-2.6,1.2c-2.1,0.2-4.2-0.3-6.2,0.6
			c-0.4,0.3-0.8,0.4-1.3,0.5c-2-0.7-3-1.6-0.8-3.4l0,0c2.5-2.3,5.4-0.6,8.1-1c1.6-0.3,3.7,1.3,4.9-1.1l0,0c1.8,0.1,3.5-0.7,5.3-0.8
			C307.2,342.5,308.2,342.3,309,342.9z"/>
		<path class="st176" d="M289,348c0-0.3,0-0.7,0-1c2.3-0.4,4.8,1,6.9-0.9c1,0,2,0,3,0c1,1.5,2.7,0.7,4.2,1.3c-2.1,2-5.4,0.4-7.2,2.7
			c-1.7,0-3.3,0-5,0C289.4,350.3,288.7,349.6,289,348z"/>
		<path class="st92" d="M311.1,339c1.3-1.6,3.1-2,5-2.1C314.9,338.8,313.6,340.2,311.1,339z"/>
		<path class="st177" d="M309,342.9c-1,0-2,0.1-3,0.1c-0.5-0.7-1.6-0.3-2.1-1c1.2-2,3.5,0.2,4.9-1.3
			C309.9,341.4,309.3,342.2,309,342.9z"/>
		<path class="st178" d="M319,334c0.3,0.3,0.6,0.6,1,1c-1.2,0.5-2.2,2.3-3.9,1.1C316.7,334.9,317.9,334.5,319,334z"/>
		<path class="st179" d="M289,348c0.4,1,1.1,1.6,2,2c0.7,0.7,1.3,1.3,2,2c-0.3,0-0.7,0-1,0c-3.6-1.6-6.4-4.1-9-7.1c1.7,0,3.3,0,5,0
			C287.2,346.4,287.4,347.4,289,348z"/>
		<path class="st180" d="M278.9,339.1c-0.4-4.1,2-7.3,3.3-10.8c0.8-2.1,2.5-3.9,2.7-6.3c0.8-1.8,2.3-2.1,4-1.9
			c-0.5,5.7-3.4,10.6-5.1,15.9c-0.5,1.5-1.8,3,0.3,4.3c0.9,0.7,1.9,1.3,2.3,2.5c0,0.5-0.1,0.9-0.5,1.3
			C283.3,342.9,280.5,341.9,278.9,339.1z"/>
		<path class="st181" d="M286,344c0-0.3,0.1-0.6,0.1-0.8c2-2.2,4.2-0.6,6.3-0.2c0.2,0.1,0.4,0.1,0.7,0.2c2.6-0.1,5.3-0.1,7.9-0.2
			c-0.2,2.4-2.1,2.1-3.7,2.1c-3.1,0-6.2,0-9.3,0C287.6,344.2,286.8,344.1,286,344z"/>
		<path class="st182" d="M319,304.1c2.3-0.1,3.6,1.4,4.9,3c0,1.6,0.1,4-2.3,1.8C320.4,307.7,318.5,306.4,319,304.1z"/>
		<path class="st183" d="M304,319.2c0.3,0.6,0.7,1.2,1,1.8c-0.5,1.5-1.9,1.3-3,1.7c-1.2,0.3-2.4,0.8-3.6,0.7c-0.4-0.1-0.8-0.3-1-0.6
			c-0.2-0.2-0.3-0.5-0.4-0.7c-0.2,0.5,0.1,0.9,0.1,1.4c-3.3,3.9-4,8.9-6.1,13.3c-1.3,2.8-2.6,2.7-4.8,2c-1.4-0.7-1.5-1.8-0.6-2.8
			c3.8-4.7,3.2-11,6.3-15.9c0.8-1.3-0.5-2.9,0.3-4.3c2.2-1,4.1-0.6,5.9,1c1.4,1.3,2.9,2.1,4.9,1.7
			C303.3,318.6,303.7,318.8,304,319.2z"/>
		<path class="st184" d="M302,322c1-0.3,2-0.7,3-1c2.8-0.5,5.4,0.3,8,1c-0.8,2.4-0.9,5.2-4,6c-0.2-1.2-0.8-1.7-1.5-1.4
			c-2.7,1.2-3.3,4.3-5.5,5.9c-0.7,0.7-1.5,1.2-2.6,1c-0.5-0.1-0.8-0.4-1.2-0.8C298.6,328.8,301.1,325.7,302,322z"/>
		<path class="st185" d="M303.8,315c0.4,0.2,0.8,0.3,1.1,0.5c0.8,0.3,1.8,0.3,2.1,1.3c-0.4,0.8-1,1.1-1.8,1.1
			c-1.2,0-2.5,0.1-3.5-0.9c-0.4-0.7-0.4-1.4,0-2.2C302.5,314.5,303.2,314.4,303.8,315z"/>
		<path class="st163" d="M302,317c1.2,0.1,2.4-0.2,3.2,1c-0.4,0.4-0.8,0.8-1.2,1.2c-0.3,0-0.7,0-1-0.1c-1,0.4-1.9,0.4-2.2-0.8
			C300.5,317.5,301,316.9,302,317z"/>
		<path class="st41" d="M336.9,387.6c2.3,1,4.8,0,7,1.1C341.5,388.8,338.9,389.9,336.9,387.6z"/>
		<path class="st41" d="M340,390.6c1.5-0.5,2.9-1.1,4.2,0c0.1,0.1,0.1,0.7-0.1,0.9C342.3,393.4,341.8,389.1,340,390.6z"/>
		<path class="st186" d="M292,316c3.3,4.2-1.4,7.3-1.8,11c-0.4,3.9-2,7.6-4.2,11c0.4,1.7-1.5,1.9-2,3c-1.6-0.2-3.5-1.2-2.7-2.6
			c3.4-5.8,4.1-12.7,7.7-18.4c1.7-0.8,2.1-2.3,2.1-4C291.4,315.6,291.7,315.6,292,316z"/>
		<path class="st187" d="M292,316l-0.5,0c0,0-0.5,0-0.5,0c0-0.3,0-0.6,0.1-0.8c0.5-0.1,1.1-0.2,1.6-0.3c3.1-0.5,6.2-0.8,9.3,0.2
			c0,0.6-0.1,1.2-0.1,1.9c-1.7,1.6-0.1,1.8,1,2.2c-2.2,1.8-3.9,0.6-5.4-1.1C296.1,316.3,294.2,315.7,292,316z"/>
		<path class="st188" d="M302.1,315.1c-3.1-0.1-6.2-0.1-9.3-0.2c0.1-0.2,0.1-0.4,0-0.7c3.7-0.1,7.4-1.2,10.9,0.8
			C303.2,315.1,302.7,315.1,302.1,315.1z"/>
		<path class="st189" d="M301,332c2.1-2.5,4.3-5,6.3-7.6c1.1-1.4,2.2-1,3.7-0.5c-0.7,1.4-1.3,2.8-2,4.1c-0.5,1.5-1.4,2.6-3,3
			C304.6,332.7,303,333.5,301,332z"/>
		<path class="st190" d="M301,332c1.8,0.1,3.5-0.1,5-1c-1.5,2.5-3.5,4.5-6,6c-2.6-0.8-2.6-0.8-1-4C299.8,333,300.6,332.8,301,332z"
			/>
		<path class="st191" d="M299,333c1.3,1.1-1.8,3.3,1,4c-0.4,0.8-1.2,1-2,1c-1.2-0.7-1-1.9-1-3C296.7,333.4,297.4,332.7,299,333
			L299,333z"/>
		<path class="st91" d="M328,331c-0.7-1.2-1.9-0.9-3-1.1c1.8-1.3,3.3-1.6,4,1.1C328.7,331,328.3,331,328,331z"/>
		<path class="st82" d="M371.9,407.2c-0.1,1.2-0.6,1.7-1.6,1.6c-0.8-0.1-1.1-0.6-1.1-1.3c0-0.9,0.4-1.8,1.3-1.8
			C371.4,405.6,371.8,406.5,371.9,407.2z"/>
		<path class="st2" d="M359,470c-1.9,1.7-3.1,1.2-3.5-1.3c-0.3-1.9-0.4-3.8-0.5-5.7c2.5,0.2,3.8,2.1,5,4
			C359.7,468,359.3,469,359,470z"/>
		<path class="st192" d="M328,270c-3,1.3-5.8,2.2-5-3c1.3-0.9,2.5-2.4,4.3-0.9C328.6,267.2,329,268.5,328,270L328,270z"/>
		<path class="st193" d="M328,270c0.3-4.2-2.1-4-4.9-2.9c1.2-4.4,3.6-2.1,5.8-1.1C329,267.4,330.5,269.2,328,270z"/>
		<path class="st194" d="M299,333c-0.7,0.7-1.3,1.3-2,2c-1.8,0.9-1.9,3.5-4,4c-0.4,0.3-0.8,0.3-1.3,0c-0.8-3.1,1.3-5.5,2.3-8.1
			c1.1-2.7,2.6-5.3,3.9-7.9c1.2-0.7,2.5-1.2,4-1C303.2,326.3,300,329.3,299,333z"/>
		<path class="st195" d="M292,339c0.3,0,0.7,0,1,0c0.6,1.2,2.5-0.6,2.8,1.1c0.4,2.2-2.4,1.5-2.8,3c0,0,0,0,0,0c-2,0.8-3.2-0.2-3.4-2
			C289.4,339.7,290.4,338.8,292,339z"/>
		<path class="st196" d="M303.9,342c0.8,0.1,1.6,0.2,2.1,1c-1.7,0.3-3.4,1.3-5.1,0C301.7,341.8,302.9,342.1,303.9,342z"/>
		<path class="st197" d="M296,346c-1.8,3.9-4.4,2-6.9,0.9C291.1,345.1,293.7,346.4,296,346z"/>
		<path class="st198" d="M292,339c-3.3,2.3-1.7,3.4,1.1,4.1c-2.3,1.9-4.7-0.8-7,0.1c-0.7-0.7-1.4-1.4-2.1-2.2c-1.5-2.4,1.7-1.8,2-3
			c2,0.4,3.8,0.5,4.4-2.2c1-4.6,2.8-9,5.6-12.8c0.7-0.6,1.3-0.6,2,0c0,0,0,0,0,0c-0.2,5.2-3.5,9.2-5.5,13.7
			C292.2,337.4,292.2,338.2,292,339z"/>
		<path class="st199" d="M298,323c-0.7,0-1.3,0-2,0c0-1,0-1.9,0-4.2C297,320.9,297.5,322,298,323z"/>
	</g>
</g>
</svg>
