<?xml version="1.0" encoding="utf-8"?>
<!-- Generator: Adobe Illustrator 21.0.0, SVG Export Plug-In . SVG Version: 6.00 Build 0)  -->
<svg version="1.1" id="Layer_1" xmlns="http://www.w3.org/2000/svg" xmlns:xlink="http://www.w3.org/1999/xlink" x="0px" y="0px"
	 viewBox="0 0 612 792" style="enable-background:new 0 0 612 792;" xml:space="preserve">
<style type="text/css">
	.st0{fill:#F3DB1E;}
</style>
<g>
	<g>
		<path class="st0" d="M307,1397c-331.8,0-663.7,0-995.5,0.1c-3.7,0-4.6-0.8-4.6-4.6c0.1-663.7,0.1-1327.3,0-1991
			c0-3.7,0.8-4.6,4.6-4.6c663.7,0.1,1327.3,0.1,1991,0c3.7,0,4.6,0.8,4.6,4.6c-0.1,663.7-0.1,1327.3,0,1991c0,3.7-0.8,4.6-4.6,4.6
			C970.7,1397,638.8,1397,307,1397z"/>
		<path d="M838.8,1240.3c-49,0.1-97-6.4-143.4-22.3c-86.7-29.7-152.3-84.4-195.5-165.5c-1.7-3.2-1.7-4.7,1.8-6.7
			c48.4-27.9,96.7-56,145-84.2c3-1.8,4.3-1.5,6.1,1.5c14.9,24,32,46.3,53.5,64.9c29.5,25.4,63.7,40,102.4,44.1
			c30.1,3.2,59.9,2,88.7-8.2c22.9-8.1,42.4-20.9,55.1-42.3c20.4-34.3,12.2-80.5-18.7-107.6C915.7,898,894.5,887.2,873,877
			c-38.7-18.5-78.7-34-117.7-51.9c-40.8-18.7-79.9-40.4-114-70c-44.4-38.5-72.4-86.3-82.4-144.4c-7.9-46.5-7.6-92.6,7.6-137.7
			c24.1-71.3,73-119,142.1-146.7c42.5-17.1,87.1-22.6,132.6-21.4c38.2,1,75.6,6.3,111.5,19.8c47,17.6,84.7,47.6,115.1,87.1
			c9.8,12.7,18.4,26.1,26.6,39.8c1.7,2.9,1.3,4-1.4,5.7c-46.5,29.8-93,59.7-139.4,89.6c-3,1.9-4.1,1.4-5.8-1.5
			c-11.4-19.9-24.5-38.4-42.7-52.9c-17.9-14.2-38.5-21.4-61.1-23.3c-18.1-1.5-35.9-0.6-53.2,5.9c-34.9,13.1-54.2,44.9-51.5,82
			c2.3,31.7,18.8,53.5,44.3,70.1c25.2,16.4,52.8,28.1,80.3,39.9c43.4,18.6,87,36.7,128.2,59.9c33.5,18.9,65.1,40.3,91.9,68.2
			c36,37.5,56.9,82.2,64,133.6c4.7,33.9,5.1,67.7-1.1,101.5c-13.1,71.4-51.3,125.4-113.3,162.6c-37.9,22.8-79.3,35.6-122.8,42.2
			C887.1,1238.7,863,1240.5,838.8,1240.3z"/>
		<path d="M396.1,655.8c0,102.7,0.2,205.3-0.1,308c-0.1,44.3-6.8,87.6-24,128.7c-27.6,66.2-76.6,109.3-144.3,131.2
			c-48.6,15.7-98.5,19-149.1,14.6c-41.9-3.6-81.8-14.3-119.1-34.1c-52.2-27.8-90.6-69.2-118.4-120.9c-2-3.7-3.6-7.5-5.7-11.1
			c-1.8-3-0.9-4.4,1.9-6.1c48.7-29.4,97.4-58.9,146-88.5c3.1-1.9,4-0.9,5.4,1.7c9.4,16.7,19,33.2,30.8,48.4
			c15.9,20.3,35.1,36.1,60.9,41.7c23.5,5.1,47.1,4.3,70.1-2.6c28.3-8.6,43.9-29.3,51.3-56.9c4.4-16.2,6.2-32.7,6.2-49.4
			c0.1-87.2,0.1-174.3,0.1-261.5c0-126,0-252-0.1-377.9c0-4.9,1.3-5.9,6.1-5.9c58.8,0.2,117.6,0.2,176.5,0c4.8,0,5.6,1.4,5.6,5.8
			C396.1,432.5,396.1,544.2,396.1,655.8C396.1,655.8,396.1,655.8,396.1,655.8z"/>
	</g>
</g>
</svg>
