<?xml version="1.0" encoding="utf-8"?>
<!-- Generator: Adobe Illustrator 21.0.0, SVG Export Plug-In . SVG Version: 6.00 Build 0)  -->
<svg version="1.1" id="Layer_1" xmlns="http://www.w3.org/2000/svg" xmlns:xlink="http://www.w3.org/1999/xlink" x="0px" y="0px"
	 viewBox="0 0 918.2 1032.3" style="enable-background:new 0 0 918.2 1032.3;" xml:space="preserve">
<style type="text/css">
	.st0{fill:#6499D1;}
	.st1{fill:#004481;}
	.st2{fill:#00589B;}
	.st3{fill:#FEFEFE;}
	.st4{fill:#9DBFE2;}
</style>
<g>
	<g>
		<path class="st0" d="M453.1,0.1c4,0,8,0,12,0c1.9,1,3.9,0.2,5.8,0.5c10.7-0.1,20.6,2.2,30,7.7c57.7,33.3,115.4,66.6,173.2,99.9
			c54.4,31.3,108.8,62.8,163.2,94.1c13.4,7.7,26.8,15.5,40.3,23.2c11.7,6.7,20.6,16.2,28,27.3c1.3,1.9,2.6,3.9,1.9,6.5
			c-4,3.9-9.2,5.9-13.9,8.6c-54.2,31.3-108.3,62.6-162.6,93.8c-2.3,1.3-4.6,2.9-7.5,2c-2.2-1.1-3.4-3.1-4.6-5.1
			c-14.5-23.5-31.5-45.1-51.8-63.7c-44.8-41.1-97-67.4-157-77.8c-18.1-3.1-36.3-5.1-54.6-4.7c-42.7,1-83.7,9.9-122.8,27.8
			c-26.1,12-49.9,27.3-71.7,45.9c-26.7,22.8-48.6,49.6-66,80.1c-18.6,32.6-30.7,67.5-36.5,104.5c-3.1,19.8-4.3,39.7-3.2,59.7
			c1.9,34.8,9.2,68.5,22.6,100.8c4.4,10.6,9.4,21,14.9,31.1c1.1,2.1,2.4,4,2.1,6.5c-1.2,3.6-4.5,4.7-7.3,6.3
			c-23.9,13.8-47.8,27.6-71.7,41.4c-31.5,18.2-63.1,36.4-94.6,54.6c-3,1.7-5.8,4.1-9.5,3.8c-6.6-4.9-8.1-12.4-10-19.7
			c-0.9-3.3-0.5-6.8-1.6-10.1c0-152.7,0-305.3,0-458c1.2-15.3,7.6-28.4,16.7-40.3c8-10.5,18.2-18.1,29.7-24.7
			c75.4-43.5,150.8-86.9,226.2-130.5c48-27.7,96-55.3,144-83.1c9.5-5.5,19.6-8,30.5-7.9C449.2,0.3,451.2,1.1,453.1,0.1z"/>
		<path class="st1" d="M12.1,774.1c42.6-24.6,85.2-49.3,127.9-73.9c18-10.4,36-20.7,54.1-31.1c3.1,0,4.1,2.5,5.4,4.6
			c8.3,13.3,17.4,25.9,27.5,38c17.6,21.1,38,39.1,60.5,54.7c33.6,23.3,70.5,38.7,110.4,47.1c15.1,3.2,30.5,4.6,45.9,5.8
			c12.9,1,25.6,0.5,38.3-0.5c27.2-2,53.7-7.6,79.3-17c31.7-11.5,60.8-27.6,87.3-48.6c27.9-22.2,51-48.5,69.8-78.8
			c1.4-2.2,2.6-4.7,5.1-6c2.9-0.8,5.2,0.6,7.5,1.9c43.4,25,86.9,50.1,130.3,75.1c12.7,7.3,25.4,14.7,38.1,22
			c2.8,1.6,6.2,2.8,7.5,6.3c0.4,2.9-1,5.2-2.6,7.4c-7.3,10.3-15.9,19.2-27,25.5c-51,29.3-101.8,58.8-152.8,88.1
			c-58.2,33.5-116.3,67.1-174.4,100.6c-12.7,7.3-25.5,14.4-38,22c-12.7,7.8-25.7,14.7-41.1,14.7c-8.3,0-16.7,0-25,0
			c-16.8,0.3-30-8.8-43.6-16.6c-62.5-36.1-125.1-72.2-187.7-108.3c-58.5-33.7-117.1-67.5-175.6-101.3c-10.6-6.1-18.7-14.9-25.6-24.9
			C12.3,779,10.6,776.8,12.1,774.1z"/>
		<path class="st2" d="M906.1,774.1c-13.5-7.9-26.9-15.8-40.4-23.7c-22.7-13.2-45.4-26.3-68.2-39.3c-24.5-14-49-28-73.6-42
			c-3.1,1.1-5.5-0.9-7.8-2.3c-28-16.2-56-32.4-84-48.7c-13.8-8-27.6-15.9-41.5-23.9c-25.9-15.3-52.1-30.1-78.2-45.2
			c-15.8-9.2-31.7-18.3-47.5-27.4c-2.2-1.3-4.9-2.4-5.5-5.4c0.3-2.9,2.6-4.1,4.8-5.3c40.7-23.5,81.4-46.9,122-70.5
			c1.7-1,3.8-1.3,5.3-2.7c27.9-16.2,55.8-32.3,83.7-48.4c13.8-8,27.6-16.1,41.4-24c2.3-1.3,4.5-2.9,7.4-2.2
			c21.4-12.2,42.8-24.4,64.1-36.7c37.8-21.8,75.5-43.6,113.3-65.4c1.7-1,3.3-2.4,5.5-1.9c3,0.3,3.7,2.9,5,4.9
			c4.5,7.4,4.7,15.8,6.1,24c0,152.3,0,304.7,0,457c-1.5,8.5-2.2,17.3-7.1,24.9C909.8,771.9,909.1,774.4,906.1,774.1z"/>
		<path class="st3" d="M918.1,288.1c-2.6-6-3.1-12.7-6.1-18.7c-1.7-3.4-3.4-6.9-5-10.3c-8-14.2-19-25.3-33.3-33.5
			c-124.3-71.5-248.6-143.3-372.8-215c-9.2-5.3-19-8.7-29.7-9.6c-0.7-0.2-0.8-0.5-0.1-0.9c147.5,0,295,0,442.5-0.1
			c3.7,0,4.6,0.8,4.6,4.6C918.1,99.1,918.1,193.6,918.1,288.1z"/>
		<path class="st3" d="M447,1c-10.1,0.9-19.6,3.8-28.4,8.9C292.5,82.6,166.4,155.3,40.4,228.2c-20.5,11.9-32,31-38.3,53.5
			c-0.5,1.9-0.2,4-2,5.4c0-94.3,0-188.5-0.1-282.8C0,0.5,1,0,4.4,0C152,0.1,299.5,0.1,447.1,0.1C447.8,0.5,447.7,0.8,447,1z"/>
		<path class="st3" d="M906.1,774.1c5-7.4,7.9-15.6,10.1-24.2c0.4-1.6,0.1-3.7,1.9-4.9c0,94.3,0,188.5,0.1,282.8
			c0,3.8-1,4.3-4.4,4.3c-147.6,0-295.1,0-442.7,0c1.8-2,4.3-1.3,6.4-1.7c8.2-1.7,15.9-4.5,23.2-8.7
			C625.9,949.5,751.1,877.3,876.4,805C889.3,797.5,899.1,787.2,906.1,774.1z"/>
		<path class="st3" d="M12.1,774.1c7,13.1,16.8,23.4,29.7,30.9c92.5,53.3,185,106.7,277.6,160.1c31.6,18.2,63.2,36.3,94.6,54.7
			c9.2,5.3,18.7,9.3,29.2,11.2c1,0.2,2.4-0.3,3,1.2c-147.2,0-294.5,0-441.7,0.1c-3.5,0-4.4-0.5-4.4-4.3
			c0.1-94.3,0.1-188.5,0.1-282.8c2.4,3.5,2.3,7.8,3.8,11.6C6.2,762.7,8.3,768.8,12.1,774.1z"/>
		<path class="st4" d="M447,1c0.1-0.3,0.1-0.6,0.1-0.9c2,0,4,0,6,0C451.2,1.6,449.1,1.1,447,1z"/>
		<path class="st4" d="M471.1,0.1c0,0.3,0,0.6,0.1,0.9c-2.1,0.1-4.2,0.6-6.1-0.9C467.1,0.1,469.1,0.1,471.1,0.1z"/>
		<path class="st3" d="M591.1,593c1.5-0.4,2.5,0.6,3.7,1.2c42.8,24.8,85.6,49.5,128.4,74.3c0.3,0.2,0.5,0.4,0.8,0.6
			c-44.3,74.5-108.6,122.8-192.6,143.8C402,845.3,266.1,788.3,196.9,673.7c-0.9-1.6-2-3.1-3-4.6c-13.7-24.5-24.5-50.2-31.5-77.5
			c-34.7-135.5,28.3-278.7,151.7-344.7c47.1-25.2,97.5-38.5,150.8-36.3c113.2,4.6,199.7,55.8,259.1,152.5
			c-20.4,11.9-40.7,23.8-61.1,35.6c-23.6,13.6-47.2,27.2-70.8,40.8c-3.4,0.1-4.9-2.5-6.4-4.9c-5.7-8.9-12.1-17.2-19.6-24.5
			c-9.5-9.4-20-17.5-31.7-24.2c-17.9-10.3-37-16.6-57.4-19.3c-26.3-3.4-51.7,0.6-76.2,10.6c-18.2,7.4-34.2,18.2-47.9,31.9
			c-21.7,21.7-35.9,47.7-41.9,78c-6.8,34.5-1.6,67.2,14.1,98.4c1.1,2.2,1.8,4.7,3.2,6.7c6.1,8.5,11.9,17.2,19,25
			c10.1,11.2,21.7,20.6,34.6,28.3c19.9,11.9,41.3,18.9,64.5,20.7c43.1,3.4,80.5-9.8,113.1-37.8c10.1-8.7,18.2-18.9,25.7-29.7
			C586.8,596.4,587.8,593.5,591.1,593z"/>
		<path class="st0" d="M327.1,593c-33.2-54.7-26.4-128.7,16.5-176.9c30.8-34.7,69.6-53.2,115.9-52.6c54.9,0.6,97.8,24.9,128.6,70.4
			c1.3,1.9,2,4.3,4.1,5.5c-42.8,24.7-85.6,49.4-128.5,74.1c-1.3,0.7-2.5,1.7-3.7,2.5c-1.2,3.1-4,4.3-6.6,5.8
			c-32.5,18.7-64.9,37.5-97.4,56.2c-7.7,4.4-15.3,8.9-22.9,13.2C331.3,592.3,329.4,593.4,327.1,593z"/>
		<path class="st1" d="M327.1,593c7.4-6,16.1-9.9,24.3-14.7c35.1-20.4,70.3-40.7,105.5-61c1-0.6,2.1-1,3.2-1.4
			c10.8,7.3,22.3,13.3,33.5,19.8c24.9,14.5,49.9,28.8,74.8,43.1c6.1,3.5,12.1,7,18.2,10.4c1.8,1,3.6,1.9,4.6,3.7
			c-22.2,37.5-54.6,61.2-96.6,71.7C429.8,680.8,360.2,650.8,327.1,593z"/>
		<path class="st3" d="M824.6,480.8c0.5-4.5-2.4-11.8,1.1-14.9c3-2.7,10.2-0.7,15.5-0.8c4,0,8,0.3,12-0.1c4.2-0.4,5.8,0.7,5.6,5.3
			c-0.4,8.1,0.1,16.3-0.2,24.5c-0.1,3.6,1.1,4.4,4.5,4.3c8.7-0.2,17.3,0,26-0.1c2.7,0,3.8,0.6,3.8,3.6c-0.2,9-0.2,18,0,27
			c0.1,3-1.1,3.6-3.8,3.5c-8.8-0.1-17.7,0.1-26.5-0.1c-3-0.1-4,0.7-4,3.9c0.2,8.7,0,17.3,0.1,26c0.1,3-0.4,4.4-4,4.3
			c-8.8-0.3-17.7-0.2-26.5,0c-2.9,0.1-3.6-1-3.6-3.7c0.1-8.8-0.1-17.7,0.1-26.5c0.1-3-0.7-4-3.9-3.9c-8.8,0.2-17.7,0-26.5,0.1
			c-2.7,0-3.8-0.6-3.7-3.6c0.2-9,0.2-18,0-27c-0.1-3,1-3.6,3.8-3.5c8.8,0.1,17.7-0.1,26.5,0.1c3.2,0.1,4-0.9,3.9-4
			C824.4,490.7,824.6,486.2,824.6,480.8z"/>
		<path class="st3" d="M747.9,533.1c-4.3,0-8.7,0.2-13-0.1c-3-0.2-4,0.7-3.9,3.8c0.2,8.8-0.1,17.7,0.2,26.5c0.1,3.2-0.9,3.9-3.9,3.8
			c-8.7-0.2-17.3-0.3-26,0c-3.7,0.1-4.3-1.2-4.2-4.5c0.2-8.7,0-17.3,0.1-26c0.1-2.8-0.7-3.7-3.6-3.6c-8.8,0.2-17.7-0.1-26.5,0.1
			c-3.4,0.1-4.1-1-4.1-4.2c0.2-8.3,0.2-16.7,0-25c-0.1-3.7,0.7-5.2,4.8-5c8.6,0.4,17.3,0,26,0.2c2.6,0,3.4-0.7,3.4-3.3
			c-0.2-8.8,0.1-17.7-0.2-26.5c-0.1-3.6,1.1-4.4,4.5-4.3c8.3,0.2,16.7,0.3,25,0c3.6-0.1,4.9,0.6,4.7,4.6c-0.3,8.7,0,17.3-0.2,26
			c-0.1,2.9,0.8,3.7,3.6,3.6c8.8-0.2,17.7,0.1,26.5-0.1c3.4-0.1,4.1,1,4.1,4.2c-0.2,8.7-0.2,17.3,0,26c0.1,2.9-0.5,4.2-3.8,4
			C756.9,532.9,752.4,533.1,747.9,533.1z"/>
	</g>
</g>
</svg>
