<?xml version="1.0" encoding="utf-8"?>
<!-- Generator: Adobe Illustrator 21.0.0, SVG Export Plug-In . SVG Version: 6.00 Build 0)  -->
<svg version="1.1" id="Layer_1" xmlns="http://www.w3.org/2000/svg" xmlns:xlink="http://www.w3.org/1999/xlink" x="0px" y="0px"
	 viewBox="0 0 1151.8 449.9" style="enable-background:new 0 0 1151.8 449.9;" xml:space="preserve">
<style type="text/css">
	.st0{fill:#003366;}
	.st1{fill:#FEFEFE;}
</style>
<g>
	<g>
		<path class="st0" d="M1151.8,428.8c-21.8,0-43.1,0-64.5,0.1c-2.9,0-3.1-1.8-3.6-3.8c-5.8-19.2-11.8-38.5-17.4-57.8
			c-1-3.5-2.3-4.7-6-4.6c-23.2,0.2-46.3,0.1-69.5,0.1c-1.8,0-3.6,0-5.3,0c-0.8-1.9,0.4-3.1,1-4.4c7.4-16.4,14.9-32.7,22.1-49.1
			c1.5-3.5,3.4-4.4,7-4.4c10.7,0.2,21.3,0.1,32.5,0.1c-12.5-42-24.8-83.7-37.5-126.5c-5,16.9-9.8,32.8-14.5,48.6
			c-19.5,65.7-38.9,131.3-58.3,197c-1.1,3.7-2.7,4.8-6.5,4.8c-33.3,0.1-66.6,0.3-99.9,0.7c-3.6,0-5.6-1-7.6-4.1
			c-20.9-32.7-42-65.2-62.9-97.8c-2-3.2-4.1-4.4-7.9-4.4c-18,0.2-36,0.2-54,0c-3.8,0-5,0.9-5,4.9c0.2,32.2,0,64.3,0.2,96.5
			c0,3.9-0.9,5-4.9,5c-19.3-0.2-38.7-0.2-58,0c-3.5,0-4.4-1-4.4-4.5c0.1-104.3,0.1-208.6,0-313c0-2.8,0-4.5,3.8-4.4
			c57.7,0.2,115.3-0.1,173,0.3c34.7,0.2,57.9,21.5,59.6,56.1c1.6,32.4,2.4,65-0.5,97.4c-2.2,24.7-14.2,44.4-37.6,55.7
			c-1.5,0.7-3.2,1.2-1.5,3.5c18,25.3,36,50.7,54.6,76.9c1.7-5.5,3.2-10.1,4.5-14.8c26.8-90.3,53.6-180.7,80.3-271.1
			c1-3.5,2.4-4.9,6.4-4.9c27.3,0.2,54.7,0.2,82,0c3.8,0,5.5,1,6.5,4.7c30.8,104.2,61.8,208.4,92.7,312.6
			C1151,425.5,1151.3,426.8,1151.8,428.8z"/>
		<path class="st0" d="M232.2,430.9c-10.3,0-20.7-0.1-31,0c-2.7,0-4.1,0-3.6-3.7c2-14.5-1.9-28-8.2-41
			c-10.9-22.5-26.5-41.8-42.5-60.8c-21.3-25.2-45.6-47.7-68.2-71.7c-27.6-29.2-51.5-61-67.3-98.4C6,142.5,2,129.4,0.4,115.6
			c-0.4-3.1-0.6-6.3-0.3-9.5c0.6-6.4,4.4-8.6,10.5-6.5c1.4,0.5,2.8,1.1,4,1.9c17.2,13,37.1,18.3,58.2,20c3.2,0.3,4.4,1.3,5.3,4.4
			c4.9,17.2,14,32.3,24.2,46.7c17.2,24.1,37.1,45.8,58.6,66c1.3,1.3,2.2,2.5,4.3,0.5c28.5-28.2,55.5-57.5,73.9-93.7
			c3.1-6.1,5.7-12.4,7.4-19c0.7-2.8,1.8-3.7,4.6-3.9c19-1.6,37-6.4,53.2-16.7c3.4-2.1,6.2-5,10.2-6.2c5.6-1.7,8.9,0,9.5,5.8
			c1.1,10.3-1.3,20.2-4,30c-8.9,32.3-25.9,60.3-45.9,86.8c-16.6,22.5-36.1,42.3-56,61.8c-2.9,2.9-3.3,4.5-0.6,8
			c29.5,36.9,46.4,78.8,50.2,126c1.1,12.9,1.2,12.9-11.5,12.9C248.2,430.9,240.2,430.9,232.2,430.9z"/>
		<path class="st0" d="M463.3,235.9c0,40.3-0.2,80.6,0.1,120.9c0.1,11.9,0.4,23.6-2.9,35.1c-8.7,30.1-30,46.4-59.2,54
			c-9.2,2.4-18.6,3.4-28.1,4c-3.1,0.2-4.6-0.4-5.5-3.8c-4.3-16.4-8.9-32.7-13.6-49c-0.9-3.2-0.6-4.7,3.1-5.1
			c6.1-0.7,12-2.4,17.9-4.1c10.8-3.2,16.8-10.7,19.7-21.2c2.3-8.1,2.4-16.4,2.4-24.8c0-76.3,0.1-152.6-0.1-228.9
			c0-5.2,1.4-6.2,6.3-6.2c18.3,0.3,36.6,0.3,55,0c4-0.1,4.9,1.1,4.9,5C463.3,153.3,463.3,194.6,463.3,235.9z"/>
		<path class="st0" d="M512.9,267.5c0-51.7,0-103.3-0.1-155c0-4.1,0.6-5.6,5.3-5.6c19.5,0.3,39,0.2,58.5,0.1c3.5,0,4.4,0.9,4.4,4.4
			c-0.1,104.3-0.1,208.6,0,313c0,4-1.3,4.6-4.8,4.6c-19.5-0.2-39-0.2-58.5,0c-4,0-4.9-1.1-4.9-5C513,371.8,512.9,319.7,512.9,267.5z
			"/>
		<path class="st0" d="M91.8,434.9c-10.2,0-20.3-0.2-30.5,0.1c-3.8,0.1-4.7-1-4.6-4.7c1-38.4,11.9-73.9,30.7-107.2
			c2.8-4.9,6-9.6,8.9-14.4c1.3-2.1,2.1-2.8,4.2-0.6c16.3,17.2,32.4,34.5,47.1,53c1.9,2.4,1.3,3.9-0.1,6.1
			c-8.9,13.7-16.7,28-19.9,44.3c-1.2,6.2-1.9,12.5-0.7,18.8c0.7,3.6,0,4.9-4.1,4.8C112.5,434.7,102.1,434.9,91.8,434.9z"/>
		<path class="st0" d="M162.5,127.8c11,0,22,0,32.9,0c7,0,9.6,3.1,8.3,10.1c-0.8,4.8-3.2,9.1-5.9,13.1c-9.4,14.1-21.2,26-33.1,37.8
			c-1.8,1.8-2.8,1.3-4.4-0.2c-13.2-13.2-25.5-27.1-35.2-43.1c-1.8-3-3.3-6.1-3.7-9.7c-0.7-5.8,1.1-7.9,7.1-7.9
			C139.9,127.8,151.2,127.8,162.5,127.8z"/>
		<path class="st0" d="M74.2,24.8c17.2,0,30.8,13.6,30.7,30.7C104.8,72.2,91,85.9,74.3,85.9c-17,0-30.6-13.7-30.6-30.8
			C43.9,38.1,57.2,24.8,74.2,24.8z"/>
		<path class="st0" d="M254.8,24.8c17.2,0.1,30.5,13.6,30.3,30.9C285,72.5,271.2,86,254.4,85.9c-16.9-0.1-30.6-14.1-30.4-31.1
			C224.2,38,237.8,24.8,254.8,24.8z"/>
		<path class="st0" d="M166,61.1c-16.8-0.1-30.3-13.7-30.3-30.5c0-17.1,13.7-30.7,30.8-30.6c16.7,0.1,30.4,13.9,30.4,30.6
			C196.9,47.4,183,61.1,166,61.1z"/>
		<path class="st1" d="M694,217.5c0-15.2,0.1-30.3-0.1-45.5c0-3.1,0.5-4.3,4-4.2c25.1,0.2,50.3,0,75.4,0.2
			c19.9,0.1,30.3,10.4,30.3,30.3c0,13.6,1.5,27.3-1.6,40.8c-1.7,7.4-4.9,14.1-10.3,19.6c-5.2,5.4-11.5,8.2-19.1,8.2
			c-24.8,0-49.6-0.1-74.4,0.1c-3.7,0-4.3-1.3-4.2-4.5C694.1,247.5,694,232.5,694,217.5z"/>
	</g>
</g>
</svg>
